<?xml version="1.0" encoding="utf-8"?>
<!-- Generator: Adobe Illustrator 26.0.1, SVG Export Plug-In . SVG Version: 6.00 Build 0)  -->
<!DOCTYPE svg PUBLIC "-//W3C//DTD SVG 1.1//EN" "http://www.w3.org/Graphics/SVG/1.1/DTD/svg11.dtd" [
	<!ENTITY ns_extend "http://ns.adobe.com/Extensibility/1.0/">
	<!ENTITY ns_ai "http://ns.adobe.com/AdobeIllustrator/10.0/">
	<!ENTITY ns_graphs "http://ns.adobe.com/Graphs/1.0/">
	<!ENTITY ns_vars "http://ns.adobe.com/Variables/1.0/">
	<!ENTITY ns_imrep "http://ns.adobe.com/ImageReplacement/1.0/">
	<!ENTITY ns_sfw "http://ns.adobe.com/SaveForWeb/1.0/">
	<!ENTITY ns_custom "http://ns.adobe.com/GenericCustomNamespace/1.0/">
	<!ENTITY ns_adobe_xpath "http://ns.adobe.com/XPath/1.0/">
]>
<svg version="1.1" id="Слой_1" xmlns:x="&ns_extend;" xmlns:i="&ns_ai;" xmlns:graph="&ns_graphs;"
	 xmlns="http://www.w3.org/2000/svg" xmlns:xlink="http://www.w3.org/1999/xlink" x="0px" y="0px" width="577.6px" height="589.3px"
	 viewBox="0 0 577.6 589.3" style="enable-background:new 0 0 577.6 589.3;" xml:space="preserve">
<style type="text/css">
	.st0{fill-rule:evenodd;clip-rule:evenodd;fill:#E3EEFF;}
	.st1{fill-rule:evenodd;clip-rule:evenodd;fill:#F7FAFF;}
	.st2{fill-rule:evenodd;clip-rule:evenodd;fill:#6FAB0C;}
	.st3{fill-rule:evenodd;clip-rule:evenodd;fill:#FFC00C;}
	.st4{fill-rule:evenodd;clip-rule:evenodd;fill:#6697F2;}
	.st5{fill:#5389ED;}
	.st6{fill-rule:evenodd;clip-rule:evenodd;fill:#5389ED;}
	.st7{fill-rule:evenodd;clip-rule:evenodd;fill:#71A0F7;}
	.st8{fill-rule:evenodd;clip-rule:evenodd;fill:#FFD333;}
	.st9{fill-rule:evenodd;clip-rule:evenodd;fill:#FFE863;}
	.st10{fill-rule:evenodd;clip-rule:evenodd;fill:#619E00;}
	.st11{fill-rule:evenodd;clip-rule:evenodd;fill:#7FBA1F;}
</style>
<metadata>
	<sfw  xmlns="&ns_sfw;">
		<slices></slices>
		<sliceSourceBounds  bottomLeftOrigin="true" height="589.3" width="577.6" x="204.6" y="-44.7"></sliceSourceBounds>
	</sfw>
</metadata>
<g>
	<path class="st0" d="M288.8,589.3c159.1,0,288.8-132.4,288.8-294.6S447.9,0,288.8,0C129.7,0,0,132.4,0,294.6
		C0,456.9,129.7,589.3,288.8,589.3L288.8,589.3z"/>
	<path class="st1" d="M406.3,563.7c100.8-46.1,171.3-149.4,171.3-269s-70.5-223-171.3-269c-0.3,0.7-0.5,1.6-0.6,2.4L401,80.3l0,0
		c-0.3,3.2-2.6,5.8-5.6,6.4l0,0c-18.7,5-36.5,12.5-52.8,22.1h0c-2.6,1.7-6.1,1.5-8.5-0.5l0,0l-40-33.6c-3.4-2.8-8.1-2.8-11.5-0.2
		c-4.8,3.8-9.5,7.6-13.9,11.6c-4.6,4.1-9,8.2-13.1,12.4c-4.1,4.2-8.2,8.6-12.3,13.3c-3.9,4.5-7.7,9.2-11.4,14.1
		c-2.7,3.6-2.5,8.5,0.4,11.8l33.2,40.4c1.9,2.4,2,5.8,0.4,8.4h0c-9.6,16.5-17,34.4-21.9,53.4h0c0,0.1,0,0.1,0,0.2l-0.1,0.2
		c-0.8,2.8-3.3,5-6.2,5.2l0,0l-51.8,4.9c-4.3,0.4-7.7,3.8-8.2,8c-0.8,6.1-1.4,12.1-1.8,18.1c-0.4,6.2-0.6,12.2-0.6,18.2
		s0.2,12,0.6,18.2c0.4,6,1,12,1.8,18.1c0.6,4.5,4.2,7.8,8.5,8l51.8,4.8c2.8,0.3,5.2,2.4,6,5.1l0.1,0.4v0.1h0
		c4.9,18.9,12.4,36.8,21.9,53.4l0,0c1.6,2.5,1.5,5.9-0.4,8.4l-33.2,40.4c-2.9,3.3-3.1,8.2-0.4,11.8c3.7,4.9,7.5,9.6,11.4,14.1
		c4.1,4.7,8.1,9.1,12.3,13.3c4.1,4.2,8.5,8.3,13.1,12.4c4.5,4,9.1,7.8,13.9,11.5c3.3,2.6,8.1,2.6,11.5-0.2l40-33.6l0,0
		c2.4-2,5.9-2.2,8.5-0.5v0c16.6,9.8,34.5,17.3,53.5,22.3c2.7,0.9,4.7,3.3,5,6.3l0,0l4.8,52.3C405.9,562.1,406.1,562.9,406.3,563.7
		L406.3,563.7z M538.3,205.1c-22.7-22.9-54.1-37.1-88.7-37.1c-34.6,0-66,14.2-88.7,37.1c-22.7,22.9-36.7,54.6-36.7,89.6
		c0,35,14,66.7,36.7,89.6c22.7,22.9,54.1,37.1,88.7,37.1c34.6,0,66-14.2,88.7-37.1c22.7-22.9,36.7-54.6,36.7-89.6
		C575,259.6,561,228,538.3,205.1L538.3,205.1z"/>
	<polygon class="st2" points="131.5,209.2 194.2,336 68.7,336 	"/>
	<path class="st3" d="M292.3,336c34.6,0,62.8-28.5,62.8-63.4c0-34.9-28.2-63.4-62.8-63.4c-34.6,0-62.8,28.5-62.8,63.4
		C229.6,307.5,257.8,336,292.3,336L292.3,336z"/>
	<rect x="390.3" y="209.2" class="st4" width="125.5" height="126.8"/>
	<path class="st5" d="M68.7,355.6c-0.6,0-1.1-0.5-1.1-1.1c0-0.6,0.5-1.1,1.1-1.1h125.5c0.6,0,1,0.5,1,1.1c0,0.6-0.5,1.1-1,1.1H68.7z
		"/>
	<path class="st5" d="M74.6,358.9c0.4,0.4,0.4,1.1,0,1.5c-0.4,0.4-1.1,0.4-1.5,0l-5.2-5.2c-0.4-0.4-0.4-1.1,0-1.5l5.2-5.2
		c0.4-0.4,1.1-0.4,1.5,0c0.4,0.4,0.4,1.1,0,1.5l-4.4,4.4L74.6,358.9z"/>
	<path class="st5" d="M189.8,360.5c-0.4,0.4-1.1,0.4-1.5,0c-0.4-0.4-0.4-1.1,0-1.5l4.4-4.4l-4.4-4.4c-0.4-0.4-0.4-1.1,0-1.5
		c0.4-0.4,1.1-0.4,1.5,0l5.1,5.2c0.4,0.4,0.4,1.1,0,1.5L189.8,360.5z"/>
	<path class="st5" d="M229.6,355.6c-0.6,0-1.1-0.5-1.1-1.1c0-0.6,0.5-1.1,1.1-1.1h125.5c0.6,0,1,0.5,1,1.1c0,0.6-0.5,1.1-1,1.1
		H229.6z"/>
	<path class="st5" d="M235.5,358.9c0.4,0.4,0.4,1.1,0,1.5c-0.4,0.4-1.1,0.4-1.5,0l-5.2-5.2c-0.4-0.4-0.4-1.1,0-1.5l5.2-5.2
		c0.4-0.4,1.1-0.4,1.5,0c0.4,0.4,0.4,1.1,0,1.5l-4.4,4.4L235.5,358.9z"/>
	<path class="st5" d="M350.7,360.5c-0.4,0.4-1.1,0.4-1.5,0c-0.4-0.4-0.4-1.1,0-1.5l4.4-4.4l-4.4-4.4c-0.4-0.4-0.4-1.1,0-1.5
		c0.4-0.4,1.1-0.4,1.5,0l5.2,5.2c0.4,0.4,0.4,1.1,0,1.5L350.7,360.5z"/>
	<path class="st5" d="M390.3,355.6c-0.6,0-1.1-0.5-1.1-1.1c0-0.6,0.5-1.1,1.1-1.1h125.5c0.6,0,1,0.5,1,1.1c0,0.6-0.5,1.1-1,1.1
		H390.3z"/>
	<path class="st5" d="M396.2,358.9c0.4,0.4,0.4,1.1,0,1.5c-0.4,0.4-1.1,0.4-1.5,0l-5.2-5.2c-0.4-0.4-0.4-1.1,0-1.5l5.2-5.2
		c0.4-0.4,1.1-0.4,1.5,0c0.4,0.4,0.4,1.1,0,1.5l-4.4,4.4L396.2,358.9z"/>
	<path class="st5" d="M511.4,360.5c-0.4,0.4-1.1,0.4-1.5,0c-0.4-0.4-0.4-1.1,0-1.5l4.4-4.4l-4.4-4.4c-0.4-0.4-0.4-1.1,0-1.5
		c0.4-0.4,1.1-0.4,1.5,0l5.1,5.2c0.4,0.4,0.4,1.1,0,1.5L511.4,360.5z"/>
	<rect x="489.6" y="209.2" class="st6" width="26.2" height="126.8"/>
	<rect x="390.3" y="209.2" class="st6" width="17.6" height="126.8"/>
	<rect x="418.8" y="209.2" class="st7" width="34.5" height="126.8"/>
	<path class="st8" d="M283.2,298.6c21.7,0,39.4-17.9,39.4-39.8c0-21.9-17.7-39.8-39.4-39.8c-21.7,0-39.4,17.9-39.4,39.8
		C243.8,280.7,261.5,298.6,283.2,298.6L283.2,298.6z"/>
	<path class="st9" d="M270.6,254c7,0,12.6-5.7,12.6-12.8c0-7-5.7-12.7-12.6-12.7c-6.9,0-12.6,5.7-12.6,12.7
		C258,248.3,263.6,254,270.6,254L270.6,254z"/>
	<polygon class="st10" points="131.5,209.2 164.2,336 194.2,336 	"/>
	<polygon class="st10" points="131.5,209.2 79.4,336 68.7,336 	"/>
	<polygon class="st11" points="131.5,209.2 89.9,336 119.9,336 	"/>
	<path class="st5" d="M47.7,209.2c0-0.6,0.5-1.1,1-1.1c0.6,0,1.1,0.5,1.1,1.1V336c0,0.6-0.5,1.1-1.1,1.1c-0.6,0-1-0.5-1-1.1V209.2z"
		/>
	<path class="st5" d="M44.3,215.2c-0.4,0.4-1.1,0.4-1.5,0c-0.4-0.4-0.4-1.1,0-1.5l5.2-5.2c0.4-0.4,1.1-0.4,1.5,0l5.1,5.2
		c0.4,0.4,0.4,1.1,0,1.5c-0.4,0.4-1.1,0.4-1.5,0l-4.4-4.4L44.3,215.2z"/>
	<path class="st5" d="M42.8,331.5c-0.4-0.4-0.4-1.1,0-1.5c0.4-0.4,1.1-0.4,1.5,0l4.4,4.4l4.4-4.4c0.4-0.4,1.1-0.4,1.5,0
		c0.4,0.4,0.4,1.1,0,1.5l-5.1,5.2c-0.4,0.4-1.1,0.4-1.5,0L42.8,331.5z"/>
	<path class="st5" d="M36.6,281.8H33v-7.7c0-1.9-0.7-2.9-2.1-2.9c-1,0-1.7,0.3-2.2,1c-0.4,0.7-0.7,1.8-0.7,3.3v6.2h-3.6v-18.4h3.6
		v3.8c0,0.3,0,1-0.1,2.1l-0.1,1.1h0.2c0.8-1.3,2-1.9,3.8-1.9c1.5,0,2.7,0.4,3.5,1.3c0.8,0.8,1.2,2,1.2,3.6V281.8z"/>
	<path class="st5" d="M455.4,380l-1-4.6l-1.4-5.9h-0.1l-2.4,10.5h-3.9l-3.7-13.2h3.5l1.5,5.9c0.2,1,0.5,2.5,0.7,4.3h0.1
		c0-0.6,0.2-1.5,0.4-2.8l0.2-1l1.6-6.4h3.9l1.5,6.4c0,0.2,0.1,0.4,0.1,0.8c0.1,0.3,0.1,0.7,0.2,1.1c0.1,0.4,0.1,0.8,0.2,1.1
		c0.1,0.3,0.1,0.7,0.1,0.9h0.1c0.1-0.5,0.2-1.3,0.4-2.3c0.2-1,0.3-1.7,0.4-2l1.6-5.9h3.5l-3.8,13.2H455.4z"/>
	<path class="st5" d="M294.7,380l-1-4.6l-1.4-5.9h-0.1l-2.4,10.5H286l-3.7-13.2h3.5l1.5,5.9c0.2,1,0.5,2.5,0.7,4.3h0.1
		c0-0.6,0.2-1.5,0.4-2.8l0.2-1l1.6-6.4h3.9l1.6,6.4c0,0.2,0.1,0.4,0.1,0.8c0.1,0.3,0.1,0.7,0.2,1.1c0.1,0.4,0.1,0.8,0.2,1.1
		c0,0.3,0.1,0.7,0.1,0.9h0.1c0.1-0.5,0.2-1.3,0.4-2.3c0.2-1,0.3-1.7,0.4-2l1.6-5.9h3.5l-3.8,13.2H294.7z"/>
	<path class="st5" d="M133.9,380l-1-4.6l-1.4-5.9h-0.1L129,380h-3.9l-3.7-13.2h3.5l1.5,5.9c0.2,1,0.5,2.5,0.7,4.3h0.1
		c0-0.6,0.2-1.5,0.4-2.8l0.2-1l1.6-6.4h3.9l1.6,6.4c0,0.2,0.1,0.4,0.1,0.8c0.1,0.3,0.1,0.7,0.2,1.1c0.1,0.4,0.1,0.8,0.2,1.1
		c0,0.3,0.1,0.7,0.1,0.9h0.1c0.1-0.5,0.2-1.3,0.4-2.3c0.2-1,0.3-1.7,0.4-2l1.6-5.9h3.5l-3.8,13.2H133.9z"/>
</g>
</svg>
