<?xml version="1.0" encoding="utf-8"?>
<!-- Generator: Adobe Illustrator 26.0.1, SVG Export Plug-In . SVG Version: 6.00 Build 0)  -->
<!DOCTYPE svg PUBLIC "-//W3C//DTD SVG 1.1//EN" "http://www.w3.org/Graphics/SVG/1.1/DTD/svg11.dtd" [
	<!ENTITY ns_extend "http://ns.adobe.com/Extensibility/1.0/">
	<!ENTITY ns_ai "http://ns.adobe.com/AdobeIllustrator/10.0/">
	<!ENTITY ns_graphs "http://ns.adobe.com/Graphs/1.0/">
	<!ENTITY ns_vars "http://ns.adobe.com/Variables/1.0/">
	<!ENTITY ns_imrep "http://ns.adobe.com/ImageReplacement/1.0/">
	<!ENTITY ns_sfw "http://ns.adobe.com/SaveForWeb/1.0/">
	<!ENTITY ns_custom "http://ns.adobe.com/GenericCustomNamespace/1.0/">
	<!ENTITY ns_adobe_xpath "http://ns.adobe.com/XPath/1.0/">
]>
<svg version="1.1" id="Слой_1" xmlns:x="&ns_extend;" xmlns:i="&ns_ai;" xmlns:graph="&ns_graphs;"
	 xmlns="http://www.w3.org/2000/svg" xmlns:xlink="http://www.w3.org/1999/xlink" x="0px" y="0px" width="563px" height="568.6px"
	 viewBox="0 0 563 568.6" style="enable-background:new 0 0 563 568.6;" xml:space="preserve">
<style type="text/css">
	.st0{fill-rule:evenodd;clip-rule:evenodd;fill:#D0E1FA;}
	.st1{fill-rule:evenodd;clip-rule:evenodd;fill:#6C6F9C;}
	.st2{fill-rule:evenodd;clip-rule:evenodd;fill:#60BCCC;}
</style>
<metadata>
	<sfw  xmlns="&ns_sfw;">
		<slices></slices>
		<sliceSourceBounds  bottomLeftOrigin="true" height="568.6" width="563" x="-17.4" y="-5.3"></sliceSourceBounds>
	</sfw>
</metadata>
<g>
	<path class="st0" d="M281.5,568.6c155,0,281.5-127.7,281.5-284.3C563,127.7,436.5,0,281.5,0C126.5,0,0,127.7,0,284.3
		C0,440.9,126.5,568.6,281.5,568.6L281.5,568.6z"/>
	<rect x="82.5" y="83.3" class="st1" width="398.1" height="402.1"/>
	<path class="st2" d="M281.5,485.4c109.6,0,199-90.3,199-201c0-110.7-89.4-201-199-201c-109.6,0-199,90.3-199,201
		C82.5,395,171.9,485.4,281.5,485.4L281.5,485.4z"/>
</g>
</svg>
