<?xml version="1.0" encoding="utf-8"?>
<!-- Generator: Adobe Illustrator 26.0.1, SVG Export Plug-In . SVG Version: 6.00 Build 0)  -->
<!DOCTYPE svg PUBLIC "-//W3C//DTD SVG 1.1//EN" "http://www.w3.org/Graphics/SVG/1.1/DTD/svg11.dtd" [
	<!ENTITY ns_extend "http://ns.adobe.com/Extensibility/1.0/">
	<!ENTITY ns_ai "http://ns.adobe.com/AdobeIllustrator/10.0/">
	<!ENTITY ns_graphs "http://ns.adobe.com/Graphs/1.0/">
	<!ENTITY ns_vars "http://ns.adobe.com/Variables/1.0/">
	<!ENTITY ns_imrep "http://ns.adobe.com/ImageReplacement/1.0/">
	<!ENTITY ns_sfw "http://ns.adobe.com/SaveForWeb/1.0/">
	<!ENTITY ns_custom "http://ns.adobe.com/GenericCustomNamespace/1.0/">
	<!ENTITY ns_adobe_xpath "http://ns.adobe.com/XPath/1.0/">
]>
<svg version="1.1" id="Слой_1" xmlns:x="&ns_extend;" xmlns:i="&ns_ai;" xmlns:graph="&ns_graphs;"
	 xmlns="http://www.w3.org/2000/svg" xmlns:xlink="http://www.w3.org/1999/xlink" x="0px" y="0px" width="595.3px" height="601.2px"
	 viewBox="0 0 595.3 601.2" style="enable-background:new 0 0 595.3 601.2;" xml:space="preserve">
<style type="text/css">
	.st0{fill-rule:evenodd;clip-rule:evenodd;fill:#EDF4FF;}
	.st1{fill-rule:evenodd;clip-rule:evenodd;fill:#FFFFFF;}
	.st2{fill-rule:evenodd;clip-rule:evenodd;fill:#C9DFFF;}
	.st3{fill-rule:evenodd;clip-rule:evenodd;fill:#CFDFFF;}
	.st4{fill-rule:evenodd;clip-rule:evenodd;fill:#CFE1FF;}
	.st5{fill-rule:evenodd;clip-rule:evenodd;fill:#8CE3F2;stroke:#33E8E8;stroke-width:0.5726;stroke-miterlimit:10;}
	.st6{fill-rule:evenodd;clip-rule:evenodd;fill:#7195DE;}
	.st7{fill-rule:evenodd;clip-rule:evenodd;fill:#D3E1FC;}
	.st8{fill-rule:evenodd;clip-rule:evenodd;fill:#F0F6FF;}
	.st9{fill-rule:evenodd;clip-rule:evenodd;fill:#FEFEFE;}
	.st10{fill-rule:evenodd;clip-rule:evenodd;fill:#ABC9FC;}
	.st11{fill:#769BE3;}
	.st12{fill-rule:evenodd;clip-rule:evenodd;fill:#FF6969;}
	.st13{fill-rule:evenodd;clip-rule:evenodd;fill:#769BE3;}
	.st14{fill-rule:evenodd;clip-rule:evenodd;fill:#7EDEDE;}
	.st15{fill-rule:evenodd;clip-rule:evenodd;fill:#60BCCC;}
	.st16{fill:#FEFEFE;}
	.st17{fill-rule:evenodd;clip-rule:evenodd;fill:#A3C8FF;}
</style>
<metadata>
	<sfw  xmlns="&ns_sfw;">
		<slices></slices>
		<sliceSourceBounds  bottomLeftOrigin="true" height="601.2" width="595.3" x="176.9" y="-63.2"></sliceSourceBounds>
	</sfw>
</metadata>
<g>
	<path class="st0" d="M85.2,0h424.9c46.9,0,85.2,38.7,85.2,86v429.2c0,47.3-38.3,86-85.2,86H85.2c-46.9,0-85.2-38.7-85.2-86V86
		C0,38.7,38.3,0,85.2,0L85.2,0z"/>
	<path class="st1" d="M195.3,0c7.3,9.5,13.5,18.9,18.1,27.5c44.3,82.7,174.3,44.3,279,136.1c29.2,25.6,64.6,33.7,103,35.7v89.3
		C455.4,317.1,329.5,250.6,212,174C62.1,76.3,175.2,137.1,15.4,77.8c-3.8-1.4-8.5-4.2-13.9-7.9C9,30.2,43.8,0,85.2,0H195.3z
		 M595.3,360.1v80.5c-40-4.6-86-10.9-138.6-19.6c-239.5-39.2-128.3-28-378.8-26.3c-16.5,0.1-44.7-2-77.9-5.7V277.9
		c148.1,25.3,290.8,75.9,501.9,77.5C534.8,355.7,566.1,357.4,595.3,360.1L595.3,360.1z"/>
	<path class="st2" d="M595.3,442.5v72.7c0,47.3-38.3,86-85.2,86H85.2c-46.9,0-85.2-38.7-85.2-86v-72.7
		c92.4-12.1,192.7-18.7,297.6-18.7S502.9,430.4,595.3,442.5L595.3,442.5z"/>
	<path class="st3" d="M540.2,128.6c5.7,0,9.1,2.7,11.6,6.9c2.3-3.7,6-6.9,11.7-6.9c2.5,0,4.8,0.8,6.7,2.2c-1.1-0.2,0.4-0.4-3.5-0.4
		s-12.1,4.6-14.9,10.1c-2.9-5.7-8.6-10.1-14.9-10.1c-1.2,0-2.4,0.1-3.5,0.4C535.3,129.4,537.6,128.6,540.2,128.6L540.2,128.6z"/>
	<path class="st4" d="M582.5,89c-0.9-7.6-7.3-13.6-15-13.6c-0.5,0-1,0-1.4,0.1c-0.1-9.7-7.9-17.6-17.5-17.6c-4.6,0-8.8,1.8-11.9,4.8
		c-2.6-8.4-10.3-14.5-19.4-14.5c-8.9,0-16.5,5.9-19.2,14.1h-0.1c-3.7,0-7,1.3-9.6,3.4c-2.5-6.3-8.6-10.8-15.7-10.8
		c-7.5,0-13.8,5-16,11.8h-0.1c-5.6,0-10.3,3.6-12.1,8.6c-2.3-2.2-5.5-3.6-9-3.6c-7.1,0-12.9,5.9-12.9,13.2c0,1.5,0.2,2.9,0.7,4.3
		h34.9l0,0h55.3h7.6h6H582.5z"/>
	<path class="st4" d="M142.3,175.1c-0.7-6-5.7-10.7-11.7-10.7c-0.4,0-0.7,0-1.1,0.1c-0.1-7.6-6.2-13.8-13.7-13.8
		c-3.6,0-6.9,1.4-9.3,3.7c-2-6.6-8.1-11.4-15.2-11.4c-7,0-13,4.6-15.1,11h-0.1c-2.9,0-5.5,1-7.5,2.7c-2-5-6.7-8.5-12.3-8.5
		c-5.9,0-10.8,3.9-12.6,9.2h-0.1c-4.3,0-8.1,2.8-9.5,6.8c-1.8-1.7-4.3-2.8-7-2.8c-5.6,0-10.1,4.6-10.1,10.3c0,1.2,0.2,2.3,0.5,3.3
		h27.4l0,0h43.4h5.9h4.8H142.3z"/>
	<path class="st5" d="M297.6,559.7c141.3,0,256.5-116.4,256.5-259.1S438.9,41.5,297.6,41.5S41.1,157.9,41.1,300.6
		S156.4,559.7,297.6,559.7L297.6,559.7z"/>
	<path class="st6" d="M297.6,534.1c127.3,0,231.1-104.9,231.1-233.5S424.9,67.2,297.6,67.2S66.5,172,66.5,300.6
		S170.3,534.1,297.6,534.1L297.6,534.1z"/>
	<path class="st7" d="M297.6,528.9c124.5,0,226-102.6,226-228.3S422.1,72.3,297.6,72.3s-226,102.6-226,228.3
		S173.2,528.9,297.6,528.9L297.6,528.9z"/>
	<path class="st8" d="M297.6,513.1c115.9,0,210.4-95.5,210.4-212.5S413.5,88.1,297.6,88.1S87.2,183.6,87.2,300.6
		S181.8,513.1,297.6,513.1L297.6,513.1z"/>
	<path class="st9" d="M297.6,399.2c53.8,0,97.7-44.3,97.7-98.6c0-54.3-43.9-98.6-97.7-98.6c-53.8,0-97.7,44.3-97.7,98.6
		C200,355,243.9,399.2,297.6,399.2L297.6,399.2z"/>
	<path class="st10" d="M302,72.4v7.2c0,2.4-2,4.4-4.3,4.4l0,0c-2.4,0-4.3-2-4.3-4.4v-7.2c1.4,0,2.9-0.1,4.3-0.1S300.5,72.4,302,72.4
		L302,72.4z"/>
	<path class="st10" d="M297.6,519L297.6,519c2.4,0,4.3,2,4.3,4.4v5.4c-1.4,0-2.9,0.1-4.3,0.1s-2.9,0-4.3-0.1v-5.4
		C293.3,521,295.3,519,297.6,519L297.6,519z"/>
	<path class="st10" d="M523.6,305.9h-6.2c-2.4,0-4.3-2-4.3-4.4l0,0c0-2.4,2-4.4,4.3-4.4h6.2c0,1.2,0.1,2.3,0.1,3.5
		C523.6,302.4,523.6,304.1,523.6,305.9L523.6,305.9z"/>
	<path class="st10" d="M82.3,301.5L82.3,301.5c0,2.4-2,4.4-4.3,4.4h-6.2c-0.1-1.7-0.1-3.5-0.1-5.3c0-1.2,0-2.3,0.1-3.5h6.2
		C80.3,297.1,82.3,299.1,82.3,301.5L82.3,301.5z"/>
	<path class="st10" d="M414.8,105.4l-3.5,6.2c-1.2,2.1-3.9,2.8-5.9,1.6l0,0c-2.1-1.2-2.8-3.9-1.6-6l3.5-6.2
		C409.8,102.4,412.3,103.8,414.8,105.4L414.8,105.4z"/>
	<path class="st10" d="M189.9,489.9L189.9,489.9c2.1,1.2,2.8,3.9,1.6,6l-2.7,4.8c-2.6-1.4-5-2.9-7.5-4.4l2.7-4.8
		C185.2,489.4,187.9,488.7,189.9,489.9L189.9,489.9z"/>
	<path class="st10" d="M495.9,191l-5.8,3.4c-2.1,1.2-4.7,0.5-5.9-1.6l0,0c-1.2-2.1-0.5-4.8,1.6-6l5.8-3.4
		C493.1,185.9,494.5,188.4,495.9,191L495.9,191z"/>
	<path class="st10" d="M111.1,410.3L111.1,410.3c1.2,2.1,0.5,4.8-1.6,6l-5,2.9c-1.5-2.5-2.9-5-4.4-7.6l5.1-2.9
		C107.3,407.5,109.9,408.2,111.1,410.3L111.1,410.3z"/>
	<path class="st10" d="M490.8,419.2l-5-2.9c-2.1-1.2-2.8-3.9-1.6-6l0,0c1.2-2.1,3.9-2.8,5.9-1.6l5.1,2.9
		C493.7,414.2,492.3,416.7,490.8,419.2L490.8,419.2z"/>
	<path class="st10" d="M111.1,192.7L111.1,192.7c-1.2,2.1-3.9,2.8-5.9,1.6l-5.8-3.4c1.4-2.6,2.8-5.1,4.3-7.6l5.8,3.4
		C111.6,188,112.3,190.6,111.1,192.7L111.1,192.7z"/>
	<path class="st10" d="M406.5,500.7l-2.7-4.8c-1.2-2.1-0.5-4.8,1.6-6l0,0c2.1-1.2,4.7-0.5,5.9,1.6l2.7,4.8
		C411.5,497.8,409,499.3,406.5,500.7L406.5,500.7z"/>
	<path class="st10" d="M189.9,113.1L189.9,113.1c-2.1,1.2-4.7,0.5-5.9-1.6l-3.5-6.2c2.5-1.5,5-2.9,7.5-4.4l3.5,6.2
		C192.7,109.2,192,111.9,189.9,113.1L189.9,113.1z"/>
	<path class="st11" d="M481.3,244.9h-40.5v-10l13.6-13.9c3.9-4.1,6.4-6.9,7.6-8.4c1.2-1.5,2-2.8,2.5-3.9c0.5-1.1,0.7-2.2,0.7-3.4
		c0-1.5-0.5-2.6-1.4-3.5c-1-0.9-2.3-1.3-4-1.3c-1.8,0-3.5,0.5-5.3,1.5c-1.8,1-3.8,2.5-6.1,4.5l-8.3-9.8c2.9-2.6,5.3-4.5,7.3-5.6
		s4.1-2,6.4-2.6c2.3-0.6,4.9-0.9,7.8-0.9c3.6,0,6.8,0.6,9.7,1.9c2.8,1.3,5,3.1,6.6,5.5c1.6,2.4,2.4,5,2.4,8c0,2.2-0.3,4.3-0.8,6.1
		c-0.5,1.9-1.4,3.8-2.5,5.6c-1.1,1.8-2.7,3.7-4.6,5.7c-1.9,2-6,5.8-12.1,11.4v0.4h21.1V244.9z"/>
	<path class="st11" d="M497.2,284.7c0,3.5-1,6.5-3.1,9c-2.1,2.5-5.2,4.3-9.2,5.5v0.2c9.3,1.2,14,5.6,14,13.3c0,5.3-2,9.4-6.2,12.4
		c-4.1,3-9.8,4.5-17.1,4.5c-3,0-5.8-0.2-8.3-0.7c-2.6-0.4-5.3-1.2-8.3-2.4v-12.7c2.4,1.3,4.9,2.2,7.5,2.8c2.5,0.6,4.9,0.9,7,0.9
		c3.3,0,5.7-0.5,7.2-1.4c1.5-0.9,2.3-2.4,2.3-4.4c0-1.5-0.4-2.7-1.2-3.6c-0.8-0.8-2.1-1.5-3.9-1.9c-1.7-0.4-4-0.6-6.9-0.6h-3.4
		v-11.5h3.5c7.7,0,11.5-2,11.5-6c0-1.5-0.6-2.6-1.7-3.3c-1.1-0.7-2.7-1.1-4.6-1.1c-3.5,0-7.3,1.2-11.1,3.6l-6.3-10.2
		c2.9-2.1,6-3.5,9.1-4.4c3.1-0.9,6.6-1.3,10.6-1.3c5.8,0,10.3,1.2,13.6,3.5C495.6,277.4,497.2,280.6,497.2,284.7L497.2,284.7z"/>
	<path class="st11" d="M474,405.9h-6.2v10.9H453v-10.9h-22.3v-11.2l23.2-34.3h13.9v34.1h6.2V405.9z M453,394.6V388
		c0-1.2,0.1-2.9,0.1-5c0.1-2.1,0.1-3.2,0.2-3.3h-0.4c-0.9,2-1.9,3.8-2.9,5.6l-6.2,9.3H453z"/>
	<path class="st11" d="M391.4,447.4c3.2,0,6.1,0.7,8.7,2.3c2.6,1.5,4.6,3.6,6,6.4c1.4,2.7,2.2,6,2.2,9.5c0,6.3-1.9,11.2-5.6,14.5
		c-3.7,3.3-9.4,5-17,5c-6.5,0-11.8-1-16-3.1v-12.5c2.2,1,4.7,1.9,7.5,2.5c2.8,0.7,5.2,1,7.2,1c2.8,0,5-0.6,6.5-1.8
		c1.5-1.2,2.3-3,2.3-5.3c0-2.1-0.8-3.8-2.3-5c-1.5-1.2-3.9-1.8-7-1.8c-2.4,0-4.9,0.5-7.7,1.3l-5.6-2.7l2.1-29.8h31.9v12.7h-19
		l-0.7,7.4c2-0.4,3.4-0.6,4.3-0.7C390,447.4,390.7,447.4,391.4,447.4L391.4,447.4z"/>
	<path class="st11" d="M277.3,481.2c0-7.9,1.1-14.3,3.3-19.1c2.2-4.9,5.5-8.5,9.9-10.8c4.3-2.3,9.7-3.5,16-3.5c2.3,0,4.9,0.2,8,0.7
		v11.9c-2.6-0.5-5.3-0.7-8.3-0.7c-5,0-8.8,1.1-11.3,3.3c-2.5,2.2-3.8,5.9-4.1,10.9h0.5c2.3-4.4,6-6.6,11.1-6.6c5,0,8.8,1.6,11.5,4.9
		c2.7,3.2,4.1,7.7,4.1,13.5c0,6.2-1.7,11.1-5.2,14.7c-3.5,3.6-8.3,5.4-14.5,5.4c-6.6,0-11.8-2.1-15.5-6.5
		C279.1,495,277.3,488.9,277.3,481.2L277.3,481.2z M298,493.7c1.6,0,2.9-0.6,3.9-1.8c1-1.2,1.5-3.2,1.5-5.8c0-4.6-1.8-6.8-5.3-6.8
		c-1.7,0-3.1,0.6-4.2,1.8c-1.1,1.2-1.6,2.6-1.6,4.3c0,2.5,0.5,4.5,1.6,6.1C294.9,492.9,296.2,493.7,298,493.7L298,493.7z"/>
	<polygon class="st11" points="192.3,472.8 211.5,429.2 187.3,429.2 187.3,416.5 227.7,416.5 227.7,425.5 208,472.8 	"/>
	<path class="st11" d="M140.6,353c5.9,0,10.4,1.2,13.7,3.6c3.3,2.4,4.9,5.8,4.9,10.2c0,3-0.8,5.6-2.3,7.8c-1.5,2.3-4,4.2-7.3,5.9
		c4.1,2.3,7.1,4.7,8.7,7.1c1.7,2.3,2.6,4.9,2.6,7.6c0,5-1.8,8.9-5.4,11.7c-3.6,2.7-8.6,4.1-15.1,4.1c-6.6,0-11.6-1.3-15.1-4
		c-3.5-2.7-5.2-6.6-5.2-11.6c0-3.3,0.8-6,2.3-8.3c1.6-2.3,4.2-4.4,7.9-6.3c-3-2-5.1-4.2-6.5-6.5c-1.4-2.3-2-4.8-2-7.6
		c0-4.3,1.7-7.7,5-10.1C130.1,354.2,134.7,353,140.6,353L140.6,353z M133.9,394.7c0,1.6,0.6,2.9,1.7,3.8c1.1,1,2.7,1.5,4.7,1.5
		c4.5,0,6.7-1.7,6.7-5c0-1.3-0.5-2.5-1.5-3.7c-1-1.2-2.7-2.6-5.2-4.1c-2.3,1.2-3.9,2.4-4.9,3.6C134.4,392,133.9,393.3,133.9,394.7
		L133.9,394.7z M140.5,363.9c-1.3,0-2.4,0.4-3.3,1.1c-0.9,0.7-1.3,1.7-1.3,2.9c0,2.2,1.5,4.2,4.5,5.9c1.8-1.1,3.1-2,3.7-2.9
		c0.7-0.9,1-1.9,1-2.9c0-1.3-0.5-2.2-1.3-3C142.8,364.3,141.7,363.9,140.5,363.9L140.5,363.9z"/>
	<path class="st11" d="M135,298.1c0,11.1-2.4,19-7.1,24c-4.7,4.9-12.3,7.4-22.6,7.4c-3.4,0-6-0.1-7.8-0.4V317
		c2.2,0.4,4.4,0.6,6.6,0.6c5.4,0,9.6-1.1,12.5-3.4c2.9-2.3,4.5-5.8,4.8-10.7h-0.5c-1,1.8-2,3.2-2.9,4c-1,0.8-2.2,1.4-3.5,1.9
		c-1.4,0.4-3.2,0.7-5.2,0.7c-4.8,0-8.6-1.6-11.3-4.9c-2.7-3.3-4.1-7.8-4.1-13.5c0-6.2,1.8-11.1,5.3-14.7c3.5-3.5,8.4-5.3,14.5-5.3
		c6.8,0,12.1,2.3,15.9,6.9C133.1,283.2,135,289.7,135,298.1L135,298.1z M113.9,283.9c-1.6,0-3,0.6-4,1.8c-1,1.2-1.6,3.1-1.6,5.8
		c0,2.1,0.5,3.8,1.4,5c0.9,1.3,2.2,1.9,4.1,1.9c1.7,0,3.1-0.6,4.3-1.8c1.2-1.2,1.8-2.7,1.8-4.4c0-2.3-0.6-4.3-1.7-5.9
		C117.1,284.7,115.7,283.9,113.9,283.9L113.9,283.9z"/>
	<path class="st11" d="M137.1,248.1h-15.1V247v-38.7v-15.4v-1.2h1.5h13.6h0.3v56.4H137.1z M187,220c0,10-1.7,17.3-5,21.9
		c-3.3,4.6-8.4,7-15.2,7c-6.7,0-11.7-2.4-15.1-7.3c-3.4-4.8-5.1-12.1-5.1-21.6c0-10,1.6-17.4,5-22.1c3.3-4.7,8.4-7,15.2-7
		c6.7,0,11.7,2.4,15.1,7.3C185.3,203.1,187,210.4,187,220L187,220z M161.6,220c0,6.4,0.4,10.8,1.2,13.2c0.8,2.4,2.1,3.6,4,3.6
		c1.9,0,3.2-1.2,4-3.7c0.8-2.5,1.2-6.8,1.2-13.1c0-6.2-0.4-10.6-1.2-13.1c-0.8-2.5-2.1-3.8-4-3.8c-1.8,0-3.2,1.2-4,3.6
		C162.1,209.1,161.6,213.6,161.6,220L161.6,220z"/>
	<path class="st11" d="M290,149.7h-15.3v-29.9v-0.2v-9.5V94.7v-1.4h1.7H290V149.7z M338.1,149.7h-40.5v-10l13.6-13.9
		c3.9-4.1,6.4-6.9,7.6-8.4c1.2-1.5,2-2.8,2.5-3.9c0.5-1.1,0.7-2.2,0.7-3.4c0-1.5-0.5-2.6-1.4-3.5c-0.9-0.9-2.3-1.3-4-1.3
		c-1.8,0-3.5,0.5-5.3,1.5c-1.8,1-3.8,2.5-6.1,4.5l-8.3-9.8c2.9-2.6,5.3-4.5,7.3-5.6s4.1-2,6.4-2.6c2.3-0.6,4.9-0.9,7.8-0.9
		c3.6,0,6.8,0.6,9.7,1.9c2.8,1.3,5,3.1,6.6,5.5s2.4,5,2.4,8c0,2.2-0.3,4.3-0.8,6.1c-0.5,1.9-1.4,3.8-2.5,5.6
		c-1.2,1.8-2.7,3.7-4.6,5.7c-1.9,2-5.9,5.8-12.1,11.4v0.4h21.1V149.7z"/>
	<polygon class="st12" points="297.6,347.6 302.9,347.6 298.3,153.5 297,153.5 292.4,347.6 	"/>
	<polygon class="st13" points="285,299.8 434.6,215.7 438.5,222.1 300.8,310 	"/>
	<polygon class="st13" points="300.8,312.6 203.4,251.2 207.6,243.9 309.4,299.1 	"/>
	<path class="st14" d="M297.6,316.5c8.7,0,15.8-7.2,15.8-15.9s-7.1-15.9-15.8-15.9s-15.8,7.2-15.8,15.9S289,316.5,297.6,316.5
		L297.6,316.5z"/>
	<polygon class="st11" points="404.1,183.6 389.1,183.6 389.1,182.5 389.1,143.8 389.1,128.4 389.1,127.2 390.6,127.2 404.1,127.2 
		404.4,127.2 404.4,183.6 	"/>
	<path class="st15" d="M297.6,309.7c5,0,9-4.1,9-9.1c0-5-4-9.1-9-9.1s-9,4.1-9,9.1C288.7,305.6,292.7,309.7,297.6,309.7L297.6,309.7
		z"/>
	<polygon class="st11" points="207,177.9 191.9,177.9 191.9,176.8 191.9,138.1 191.9,122.7 191.9,121.5 193.4,121.5 207,121.5 
		207.2,121.5 207.2,177.9 	"/>
	<polygon class="st11" points="236.3,177.9 221.2,177.9 221.2,176.8 221.2,138.1 221.2,122.7 221.2,121.5 222.7,121.5 236.3,121.5 
		236.5,121.5 236.5,177.9 	"/>
	<path class="st16" d="M297.6,38c71.8,0,136.8,29.4,183.9,76.9c47.1,47.5,76.2,113.2,76.2,185.7s-29.1,138.2-76.2,185.7
		c-47.1,47.5-112.1,76.9-183.9,76.9s-136.8-29.4-183.9-76.9S37.6,373.1,37.6,300.6s29.1-138.2,76.2-185.7
		C160.8,67.4,225.8,38,297.6,38L297.6,38z M476.5,120c-45.8-46.2-109-74.8-178.9-74.8S164.6,73.7,118.8,120S44.7,230.1,44.7,300.6
		S73,435,118.8,481.3c45.8,46.2,109,74.8,178.9,74.8s133.1-28.6,178.9-74.8c45.8-46.2,74.1-110.1,74.1-180.7S522.3,166.2,476.5,120
		L476.5,120z"/>
	<path class="st3" d="M390.4,22.6c7.8-1,13,2,17.2,7.4c2.4-5.4,7.1-10.5,14.9-11.5c3.5-0.5,6.8,0.3,9.7,1.8
		c-1.6-0.1,0.4-0.6-4.9,0.1s-15.9,8.5-18.7,16.6c-4.9-7.3-13.6-12.4-22.3-11.2c-1.6,0.2-3.2,0.6-4.7,1.1
		C383.9,24.6,387,23,390.4,22.6L390.4,22.6z"/>
	<path class="st3" d="M59.8,44.3c7.8-1,13,2,17.2,7.4c2.4-5.4,7.1-10.5,14.9-11.5c3.5-0.5,6.8,0.2,9.7,1.8c-1.6-0.1,0.4-0.6-4.9,0.1
		c-5.3,0.7-15.9,8.5-18.7,16.6C73,51.3,64.4,46.2,55.7,47.3c-1.7,0.2-3.3,0.6-4.8,1.1C53.3,46.3,56.4,44.7,59.8,44.3L59.8,44.3z"/>
	<path class="st17" d="M105.1,575.5c6.9,0,12.9,4.5,15.2,10.7H89.9C92.2,579.9,98.2,575.5,105.1,575.5L105.1,575.5z"/>
	<path class="st17" d="M442,533.8c3,0,5.6,2,6.7,4.7h-13.4C436.4,535.8,439,533.8,442,533.8L442,533.8z"/>
	<path class="st17" d="M43,469c4.4,0,8.2,2.8,9.7,6.8H33.3C34.8,471.8,38.6,469,43,469L43,469z"/>
	<path class="st17" d="M145.5,542.7c6.9,0,12.9,4.5,15.2,10.7h-30.4C132.6,547.1,138.5,542.7,145.5,542.7L145.5,542.7z"/>
	<path class="st17" d="M83.8,494.6c6.9,0,12.9,4.4,15.2,10.7H68.6C70.9,499,76.8,494.6,83.8,494.6L83.8,494.6z"/>
	<path class="st17" d="M13.2,451.4c3,0,5.6,1.9,6.7,4.7H6.5C7.5,453.4,10.1,451.4,13.2,451.4L13.2,451.4z"/>
	<path class="st17" d="M35.7,523.6c6.9,0,12.9,4.5,15.2,10.7H20.5C22.8,528.1,28.7,523.6,35.7,523.6L35.7,523.6z"/>
	<path class="st17" d="M94,525.6c4.4,0,8.2,2.8,9.7,6.8H84.3C85.8,528.4,89.6,525.6,94,525.6L94,525.6z"/>
	<path class="st17" d="M83.8,554.7c4.4,0,8.2,2.8,9.7,6.8H74.2C75.6,557.5,79.4,554.7,83.8,554.7L83.8,554.7z"/>
	<path class="st17" d="M24.2,494.5c4.4,0,8.2,2.8,9.7,6.8H14.5C16,497.3,19.8,494.5,24.2,494.5L24.2,494.5z"/>
	<path class="st17" d="M517.7,521.6c3.1,0,5.7,2,6.7,4.7H511C512,523.6,514.6,521.6,517.7,521.6L517.7,521.6z"/>
	<path class="st17" d="M530.2,499.1c4.5,0,8.2,2.8,9.7,6.8h-19.4C522,501.9,525.8,499.1,530.2,499.1L530.2,499.1z"/>
	<path class="st17" d="M481.3,508.1c7,0,12.9,4.5,15.2,10.7h-30.4C468.4,512.6,474.3,508.1,481.3,508.1L481.3,508.1z"/>
	<path class="st17" d="M569.4,497.5c7,0,12.9,4.5,15.2,10.7h-30.4C556.6,502,562.5,497.5,569.4,497.5L569.4,497.5z"/>
	<path class="st17" d="M34,562.6c3.1,0,5.7,1.9,6.7,4.7H27.4C28.4,564.6,31,562.6,34,562.6L34,562.6z"/>
	<path class="st17" d="M505.4,482.7c3,0,5.6,1.9,6.7,4.7h-13.4C499.7,484.6,502.4,482.7,505.4,482.7L505.4,482.7z"/>
	<path class="st17" d="M558.9,532.6c3,0,5.6,1.9,6.7,4.7h-13.4C553.2,534.5,555.8,532.6,558.9,532.6L558.9,532.6z"/>
	<path class="st17" d="M63.6,443.1c4.4,0,8.2,2.8,9.7,6.8H53.9C55.4,445.9,59.2,443.1,63.6,443.1L63.6,443.1z"/>
	<path class="st17" d="M165.3,579.1c4.4,0,8.2,2.8,9.7,6.8h-19.3C157.1,581.9,160.9,579.1,165.3,579.1L165.3,579.1z"/>
	<path class="st17" d="M209.9,560.4c4.5,0,8.2,2.8,9.7,6.8h-19.4C201.7,563.2,205.5,560.4,209.9,560.4L209.9,560.4z"/>
	<path class="st17" d="M530.9,440c7,0,12.9,4.5,15.2,10.7h-30.4C518,444.5,524,440,530.9,440L530.9,440z"/>
	<path class="st17" d="M547.8,469.8c4.5,0,8.2,2.8,9.7,6.8h-19.4C539.7,472.6,543.4,469.8,547.8,469.8L547.8,469.8z"/>
	<path class="st17" d="M573.8,448.4c4.4,0,8.2,2.8,9.7,6.8h-19.3C565.6,451.2,569.4,448.4,573.8,448.4L573.8,448.4z"/>
	<path class="st17" d="M542.6,560.7c4.5,0,8.2,2.8,9.7,6.8h-19.4C534.4,563.5,538.2,560.7,542.6,560.7L542.6,560.7z"/>
	<path class="st17" d="M496.4,535.2c4.5,0,8.2,2.8,9.7,6.8h-19.4C488.3,538,492,535.2,496.4,535.2L496.4,535.2z"/>
	<path class="st17" d="M497.8,559.2c6.8,0,12.6,4.3,14.8,10.4H483C485.3,563.6,491,559.2,497.8,559.2L497.8,559.2z"/>
	<path class="st17" d="M432.5,556.4c3.1,0,5.7,2,6.7,4.7h-13.4C426.9,558.4,429.5,556.4,432.5,556.4L432.5,556.4z"/>
	<path class="st17" d="M442.2,573c6.9,0,12.9,4.5,15.2,10.8H427C429.3,577.5,435.2,573,442.2,573L442.2,573z"/>
	<path class="st17" d="M381.5,563c6.9,0,12.9,4.5,15.2,10.7h-30.4C368.6,567.4,374.5,563,381.5,563L381.5,563z"/>
	<path class="st17" d="M247,577.1c6.9,0,12.9,4.5,15.2,10.7h-30.4C234.1,581.6,240,577.1,247,577.1L247,577.1z"/>
	<path class="st17" d="M485.2,591.1c3.1,0,5.7,1.9,6.7,4.7h-13.4C479.6,593,482.2,591.1,485.2,591.1L485.2,591.1z"/>
	<path class="st17" d="M339.5,573.4c3.1,0,5.7,1.9,6.7,4.7h-13.4C333.8,575.4,336.4,573.4,339.5,573.4L339.5,573.4z"/>
	<path class="st17" d="M277.9,571.9c3.1,0,5.7,1.9,6.7,4.7h-13.4C272.3,573.8,274.8,571.9,277.9,571.9L277.9,571.9z"/>
	<path class="st17" d="M132.5,519.3c3.1,0,5.7,1.9,6.7,4.7h-13.4C126.8,521.2,129.4,519.3,132.5,519.3L132.5,519.3z"/>
	<path class="st17" d="M81.6,465.4c3.1,0,5.7,1.9,6.7,4.7H74.9C76,467.3,78.5,465.4,81.6,465.4L81.6,465.4z"/>
	<path class="st17" d="M305.5,585.3c6.7,0,12.4,4.3,14.6,10.3h-29.1C293.2,589.6,298.9,585.3,305.5,585.3L305.5,585.3z"/>
	<path class="st17" d="M397.6,586.4c3.1,0,5.7,1.9,6.7,4.7H391C392,588.4,394.6,586.4,397.6,586.4L397.6,586.4z"/>
	<path class="st17" d="M534,584.6c3.1,0,5.7,1.9,6.7,4.7h-13.4C528.3,586.5,530.9,584.6,534,584.6L534,584.6z"/>
</g>
</svg>
