<?xml version="1.0" encoding="utf-8"?>
<!-- Generator: Adobe Illustrator 26.0.1, SVG Export Plug-In . SVG Version: 6.00 Build 0)  -->
<!DOCTYPE svg PUBLIC "-//W3C//DTD SVG 1.1//EN" "http://www.w3.org/Graphics/SVG/1.1/DTD/svg11.dtd" [
	<!ENTITY ns_extend "http://ns.adobe.com/Extensibility/1.0/">
	<!ENTITY ns_ai "http://ns.adobe.com/AdobeIllustrator/10.0/">
	<!ENTITY ns_graphs "http://ns.adobe.com/Graphs/1.0/">
	<!ENTITY ns_vars "http://ns.adobe.com/Variables/1.0/">
	<!ENTITY ns_imrep "http://ns.adobe.com/ImageReplacement/1.0/">
	<!ENTITY ns_sfw "http://ns.adobe.com/SaveForWeb/1.0/">
	<!ENTITY ns_custom "http://ns.adobe.com/GenericCustomNamespace/1.0/">
	<!ENTITY ns_adobe_xpath "http://ns.adobe.com/XPath/1.0/">
]>
<svg version="1.1" id="Слой_1" xmlns:x="&ns_extend;" xmlns:i="&ns_ai;" xmlns:graph="&ns_graphs;"
	 xmlns="http://www.w3.org/2000/svg" xmlns:xlink="http://www.w3.org/1999/xlink" x="0px" y="0px" width="561.2px" height="572.5px"
	 viewBox="0 0 561.2 572.5" style="enable-background:new 0 0 561.2 572.5;" xml:space="preserve">
<style type="text/css">
	.st0{fill-rule:evenodd;clip-rule:evenodd;fill:#EDF4FF;}
	.st1{fill-rule:evenodd;clip-rule:evenodd;fill:#D6E6FF;}
	.st2{fill-rule:evenodd;clip-rule:evenodd;fill:#C0D7FF;}
	.st3{fill-rule:evenodd;clip-rule:evenodd;fill:#CFE1FF;}
	.st4{fill:#99B8F7;}
	.st5{fill:#FFFFFF;}
	.st6{fill-rule:evenodd;clip-rule:evenodd;fill:#FFD900;}
	.st7{fill:#FFA70F;}
	.st8{fill-rule:evenodd;clip-rule:evenodd;fill:#FF8400;}
	.st9{fill-rule:evenodd;clip-rule:evenodd;fill:#FFA70F;}
	.st10{fill-rule:evenodd;clip-rule:evenodd;fill:#AECDFC;}
</style>
<metadata>
	<sfw  xmlns="&ns_sfw;">
		<slices></slices>
		<sliceSourceBounds  bottomLeftOrigin="true" height="572.5" width="561.2" x="-586.9" y="-276.9"></sliceSourceBounds>
	</sfw>
</metadata>
<g>
	<path class="st0" d="M280.6,572.5c154.5,0,280.6-128.6,280.6-286.2C561.2,128.6,435.1,0,280.6,0C126.1,0,0,128.6,0,286.2
		C0,443.9,126.1,572.5,280.6,572.5L280.6,572.5z"/>
	<path class="st1" d="M280.6,572.5c91.1,0,172.3-44.7,223.7-113.8c-68.9-17.1-144.5-26.5-223.7-26.5c-79.2,0-154.7,9.4-223.7,26.5
		C108.2,527.7,189.4,572.5,280.6,572.5L280.6,572.5z"/>
	<path class="st2" d="M280.6,405.2c-19.1,0-34.6-12.7-34.6-28.4c0-5.9,2.2-11.4,6-16l0,0c4.8-5.2,7.9-12.7,7.9-21.1
		c0-8.8-5.9-9.2-5.9-18.7c0-10.3,10.7-16.7,10.7-28.5c0-2.1-0.2-4.1-0.7-6c-1-2.7-1.6-5.8-1.6-9c0-12.1,8.2-21.8,18.3-21.8
		s18.3,9.8,18.3,21.8c0,3.2-0.6,6.3-1.6,9c-0.5,1.9-0.7,4-0.7,6c0,11.9,10.7,18.2,10.7,28.5c0,9.5-5.9,9.8-5.9,18.7
		c0,8.4,3.1,15.9,7.9,21.1l0,0c3.8,4.6,6,10,6,16C315.2,392.5,299.7,405.2,280.6,405.2L280.6,405.2z"/>
	<path class="st3" d="M280.6,255.6c10.1,0,18.3,9.8,18.3,21.8c0,3.2-0.6,6.3-1.6,9c-0.5,1.9-0.7,4-0.7,6c0,11.9,10.7,18.2,10.7,28.5
		c0,9.5-5.9,9.8-5.9,18.7c0,8.4,3.1,15.9,7.9,21.1v0c3.8,4.6,6,10.1,6,16c0,15.7-15.5,28.4-34.6,28.4V255.6z"/>
	<rect x="279.9" y="255.6" class="st4" width="1.3" height="176.9"/>
	<path class="st4" d="M262.3,302l18.7,18.3l-0.9,0.9l-18.4-18C261.9,302.9,262.2,302.4,262.3,302L262.3,302z M257,353.2
		c0.2-0.4,0.4-0.9,0.5-1.3l23.4,22.9l-0.9,0.9L257,353.2z M265.8,264.7c0.2-0.4,0.5-0.7,0.7-1.1l14.5,14.2l-0.9,0.9L265.8,264.7z
		 M298.7,274.5c0.1,0.5,0.1,1.1,0.1,1.7L281,293.5l-0.9-0.9L298.7,274.5z M306.7,317.3c0.1,0.5,0.3,0.9,0.3,1.5l-26,25.4l-0.9-0.9
		L306.7,317.3z M309.9,361.8c0.3,0.3,0.5,0.7,0.8,1.1l-29.7,29l-0.9-0.9L309.9,361.8z"/>
	<path class="st4" d="M280.6,319.8l0.4,0.4l-0.4,0.5V319.8z M298.7,274.5c0.1,0.5,0.1,1.1,0.1,1.7L281,293.5l-0.4-0.5v-0.9
		L298.7,274.5z M306.7,317.3c0.1,0.5,0.3,0.9,0.3,1.5l-26,25.4l-0.4-0.5v-0.9L306.7,317.3z M309.9,361.8c0.3,0.3,0.5,0.7,0.8,1.1
		l-29.7,29l-0.4-0.5v-0.9L309.9,361.8z M280.6,375.2v-0.9l0.4,0.4L280.6,375.2z M280.6,278.2v-0.9l0.4,0.4L280.6,278.2z"/>
	<path class="st5" d="M462.7,465l-16.5-11.6c-1.9-1.3-2.4-4-1.1-5.9c17-27.6,31.4-57.8,42.2-89.6c10.1-29.9,17-61.3,19.6-93.4
		c0-0.1,0-0.2,0-0.4c0.1-0.9,0.2-2.1,0.3-3.3c0.1-1.4,0.2-2.7,0.2-3.8V257l0,0l0-0.4c0-0.2,0-0.4,0-0.6c0.1-1.3,0.1-2.4,0.1-3.4
		c0-0.9,0-2.1,0-3.8c0-52.7-25.3-100.4-66.2-135c-41.1-34.8-98-56.3-160.8-56.3S160.9,79,119.8,113.7c-40.9,34.6-66.2,82.3-66.2,135
		c0,1.7,0,2.9,0,3.8c0,1.1,0.1,2.3,0.1,3.7v0.2l0,0.5v0.2c0.1,1.1,0.1,2.2,0.2,3.6c0.1,1.4,0.2,2.7,0.3,3.7v0h0
		C57,296.6,63.9,328,74,357.9c10.8,31.9,25.2,62.1,42.2,89.7c1.2,2,0.7,4.5-1.2,5.8l0,0L98.5,465l35.1,49.4l71.6-49.7l-34.4-51.1
		c-1.7,0.2-3.5-0.7-4.3-2.3l0-0.1l0,0c-6.4-13.3-12.4-26.8-17.3-40.3c-5-13.5-9-26.8-11.7-39.7c-2.8-13.9-4.6-27.5-5.2-40.7
		c-1.7-36.2,5.5-69.1,23.3-95.2c17.9-26.1,46.3-45.2,87.1-53.8c11.6-2.4,24.2-4,37.8-4.6c0.1,0,0.3,0,0.4,0h0.1
		c13.6,0.6,26.2,2.2,37.7,4.6c40.8,8.5,69.2,27.7,87.1,53.8c17.8,26.1,25,58.9,23.3,95.2c-0.6,13.2-2.4,26.8-5.2,40.7
		c-2.7,12.9-6.7,26.2-11.7,39.7c-5,13.5-10.9,27-17.3,40.3c-0.8,1.7-2.6,2.6-4.4,2.4L356,464.7l71.6,49.7L462.7,465z M454.3,448.6
		l14.4,10.1c0.1,0.1,0.2,0.2,0.3,0.3l0.2,0.1c1.2,1,2,2.5,2.4,4c0.3,1.5,0.1,3.2-0.7,4.7c-0.1,0.2-0.3,0.4-0.4,0.6L434,520.2l0,0.1
		c-0.1,0.1-0.1,0.2-0.2,0.3c-1.1,1.6-2.7,2.6-4.5,2.9c-1.8,0.3-3.6,0-5.2-1.1l0,0l-73.9-51.3c-0.1-0.1-0.2-0.1-0.2-0.1
		c-0.2-0.1-0.4-0.3-0.6-0.5c-1.2-1-1.9-2.3-2.3-3.7l0,0l0,0c-0.4-1.6-0.2-3.3,0.7-5l0,0c0.1-0.1,0.1-0.2,0.2-0.3l35.6-52.9
		c0-0.1,0.1-0.2,0.1-0.3c0.1-0.2,0.2-0.3,0.3-0.5c1-1.5,2.4-2.4,4-2.8c0.1,0,0.2-0.1,0.3-0.1c5.9-12.4,11.3-24.8,15.8-37
		c4.8-13,8.7-25.9,11.3-38.5c2.8-13.5,4.5-26.7,5.1-39.4c1.6-34.4-5.2-65.5-21.9-90c-16.6-24.3-43.3-42.2-81.8-50.2
		c-11.1-2.3-23.2-3.9-36.3-4.5c-13.1,0.6-25.2,2.1-36.3,4.5c-38.5,8-65.2,25.9-81.8,50.2c-16.7,24.4-23.4,55.5-21.8,90
		c0.6,12.7,2.3,25.9,5,39.4c2.6,12.5,6.5,25.4,11.3,38.5c4.5,12.2,9.9,24.6,15.8,37c0.1,0,0.2,0,0.3,0.1c1.6,0.4,3,1.3,4,2.8
		c0.1,0.1,0.1,0.1,0.2,0.3c0.1,0.1,0.1,0.2,0.2,0.3l0.1,0.3l35.5,52.7c0.1,0.2,0.2,0.3,0.3,0.5c0.8,1.5,1,3.2,0.7,4.7
		c0,0.1,0,0.2-0.1,0.3c-0.3,1.5-1.2,2.9-2.5,3.9c-0.1,0.1-0.2,0.2-0.3,0.3l-74,51.4l-0.2,0.1c-1.6,1.1-3.4,1.5-5.2,1.1
		s-3.4-1.3-4.5-2.9c-0.1-0.1-0.1-0.2-0.2-0.3l0,0l-36.7-51.8l0,0c-0.1-0.1-0.1-0.2-0.2-0.3c-0.9-1.6-1.2-3.4-0.9-5.1
		c0.3-1.5,1.1-2.9,2.4-4c0.1-0.1,0.3-0.3,0.4-0.3l14.5-10.2c-16.4-27.2-30.4-56.8-40.9-88c-10.3-30.5-17.3-62.6-20.1-95.4l0,0
		c-0.1-1.5-0.3-2.8-0.3-3.8c-0.1-1.1-0.2-2.3-0.2-3.7c0-0.3-0.1-0.5-0.1-0.8c0-0.3,0-0.5,0-0.8c-0.1-1.1-0.1-2.2-0.1-3.4
		c-0.1-1.7-0.1-3-0.1-4c0-55.3,26.4-105.4,69.3-141.6c42.6-36,101.4-58.3,166.3-58.3s123.7,22.3,166.3,58.3
		c42.8,36.2,69.3,86.3,69.3,141.6c0,0.9,0,2.3-0.1,4c0,1.2-0.1,2.4-0.1,3.5c0,0.1,0,0.3,0,0.5l-0.1,0.9l0,0
		c-0.1,1.4-0.1,2.7-0.2,3.8c-0.1,1-0.2,2.2-0.3,3.6v0.3c-2.7,32.8-9.8,64.9-20.1,95.4C484.7,391.8,470.7,421.4,454.3,448.6
		L454.3,448.6z M170.2,412.6L170.2,412.6L170.2,412.6z M170.2,412.6L170.2,412.6C170.1,412.5,170.1,412.5,170.2,412.6L170.2,412.6z
		 M426.7,515.8C426.7,515.8,426.6,515.9,426.7,515.8L426.7,515.8L426.7,515.8z"/>
	<path class="st6" d="M280.6,141.1c-123.9,5.8-159.3,90.2-139,189.2c9.3,45.4,35.9,95.9,61.3,139.6l0,0l-50.1,35.2
		C99,442.1,57.7,356.4,50.1,264.9c-0.2-2.5-0.4-5.1-0.5-7.6c0-0.3-0.1-0.6-0.1-0.9v0c-0.1-2.5-0.2-5.1-0.2-7.7
		c0-108,103.5-195.6,231.3-195.6s231.3,87.6,231.3,195.6c0,2.6-0.1,5.1-0.2,7.7l0,0c0,0.3-0.1,0.6-0.1,0.9c-0.1,2.5-0.3,5.1-0.6,7.6
		c-7.7,91.6-48.9,177.2-102.7,240.3l-50.1-35.2l0,0c25.4-43.7,52-94.3,61.3-139.6C439.9,231.3,404.5,146.9,280.6,141.1L280.6,141.1z
		"/>
	<path class="st7" d="M168.4,405.4c4.1,8.8,8.5,17.4,13.1,26v0l-64.3,25.7c-2.4-3.7-4.7-7.5-7-11.3
		C118.6,439.7,158.3,412.2,168.4,405.4L168.4,405.4z"/>
	<path class="st6" d="M94.8,462.4l75.2-52.8c1.2-0.9,2.9-0.6,3.7,0.7c0.1,0.1,0.2,0.3,0.3,0.4l35.8,53.2c0.7,1.2,0.3,2.7-0.9,3.5h0
		l-74.2,51.5c-1.2,0.9-2.9,0.6-3.8-0.7c-0.1-0.1-0.1-0.2-0.1-0.3L94,466C93.3,464.8,93.6,463.2,94.8,462.4L94.8,462.4z"/>
	<path class="st7" d="M139.3,390.2c4.1,9.1,0.1,19.8-8.8,24s-19.6,0.1-23.7-9c-9.4-20.6-17.1-42.3-23-64.6
		c-5.6-21.5-9.5-43.6-11.3-66c0-0.4-0.1-0.7-0.1-1.1l-0.2-2.4c0-0.5-0.1-1.6-0.2-3.4l0,0l-0.1-0.7c0-0.5,0-1.1,0-1.5
		c0-0.7,0-1.5-0.1-2.5c-0.1-3-0.1-3.2-0.1-3.8c0-25.6,5.7-50.1,16.1-72.5c10.7-23.1,26.2-43.8,45.4-61c7.4-6.6,18.7-6,25.3,1.5
		c6.6,7.5,5.9,19-1.5,25.6c-15.7,14.1-28.3,30.8-36.9,49.3c-8.1,17.6-12.6,36.9-12.6,57.2c0,2.8-0.1,2.2,0,2.9c0,0.5,0,1.4,0.1,2.6
		c0,0.3,0,0.5,0.1,0.8h0l0,0.3c0,0.3,0.1,1.3,0.2,2.9l0.1,1.9c0.1,0.4,0.1,0.8,0.1,1.2c1.6,20.4,5.1,40.3,10.2,59.6
		C123.8,351.9,130.9,371.6,139.3,390.2L139.3,390.2z"/>
	<path class="st8" d="M116.3,160.2c6.8,0,12.3,5.6,12.3,12.4c0,6.9-5.5,12.4-12.3,12.4c-6.8,0-12.3-5.6-12.3-12.4
		C104,165.7,109.5,160.2,116.3,160.2L116.3,160.2z M107.2,344.6c6.8,0,12.3,5.6,12.3,12.4s-5.5,12.4-12.3,12.4
		c-6.8,0-12.3-5.6-12.3-12.4S100.5,344.6,107.2,344.6L107.2,344.6z M89.9,253.5c6.8,0,12.3,5.6,12.3,12.4s-5.5,12.4-12.3,12.4
		c-6.8,0-12.3-5.6-12.3-12.4S83.1,253.5,89.9,253.5L89.9,253.5z"/>
	<path class="st9" d="M205.6,63.6c23.5-6.8,48.7-10.5,75-10.5c26.2,0,51.4,3.7,74.9,10.5l-10.1,24.7c-3.7,7.8-11.5,13.1-20.7,13.1
		c-0.9,0-1.9-0.1-2.8-0.2c-12.9-2.2-26.7-3.8-41.4-4.4c-14.7,0.7-28.5,2.2-41.4,4.4c-0.9,0.1-1.9,0.2-2.8,0.2
		c-9.1,0-17-5.4-20.7-13.1L205.6,63.6z"/>
	<path class="st7" d="M392.8,405.4c-4.1,8.8-8.5,17.4-13.1,26v0l64.3,25.7c2.4-3.7,4.7-7.5,7-11.3
		C442.5,439.7,402.9,412.2,392.8,405.4L392.8,405.4z"/>
	<path class="st6" d="M466.4,462.4l-75.2-52.8c-1.2-0.9-2.9-0.6-3.7,0.7c-0.1,0.1-0.2,0.3-0.2,0.4l-35.8,53.2
		c-0.7,1.2-0.3,2.7,0.8,3.5l0,0l74.2,51.5c1.2,0.9,2.9,0.6,3.7-0.7c0.1-0.1,0.1-0.2,0.2-0.3l36.8-51.9
		C467.9,464.8,467.5,463.2,466.4,462.4L466.4,462.4z"/>
	<path class="st7" d="M421.9,390.2c-4.1,9.1-0.1,19.8,8.8,24c9,4.2,19.6,0.1,23.8-9c9.3-20.6,17.1-42.3,23-64.6
		c5.6-21.5,9.5-43.6,11.3-66c0-0.4,0.1-0.7,0.1-1.1l0.2-2.4c0-0.5,0.1-1.6,0.2-3.4l0,0l0.1-0.7c0-0.5,0.1-1.1,0-1.5
		c0-0.7,0.1-1.5,0.1-2.5c0.1-3,0.1-3.2,0.1-3.8c0-25.6-5.7-50.1-16.1-72.5c-10.7-23.1-26.2-43.8-45.4-61c-7.4-6.6-18.8-6-25.3,1.5
		c-6.6,7.5-5.9,19,1.5,25.6c15.7,14.1,28.3,30.8,36.8,49.3c8.1,17.6,12.6,36.9,12.6,57.2c0,2.8,0,2.2,0,2.9c0,0.5-0.1,1.4-0.1,2.6
		c0,0.3,0,0.5-0.1,0.8h0l0,0.3c0,0.3-0.1,1.3-0.2,2.9l-0.1,1.9c-0.1,0.4-0.1,0.8-0.1,1.2c-1.6,20.4-5.1,40.3-10.1,59.6
		C437.4,351.9,430.3,371.6,421.9,390.2L421.9,390.2z"/>
	<path class="st8" d="M444.9,160.2c-6.8,0-12.3,5.6-12.3,12.4c0,6.9,5.5,12.4,12.3,12.4s12.3-5.6,12.3-12.4
		C457.2,165.7,451.7,160.2,444.9,160.2L444.9,160.2z M453.9,344.6c-6.8,0-12.3,5.6-12.3,12.4s5.5,12.4,12.3,12.4
		c6.8,0,12.3-5.6,12.3-12.4S460.7,344.6,453.9,344.6L453.9,344.6z M471.3,253.5c-6.8,0-12.3,5.6-12.3,12.4s5.5,12.4,12.3,12.4
		c6.8,0,12.3-5.6,12.3-12.4S478.1,253.5,471.3,253.5L471.3,253.5z"/>
	<path class="st10" d="M268.2,538.2c5.3,0,9.8,3.4,11.6,8.2h-23.2C258.3,541.5,262.9,538.2,268.2,538.2L268.2,538.2z"/>
	<path class="st10" d="M309.2,527.3c2.3,0,4.3,1.5,5.1,3.6h-10.2C304.9,528.7,306.9,527.3,309.2,527.3L309.2,527.3z"/>
	<path class="st10" d="M306.2,489.4c3.4,0,6.2,2.1,7.4,5.2h-14.7C300,491.6,302.9,489.4,306.2,489.4L306.2,489.4z"/>
	<path class="st10" d="M280,512.9c5.3,0,9.8,3.4,11.6,8.2h-23.2C270.2,516.3,274.7,512.9,280,512.9L280,512.9z"/>
	<path class="st10" d="M225.1,488c5.3,0,9.8,3.4,11.6,8.2h-23.2C215.3,491.4,219.8,488,225.1,488L225.1,488z"/>
	<path class="st10" d="M235.3,463.2c2.4,0,4.3,1.5,5.1,3.6h-10.2C231.1,464.6,233,463.2,235.3,463.2L235.3,463.2z"/>
	<path class="st10" d="M277.8,471.9c2.3,0,4.3,1.5,5.1,3.6h-10.2C273.4,473.4,275.4,471.9,277.8,471.9L277.8,471.9z"/>
	<path class="st10" d="M232.9,507.6c3.4,0,6.2,2.1,7.4,5.2h-14.7C226.6,509.7,229.5,507.6,232.9,507.6L232.9,507.6z"/>
	<path class="st10" d="M225.1,529.7c3.4,0,6.3,2.1,7.4,5.2h-14.7C218.9,531.9,221.8,529.7,225.1,529.7L225.1,529.7z"/>
	<path class="st10" d="M335.8,490.6c2.4,0,4.3,1.5,5.1,3.6h-10.2C331.5,492,333.5,490.6,335.8,490.6L335.8,490.6z"/>
	<path class="st10" d="M366.6,505.7c3.4,0,6.3,2.1,7.4,5.2h-14.8C360.4,507.9,363.3,505.7,366.6,505.7L366.6,505.7z"/>
	<path class="st10" d="M333.8,515.7c5.3,0,9.8,3.4,11.6,8.2h-23.2C324,519.1,328.5,515.7,333.8,515.7L333.8,515.7z"/>
	<path class="st10" d="M307.5,450.8c2.3,0,4.3,1.5,5.1,3.6h-10.2C303.1,452.3,305.1,450.8,307.5,450.8L307.5,450.8z"/>
	<path class="st10" d="M400.8,522.7c2.3,0,4.3,1.5,5.1,3.6h-10.2C396.5,524.2,398.5,522.7,400.8,522.7L400.8,522.7z"/>
	<path class="st10" d="M262.2,447.3c5.3,0,9.8,3.4,11.6,8.2h-23.2C252.4,450.8,256.9,447.3,262.2,447.3L262.2,447.3z"/>
	<path class="st10" d="M335.2,545.3c5.3,0,9.8,3.4,11.6,8.2h-23.2C325.4,548.7,329.9,545.3,335.2,545.3L335.2,545.3z"/>
	<path class="st10" d="M183.5,512.8c5.3,0,9.8,3.4,11.6,8.2h-23.2C173.7,516.2,178.2,512.8,183.5,512.8L183.5,512.8z"/>
	<path class="st10" d="M325.1,468.2c2.3,0,4.3,1.5,5.1,3.6h-10.2C320.8,469.7,322.8,468.2,325.1,468.2L325.1,468.2z"/>
	<path class="st10" d="M224.9,441.5c2.3,0,4.3,1.5,5.1,3.6h-10.1C220.6,442.9,222.6,441.5,224.9,441.5L224.9,441.5z"/>
	<path class="st10" d="M173.4,540.5c2.3,0,4.3,1.5,5.1,3.6h-10.1C169.1,542,171.1,540.5,173.4,540.5L173.4,540.5z"/>
	<path class="st10" d="M373.1,538c2.3,0,4.3,1.5,5.1,3.6H368C368.8,539.5,370.8,538,373.1,538L373.1,538z"/>
	<path class="st10" d="M237.1,553.2c2.3,0,4.3,1.5,5.1,3.6H232C232.8,554.7,234.8,553.2,237.1,553.2L237.1,553.2z"/>
	<path class="st10" d="M335.8,439.1c3.4,0,6.2,2.1,7.4,5.2h-14.7C329.5,441.3,332.4,439.1,335.8,439.1L335.8,439.1z"/>
</g>
</svg>
