<?xml version="1.0" encoding="utf-8"?>
<!-- Generator: Adobe Illustrator 26.0.1, SVG Export Plug-In . SVG Version: 6.00 Build 0)  -->
<!DOCTYPE svg PUBLIC "-//W3C//DTD SVG 1.1//EN" "http://www.w3.org/Graphics/SVG/1.1/DTD/svg11.dtd" [
	<!ENTITY ns_extend "http://ns.adobe.com/Extensibility/1.0/">
	<!ENTITY ns_ai "http://ns.adobe.com/AdobeIllustrator/10.0/">
	<!ENTITY ns_graphs "http://ns.adobe.com/Graphs/1.0/">
	<!ENTITY ns_vars "http://ns.adobe.com/Variables/1.0/">
	<!ENTITY ns_imrep "http://ns.adobe.com/ImageReplacement/1.0/">
	<!ENTITY ns_sfw "http://ns.adobe.com/SaveForWeb/1.0/">
	<!ENTITY ns_custom "http://ns.adobe.com/GenericCustomNamespace/1.0/">
	<!ENTITY ns_adobe_xpath "http://ns.adobe.com/XPath/1.0/">
]>
<svg version="1.1" id="Слой_1" xmlns:x="&ns_extend;" xmlns:i="&ns_ai;" xmlns:graph="&ns_graphs;"
	 xmlns="http://www.w3.org/2000/svg" xmlns:xlink="http://www.w3.org/1999/xlink" x="0px" y="0px" width="571.7px" height="583.2px"
	 viewBox="0 0 571.7 583.2" style="enable-background:new 0 0 571.7 583.2;" xml:space="preserve">
<style type="text/css">
	.st0{fill-rule:evenodd;clip-rule:evenodd;fill:#E3EEFF;}
	.st1{fill-rule:evenodd;clip-rule:evenodd;fill:#D2E3FC;}
	.st2{fill:none;stroke:#71A1FA;stroke-width:8.5891;stroke-miterlimit:10;}
	.st3{fill-rule:evenodd;clip-rule:evenodd;fill:#FF6969;}
	.st4{fill-rule:evenodd;clip-rule:evenodd;fill:#F53D47;}
	.st5{fill:#FFFFFF;}
</style>
<metadata>
	<sfw  xmlns="&ns_sfw;">
		<slices></slices>
		<sliceSourceBounds  bottomLeftOrigin="true" height="583.2" width="571.7" x="-446.3" y="-256.9"></sliceSourceBounds>
	</sfw>
</metadata>
<g>
	<path class="st0" d="M285.8,583.2c157.4,0,285.8-131,285.8-291.6C571.7,131,443.3,0,285.8,0C128.4,0,0,131,0,291.6
		C0,452.2,128.4,583.2,285.8,583.2L285.8,583.2z"/>
	<path class="st1" d="M285.8,583.2c63.2,0,121.7-21.1,169.2-56.8c-39.2-51.6-100.5-85-169.2-85c-68.7,0-130,33.4-169.2,85
		C164.1,562,222.6,583.2,285.8,583.2L285.8,583.2z"/>
	<path class="st1" d="M151.8,34.2C61.6,83.3,0,180.3,0,291.6c0,17.7,1.6,35.1,4.6,52c96.5-21,169.2-108.8,169.2-213.3
		C173.8,95.8,165.9,63.2,151.8,34.2L151.8,34.2z"/>
	<path class="st1" d="M567.1,343.6c3-16.9,4.6-34.2,4.6-52c0-111.3-61.6-208.3-151.8-257.4c-14,29-21.9,61.6-21.9,96.1
		C397.9,234.8,470.6,322.5,567.1,343.6L567.1,343.6z"/>
	<path class="st2" d="M285.8,527.2c128.5,0,233.3-105.8,233.3-235.6C519.1,161.8,414.3,56,285.8,56C157.4,56,52.6,161.8,52.6,291.6
		C52.6,421.4,157.4,527.2,285.8,527.2L285.8,527.2z"/>
	<path class="st2" d="M286.9,413.1c66.2,0,120.2-54.5,120.2-121.4c0-66.8-54-121.4-120.2-121.4s-120.2,54.5-120.2,121.4
		C166.7,358.6,220.7,413.1,286.9,413.1L286.9,413.1z"/>
	<polyline class="st2" points="508.9,414.1 285.8,293.5 62.7,414.1 	"/>
	<line class="st2" x1="285.8" y1="293.5" x2="285.8" y2="56"/>
	<path class="st3" d="M285.8,129.2c22.5,0,40.8,18.5,40.8,41.2s-18.3,41.2-40.8,41.2c-22.6,0-40.8-18.5-40.8-41.2
		S263.3,129.2,285.8,129.2L285.8,129.2z"/>
	<path class="st3" d="M392.3,308.7c22.5,0,40.8,18.5,40.8,41.2c0,22.8-18.3,41.2-40.8,41.2s-40.8-18.5-40.8-41.2
		C351.5,327.2,369.8,308.7,392.3,308.7L392.3,308.7z"/>
	<path class="st3" d="M285.8,14.8c22.5,0,40.8,18.5,40.8,41.2c0,22.8-18.3,41.2-40.8,41.2C263.3,97.2,245,78.8,245,56
		C245,33.2,263.3,14.8,285.8,14.8L285.8,14.8z"/>
	<path class="st4" d="M285.8,14.8c22.5,0,40.8,18.5,40.8,41.2c0,22.8-18.3,41.2-40.8,41.2V14.8L285.8,14.8z"/>
	<path class="st3" d="M117.2,385.4c10.3,20.2,2.4,45.1-17.6,55.5c-20,10.4-44.6,2.5-55-17.8c-10.3-20.2-2.4-45.1,17.6-55.5
		C82.3,357.2,106.9,365.2,117.2,385.4L117.2,385.4z"/>
	<path class="st3" d="M217.7,331.1c10.3,20.3,2.4,45.1-17.6,55.5c-20.1,10.4-44.7,2.5-55-17.8c-10.3-20.2-2.4-45.1,17.6-55.5
		S207.4,310.8,217.7,331.1L217.7,331.1z"/>
	<path class="st3" d="M527,385.4c10.3,20.2,2.4,45.1-17.6,55.5c-20,10.4-44.7,2.5-55-17.8s-2.4-45.1,17.6-55.5
		S516.7,365.2,527,385.4L527,385.4z"/>
	<path class="st3" d="M285.8,252.3c22.5,0,40.8,18.5,40.8,41.2s-18.3,41.2-40.8,41.2c-22.6,0-40.8-18.5-40.8-41.2
		S263.3,252.3,285.8,252.3L285.8,252.3z"/>
	<path class="st5" d="M280.2,63.2V61c0-1.9,0.4-3.6,1.2-5c0.8-1.4,2.3-2.9,4.4-4.5c2-1.5,3.4-2.7,4.1-3.6c0.7-0.9,1-2,1-3.1
		c0-1.3-0.5-2.3-1.4-2.9c-0.9-0.7-2.2-1-3.9-1c-2.9,0-6.3,1-10,2.9l-3.2-6.5c4.4-2.5,9-3.7,13.9-3.7c4,0,7.2,1,9.6,2.9
		c2.4,1.9,3.6,4.6,3.6,7.8c0,2.2-0.5,4.1-1.5,5.6c-1,1.6-2.8,3.3-5.6,5.3c-1.9,1.4-3.1,2.5-3.5,3.2c-0.5,0.7-0.8,1.7-0.8,2.9v1.8
		H280.2z M279.3,73.4c0-1.7,0.4-2.9,1.3-3.8c0.9-0.9,2.2-1.3,3.9-1.3c1.6,0,2.9,0.4,3.8,1.3c0.9,0.9,1.3,2.1,1.3,3.8
		c0,1.5-0.5,2.8-1.4,3.7c-0.9,0.9-2.1,1.3-3.7,1.3c-1.6,0-2.9-0.5-3.8-1.3C279.8,76.2,279.3,74.9,279.3,73.4L279.3,73.4z"/>
	<path class="st4" d="M285.8,129.2c22.5,0,40.8,18.5,40.8,41.2s-18.3,41.2-40.8,41.2V129.2L285.8,129.2z"/>
	<path class="st4" d="M285.8,252.3c22.5,0,40.8,18.5,40.8,41.2s-18.3,41.2-40.8,41.2V252.3L285.8,252.3z"/>
	<path class="st4" d="M392.3,308.7c22.5,0,40.8,18.5,40.8,41.2c0,22.8-18.3,41.2-40.8,41.2V308.7L392.3,308.7z"/>
	<path class="st4" d="M490.8,363.1c22.5,0,40.8,18.5,40.8,41.2c0,22.8-18.3,41.3-40.8,41.3V363.1L490.8,363.1z"/>
	<path class="st4" d="M181.4,308.7c22.5,0,40.8,18.5,40.8,41.3c0,22.8-18.3,41.2-40.8,41.2L181.4,308.7L181.4,308.7z"/>
	<path class="st4" d="M80.9,363.1c22.6,0,40.8,18.5,40.8,41.2c0,22.8-18.3,41.3-40.8,41.3V363.1L80.9,363.1z"/>
	<path class="st5" d="M285.8,249.4c12,0,23,4.9,30.9,12.9c7.9,8,12.8,19,12.8,31.2c0,12.2-4.9,23.2-12.8,31.2
		c-7.9,8-18.8,12.9-30.9,12.9c-12.1,0-23-4.9-30.9-12.9c-7.9-8-12.8-19-12.8-31.2c0-12.2,4.9-23.2,12.8-31.2
		C262.9,254.4,273.8,249.4,285.8,249.4L285.8,249.4z M312.7,266.4c-6.9-6.9-16.4-11.2-26.8-11.2s-20,4.3-26.9,11.2
		c-6.9,7-11.1,16.5-11.1,27.1s4.3,20.2,11.1,27.1c6.9,6.9,16.4,11.2,26.9,11.2s20-4.3,26.8-11.2c6.9-7,11.1-16.5,11.1-27.1
		S319.6,273.3,312.7,266.4L312.7,266.4z M524.5,386.7c-4.8-9.4-12.9-16-22.2-19c-9.2-3-19.6-2.4-29,2.4
		c-9.3,4.8-15.8,13.1-18.8,22.4c-3,9.3-2.4,19.8,2.4,29.3c4.8,9.4,12.9,16,22.2,19c9.2,3,19.6,2.4,29-2.4
		c9.3-4.8,15.8-13.1,18.8-22.4C529.9,406.7,529.3,396.2,524.5,386.7L524.5,386.7z M529.6,384.1c5.5,10.8,6.2,22.9,2.7,33.6
		c-3.4,10.7-10.9,20.2-21.6,25.8c-10.7,5.6-22.7,6.2-33.3,2.8c-10.7-3.4-20-11-25.5-21.8c-5.5-10.9-6.2-22.9-2.7-33.6
		c3.4-10.8,10.9-20.2,21.6-25.8c10.7-5.6,22.7-6.2,33.3-2.8C514.7,365.8,524,373.3,529.6,384.1L529.6,384.1z M220.2,329.8
		c5.5,10.8,6.2,22.9,2.8,33.6c-3.4,10.7-10.8,20.1-21.4,25.7l-0.2,0.1c-10.7,5.6-22.6,6.2-33.3,2.8c-10.5-3.4-19.8-10.8-25.3-21.4
		l0,0l-0.2-0.4c-5.5-10.8-6.2-22.9-2.7-33.6c3.3-10.6,10.7-19.9,21.1-25.5h0l0.4-0.2c10.7-5.6,22.6-6.2,33.3-2.8
		C205.4,311.4,214.7,319,220.2,329.8L220.2,329.8z M217.6,361.7c2.9-9.3,2.4-19.8-2.4-29.3c-4.8-9.4-12.9-16-22.2-19
		c-9.3-3-19.6-2.4-29,2.4l0,0c-9.4,4.8-15.8,13.1-18.8,22.4c-2.9,9.3-2.4,19.8,2.4,29.2v0c4.8,9.4,13,16,22.2,19
		c9.3,3,19.6,2.4,29-2.4l0,0C208.1,379.2,214.6,371,217.6,361.7L217.6,361.7z M119.7,384.1c5.5,10.8,6.2,22.9,2.7,33.6
		c-3.4,10.7-10.9,20.2-21.6,25.8c-10.7,5.6-22.6,6.2-33.3,2.8c-10.6-3.4-20-11-25.5-21.8c-5.5-10.9-6.2-22.9-2.8-33.6
		c3.4-10.7,10.8-20.1,21.4-25.7l0.2-0.1c10.7-5.6,22.6-6.2,33.3-2.8C104.9,365.8,114.2,373.3,119.7,384.1L119.7,384.1L119.7,384.1z
		 M117.1,416c2.9-9.3,2.4-19.8-2.4-29.3l0,0c-4.8-9.4-13-16-22.2-19c-9.3-3-19.6-2.4-29,2.4l0,0c-9.3,4.8-15.8,13.1-18.8,22.4
		c-2.9,9.3-2.4,19.8,2.4,29.3c4.8,9.4,12.9,16,22.2,19c9.3,3,19.6,2.4,29-2.4C107.7,433.6,114.2,425.4,117.1,416L117.1,416z
		 M285.8,11.9c12,0,23,4.9,30.9,12.9c7.9,8,12.8,19,12.8,31.2c0,12.2-4.9,23.2-12.8,31.2c-7.9,8-18.8,12.9-30.9,12.9l0,0
		c-12.1,0-23-4.9-30.9-12.9c-7.9-8-12.8-19-12.8-31.2c0-12.2,4.9-23.2,12.8-31.2C262.9,16.8,273.8,11.9,285.8,11.9L285.8,11.9z
		 M312.7,28.9c-6.9-6.9-16.4-11.2-26.8-11.2s-20,4.3-26.9,11.2c-6.9,7-11.1,16.5-11.1,27.1c0,10.6,4.3,20.2,11.1,27.1
		c6.9,6.9,16.4,11.2,26.9,11.2v0c10.5,0,20-4.3,26.8-11.3c6.9-7,11.1-16.5,11.1-27.1C323.8,45.4,319.6,35.8,312.7,28.9L312.7,28.9z
		 M392.3,305.9c12,0,23,4.9,30.9,12.9s12.8,19,12.8,31.2s-4.9,23.2-12.8,31.2c-7.9,8-18.8,12.9-30.9,12.9s-23-4.9-30.9-12.9
		c-7.9-8-12.8-19-12.8-31.2s4.9-23.2,12.8-31.2S380.3,305.9,392.3,305.9L392.3,305.9z M419.2,322.8c-6.9-6.9-16.4-11.2-26.9-11.2
		s-20,4.3-26.9,11.2c-6.9,7-11.1,16.5-11.1,27.1s4.3,20.2,11.1,27.1c6.9,6.9,16.4,11.2,26.9,11.2s20-4.3,26.9-11.2
		c6.9-7,11.1-16.5,11.1-27.1S426,329.8,419.2,322.8L419.2,322.8z M285.8,126.3c12,0,23,4.9,30.9,12.9c7.9,8,12.8,19,12.8,31.2
		c0,12.2-4.9,23.2-12.8,31.2c-7.9,8-18.8,12.9-30.9,12.9c-12.1,0-23-4.9-30.9-12.9c-7.9-8-12.8-19-12.8-31.2
		c0-12.2,4.9-23.2,12.8-31.2C262.9,131.2,273.8,126.3,285.8,126.3L285.8,126.3z M312.7,143.3c-6.9-6.9-16.4-11.2-26.8-11.2
		s-20,4.3-26.9,11.2c-6.9,7-11.1,16.5-11.1,27.1c0,10.6,4.3,20.2,11.1,27.1c6.9,6.9,16.4,11.2,26.9,11.2s20-4.3,26.8-11.2
		c6.9-7,11.1-16.5,11.1-27.1C323.8,159.8,319.6,150.2,312.7,143.3L312.7,143.3z"/>
	<path class="st5" d="M280.2,177.6v-2.2c0-1.9,0.4-3.6,1.2-5c0.8-1.4,2.3-2.9,4.4-4.5c2-1.5,3.4-2.7,4.1-3.6c0.7-0.9,1-1.9,1-3.1
		c0-1.3-0.5-2.2-1.4-2.9c-0.9-0.7-2.2-1-3.9-1c-2.9,0-6.3,1-10,2.9l-3.2-6.5c4.4-2.5,9-3.7,13.9-3.7c4,0,7.2,1,9.6,2.9
		s3.6,4.6,3.6,7.8c0,2.2-0.5,4.1-1.5,5.6c-1,1.6-2.8,3.3-5.6,5.3c-1.9,1.4-3.1,2.5-3.5,3.2c-0.5,0.7-0.8,1.7-0.8,2.9v1.8H280.2z
		 M279.3,187.7c0-1.7,0.4-2.9,1.3-3.8c0.9-0.9,2.2-1.3,3.9-1.3c1.6,0,2.9,0.5,3.8,1.3c0.9,0.9,1.3,2.1,1.3,3.7
		c0,1.6-0.5,2.8-1.4,3.7c-0.9,0.9-2.1,1.3-3.7,1.3c-1.6,0-2.9-0.4-3.8-1.3C279.8,190.6,279.3,189.3,279.3,187.7L279.3,187.7z"/>
	<path class="st5" d="M175.8,357.2V355c0-1.9,0.4-3.5,1.2-5c0.8-1.4,2.3-2.9,4.4-4.5c2.1-1.5,3.4-2.7,4.1-3.6c0.7-0.9,1-2,1-3.1
		c0-1.3-0.5-2.3-1.4-2.9c-0.9-0.7-2.2-1-3.9-1c-2.9,0-6.3,1-10,2.9l-3.2-6.5c4.4-2.5,9-3.7,13.9-3.7c4,0,7.2,1,9.6,2.9
		c2.4,1.9,3.5,4.6,3.5,7.8c0,2.2-0.5,4-1.4,5.6c-1,1.6-2.8,3.4-5.6,5.4c-1.9,1.4-3.1,2.5-3.6,3.2c-0.5,0.7-0.7,1.7-0.7,2.9v1.8
		H175.8z M174.9,367.3c0-1.7,0.5-2.9,1.3-3.8c0.9-0.9,2.2-1.3,3.8-1.3c1.6,0,2.9,0.4,3.8,1.3c0.9,0.9,1.3,2.1,1.3,3.7
		c0,1.6-0.5,2.8-1.4,3.7c-0.9,0.9-2.2,1.3-3.8,1.3c-1.6,0-2.9-0.4-3.8-1.3C175.3,370.1,174.9,368.9,174.9,367.3L174.9,367.3z"/>
	<path class="st5" d="M75.3,411.5v-2.2c0-1.9,0.4-3.6,1.2-5c0.8-1.4,2.3-2.9,4.4-4.5c2-1.5,3.4-2.7,4.1-3.6c0.7-0.9,1-2,1-3.1
		c0-1.3-0.5-2.3-1.4-2.9c-0.9-0.7-2.2-1-3.9-1c-2.9,0-6.3,1-10.1,2.9l-3.2-6.5c4.3-2.5,9-3.7,13.9-3.7c4,0,7.2,1,9.6,2.9
		c2.4,2,3.5,4.6,3.5,7.8c0,2.2-0.5,4-1.5,5.6c-1,1.6-2.8,3.4-5.6,5.3c-1.9,1.4-3.1,2.5-3.6,3.2c-0.5,0.7-0.7,1.7-0.7,2.9v1.8H75.3z
		 M74.4,421.6c0-1.7,0.5-2.9,1.3-3.8c0.9-0.8,2.2-1.3,3.8-1.3c1.6,0,2.9,0.4,3.8,1.3c0.9,0.9,1.3,2.1,1.3,3.7c0,1.5-0.5,2.8-1.3,3.7
		c-0.9,0.9-2.2,1.3-3.8,1.3c-1.6,0-2.9-0.4-3.8-1.3C74.8,424.5,74.4,423.2,74.4,421.6L74.4,421.6z"/>
	<path class="st5" d="M485.1,411.5v-2.2c0-1.9,0.4-3.6,1.2-5c0.8-1.4,2.3-2.9,4.4-4.5c2.1-1.5,3.4-2.7,4.1-3.6c0.7-0.9,1-2,1-3.1
		c0-1.3-0.5-2.3-1.4-2.9c-0.9-0.7-2.2-1-3.9-1c-2.9,0-6.3,1-10,2.9l-3.2-6.5c4.4-2.5,9-3.7,13.9-3.7c4,0,7.2,1,9.6,2.9
		c2.4,2,3.6,4.6,3.6,7.8c0,2.2-0.5,4-1.5,5.6s-2.8,3.4-5.6,5.3c-1.9,1.4-3.1,2.5-3.5,3.2c-0.5,0.7-0.8,1.7-0.8,2.9v1.8H485.1z
		 M484.2,421.6c0-1.7,0.4-2.9,1.3-3.8c0.9-0.8,2.2-1.3,3.9-1.3c1.6,0,2.9,0.4,3.8,1.3c0.9,0.9,1.3,2.1,1.3,3.7
		c0,1.5-0.5,2.8-1.4,3.7c-0.9,0.9-2.1,1.3-3.7,1.3c-1.6,0-2.9-0.4-3.8-1.3C484.7,424.5,484.2,423.2,484.2,421.6L484.2,421.6z"/>
	<path class="st5" d="M386.7,357.2V355c0-1.9,0.4-3.6,1.2-5c0.8-1.4,2.3-2.9,4.4-4.5c2-1.5,3.4-2.7,4.1-3.6c0.7-0.9,1-1.9,1-3.1
		c0-1.3-0.5-2.2-1.4-2.9c-0.9-0.7-2.2-1-3.9-1c-2.9,0-6.3,1-10,2.9l-3.2-6.5c4.4-2.5,9-3.7,13.9-3.7c4,0,7.3,1,9.6,2.9
		c2.4,1.9,3.5,4.6,3.5,7.8c0,2.2-0.5,4.1-1.4,5.6c-1,1.6-2.9,3.3-5.6,5.3c-1.9,1.4-3.1,2.5-3.6,3.2c-0.5,0.7-0.7,1.7-0.7,2.9v1.8
		H386.7z M385.8,367.3c0-1.7,0.5-2.9,1.3-3.8c0.9-0.9,2.2-1.3,3.8-1.3c1.6,0,2.9,0.5,3.8,1.3c0.9,0.9,1.3,2.1,1.3,3.7
		c0,1.6-0.4,2.8-1.3,3.7c-0.9,0.9-2.2,1.3-3.8,1.3c-1.6,0-2.9-0.4-3.8-1.3C386.2,370.2,385.8,368.9,385.8,367.3L385.8,367.3z"/>
	<path class="st5" d="M278.8,300.7v-2.2c0-1.1,0.1-2.1,0.3-3c0.2-0.9,0.6-1.8,1-2.7l0,0c0.5-0.8,1.1-1.6,1.9-2.5
		c0.8-0.8,1.8-1.6,2.9-2.4l0.1,0c0.9-0.7,1.8-1.3,2.4-1.9c0.6-0.5,1-1,1.3-1.4l0,0c0.2-0.3,0.4-0.7,0.5-1c0.1-0.4,0.2-0.8,0.2-1.2
		c0-0.8-0.3-1.4-0.8-1.7l0,0c-0.3-0.2-0.7-0.4-1.2-0.5c-0.5-0.1-1.2-0.2-1.9-0.2c-1.3,0-2.8,0.2-4.3,0.7c-1.6,0.5-3.3,1.2-5.1,2.1
		c-0.7,0.3-1.6,0.1-1.9-0.6l-3.2-6.5c-0.3-0.7-0.1-1.5,0.6-1.9c2.3-1.3,4.6-2.2,7-2.9c2.5-0.7,5-1,7.5-1c2.2,0,4.1,0.3,5.8,0.8
		c1.8,0.5,3.3,1.4,4.7,2.5c1.4,1.1,2.4,2.4,3.1,4c0.7,1.5,1,3.1,1,5c0,1.2-0.1,2.3-0.4,3.4c-0.3,1.1-0.7,2.1-1.3,3
		c-0.5,0.9-1.3,1.8-2.4,2.8l0,0c-1,0.9-2.2,1.9-3.6,2.9l0,0c-0.9,0.7-1.6,1.2-2.2,1.7c-0.5,0.5-0.9,0.8-1,1.1
		c-0.2,0.2-0.3,0.5-0.4,0.8c-0.1,0.3-0.1,0.7-0.1,1.2v1.8c0,0.8-0.6,1.4-1.4,1.4h-7.8C279.4,302.1,278.8,301.5,278.8,300.7
		L278.8,300.7z M281.7,298.5v0.7h4.9v-0.3c0-0.7,0.1-1.4,0.3-2c0.2-0.6,0.4-1.2,0.8-1.7c0.3-0.5,0.8-1,1.5-1.6
		c0.6-0.5,1.4-1.2,2.4-1.9l0.1-0.1c1.3-0.9,2.4-1.8,3.3-2.7l0,0c0.8-0.8,1.5-1.5,1.9-2.3c0.4-0.7,0.7-1.4,0.9-2.2
		c0.2-0.8,0.3-1.7,0.3-2.7c0-1.4-0.3-2.7-0.8-3.8c-0.5-1.1-1.2-2.1-2.3-2.9c-1-0.9-2.3-1.5-3.7-1.9c-1.5-0.5-3.1-0.7-5-0.7
		c-2.3,0-4.6,0.3-6.8,0.9c-1.8,0.5-3.5,1.1-5.2,2l2,4c1.5-0.7,2.9-1.3,4.3-1.7c1.8-0.5,3.5-0.8,5.1-0.8c1,0,1.8,0.1,2.6,0.3
		c0.8,0.2,1.5,0.5,2.1,0.9l0.1,0c1.3,1,2,2.3,2,4.1c0,0.7-0.1,1.4-0.3,2.1c-0.2,0.6-0.5,1.2-0.9,1.8l-0.1,0.1
		c-0.4,0.6-1,1.2-1.7,1.9c-0.7,0.6-1.6,1.3-2.7,2.1v0c-1,0.7-1.8,1.5-2.5,2.1c-0.7,0.7-1.1,1.3-1.5,1.9l0,0
		c-0.3,0.6-0.6,1.2-0.8,1.9C281.7,296.9,281.7,297.7,281.7,298.5L281.7,298.5z M277.9,310.8c0-1,0.1-1.9,0.4-2.7
		c0.3-0.8,0.8-1.5,1.4-2.1s1.3-1,2.2-1.3c0.8-0.3,1.7-0.4,2.7-0.4c1,0,1.8,0.1,2.6,0.4c0.9,0.3,1.6,0.7,2.2,1.3
		c0.6,0.6,1,1.3,1.3,2.1c0.3,0.8,0.4,1.7,0.4,2.6c0,0.9-0.1,1.8-0.4,2.6c-0.3,0.8-0.7,1.5-1.3,2.1l0,0c-0.6,0.6-1.3,1-2.2,1.3
		c-0.8,0.3-1.6,0.4-2.6,0.4c-1,0-1.9-0.1-2.6-0.4c-0.9-0.3-1.6-0.7-2.2-1.3c-0.6-0.6-1.1-1.3-1.4-2.1
		C278,312.7,277.9,311.8,277.9,310.8L277.9,310.8z M281,309.2c-0.2,0.5-0.3,1-0.3,1.7s0.1,1.2,0.3,1.7c0.1,0.4,0.4,0.8,0.7,1.1l0,0
		c0.3,0.3,0.7,0.5,1.1,0.7c0.5,0.2,1,0.2,1.7,0.2c0.7,0,1.2-0.1,1.7-0.2c0.4-0.2,0.8-0.4,1.1-0.7l0,0l0,0c0.3-0.3,0.5-0.7,0.7-1.1
		c0.2-0.5,0.3-1,0.3-1.6c0-0.6-0.1-1.2-0.2-1.7c-0.2-0.4-0.4-0.7-0.7-1c-0.3-0.3-0.7-0.5-1.1-0.7c-0.5-0.2-1-0.3-1.7-0.3
		c-0.7,0-1.3,0.1-1.8,0.3c-0.4,0.1-0.8,0.3-1.1,0.6C281.3,308.4,281.1,308.7,281,309.2L281,309.2z"/>
</g>
</svg>
