<?xml version="1.0" encoding="utf-8"?>
<!-- Generator: Adobe Illustrator 26.0.1, SVG Export Plug-In . SVG Version: 6.00 Build 0)  -->
<!DOCTYPE svg PUBLIC "-//W3C//DTD SVG 1.1//EN" "http://www.w3.org/Graphics/SVG/1.1/DTD/svg11.dtd" [
	<!ENTITY ns_extend "http://ns.adobe.com/Extensibility/1.0/">
	<!ENTITY ns_ai "http://ns.adobe.com/AdobeIllustrator/10.0/">
	<!ENTITY ns_graphs "http://ns.adobe.com/Graphs/1.0/">
	<!ENTITY ns_vars "http://ns.adobe.com/Variables/1.0/">
	<!ENTITY ns_imrep "http://ns.adobe.com/ImageReplacement/1.0/">
	<!ENTITY ns_sfw "http://ns.adobe.com/SaveForWeb/1.0/">
	<!ENTITY ns_custom "http://ns.adobe.com/GenericCustomNamespace/1.0/">
	<!ENTITY ns_adobe_xpath "http://ns.adobe.com/XPath/1.0/">
]>
<svg version="1.1" id="Слой_1" xmlns:x="&ns_extend;" xmlns:i="&ns_ai;" xmlns:graph="&ns_graphs;"
	 xmlns="http://www.w3.org/2000/svg" xmlns:xlink="http://www.w3.org/1999/xlink" x="0px" y="0px" width="569.6px" height="576px"
	 viewBox="0 0 569.6 576" style="enable-background:new 0 0 569.6 576;" xml:space="preserve">
<style type="text/css">
	.st0{fill-rule:evenodd;clip-rule:evenodd;fill:#E3EEFF;}
	.st1{fill-rule:evenodd;clip-rule:evenodd;fill:#FFFFFF;}
	.st2{fill-rule:evenodd;clip-rule:evenodd;fill:#FAFCFF;}
	.st3{fill-rule:evenodd;clip-rule:evenodd;fill:#D0E1FA;}
	.st4{fill-rule:evenodd;clip-rule:evenodd;fill:#C7DCFF;}
	.st5{fill-rule:evenodd;clip-rule:evenodd;fill:#CFE1FF;}
	.st6{fill:#B0CAFF;}
	.st7{fill:#71A1FA;}
	.st8{fill-rule:evenodd;clip-rule:evenodd;fill:#3DC7E0;}
	.st9{fill-rule:evenodd;clip-rule:evenodd;fill:#AECDFC;}
	.st10{fill-rule:evenodd;clip-rule:evenodd;fill:#C0D7FF;}
</style>
<metadata>
	<sfw  xmlns="&ns_sfw;">
		<slices></slices>
		<sliceSourceBounds  bottomLeftOrigin="true" height="576" width="569.6" x="-549.2" y="-239.8"></sliceSourceBounds>
	</sfw>
</metadata>
<g>
	<path class="st0" d="M287.3,576c155.5,0,282.3-129.4,282.3-288S442.7,0,287.3,0S5,129.4,5,288S131.8,576,287.3,576L287.3,576z"/>
	<path class="st1" d="M551.4,186.5C540.5,157.1,525,130,505.8,106c-65.4-41.2-147.2-28.4-217.3-62.2C247.8,24.1,226.6,18,188.1,18.4
		c-38.3,14.7-72.6,37.7-100.9,66.8c53.2-2.3,109.7,3.6,192.6,45.8C351.4,167.5,440,157,551.4,186.5L551.4,186.5z"/>
	<path class="st2" d="M543.7,408.3c10.7-23.6,18.3-48.9,22.5-75.3c-46.4-21-92.7-112.4-164.4-122.5C256.6,190,82.2,312.4,31.3,166.8
		C14.4,203.7,5,244.7,5,288c0,27.5,3.8,54.2,11,79.4c6.3,4.2,13.4,8.8,21.5,14.1c96.9,63.2,201.2,117.6,317.9,84.5
		C435.1,443.5,480.1,395.8,543.7,408.3L543.7,408.3z"/>
	<path class="st3" d="M287.3,576c121.7,0,225.9-79.3,265.4-189.9c-80.5-12.8-170.5-20-265.4-20s-184.8,7.2-265.4,20
		C61.4,496.7,165.5,576,287.3,576L287.3,576z"/>
	<path class="st4" d="M57.9,292.3c31.9,0,57.8-21.2,57.8-47.4c0-9.9-3.7-19.1-10-26.7l0,0c-8.1-8.7-13.2-21.3-13.2-35.3
		c0-14.8,9.8-15.3,9.8-31.3c0-17.1-17.8-27.8-17.8-47.6c0-3.5,0.4-6.9,1.2-10.1c1.8-4.6,2.7-9.7,2.7-15.1
		c0-20.1-13.7-36.4-30.5-36.4S27.3,58.6,27.3,78.7c0,5.4,1,10.5,2.7,15.1c0.8,3.2,1.2,6.6,1.2,10.1c0,19.8-17.8,30.5-17.8,47.6
		c0,15.9,9.8,16.5,9.8,31.3c0,14-5.1,26.6-13.2,35.3v0C3.7,225.8,0,235,0,244.9C0,271.1,25.9,292.3,57.9,292.3L57.9,292.3z"/>
	<path class="st5" d="M57.9,42.3c-16.9,0-30.5,16.3-30.5,36.4c0,5.4,1,10.5,2.7,15.1c0.8,3.2,1.2,6.6,1.2,10.1
		c0,19.8-17.8,30.5-17.8,47.6c0,15.9,9.8,16.5,9.8,31.3c0,14-5.1,26.6-13.2,35.3v0C3.7,225.8,0,235,0,244.9
		c0,26.2,25.9,47.4,57.9,47.4V42.3z"/>
	<rect x="56.8" y="42.3" class="st6" width="2.1" height="334.5"/>
	<path class="st6" d="M88.4,119.8l-31.2,30.5l1.5,1.5l30.8-30C89.1,121.2,88.6,120.4,88.4,119.8L88.4,119.8z M97.2,205.3
		c-0.3-0.7-0.6-1.4-0.9-2.1l-39.2,38.3l1.5,1.5L97.2,205.3z M82.6,57.4c-0.4-0.6-0.8-1.2-1.2-1.8L57.1,79.3l1.5,1.5L82.6,57.4z
		 M27.6,73.9c-0.1,0.9-0.2,1.9-0.2,2.8l29.8,29.1l1.5-1.5L27.6,73.9z M14.2,145.3c-0.2,0.8-0.4,1.6-0.5,2.5l43.5,42.4l1.5-1.5
		L14.2,145.3z M8.8,219.8c-0.5,0.6-0.9,1.1-1.3,1.7l49.6,48.4l1.5-1.5L8.8,219.8z"/>
	<path class="st6" d="M57.9,149.6l-0.7,0.7l0.7,0.8V149.6z M27.6,73.9c-0.1,0.9-0.2,1.9-0.2,2.8l29.8,29.1l0.7-0.8v-1.5L27.6,73.9z
		 M14.2,145.3c-0.2,0.8-0.4,1.6-0.5,2.5l43.5,42.4l0.7-0.8v-1.5L14.2,145.3z M8.8,219.8c-0.5,0.6-0.9,1.1-1.3,1.7l49.6,48.4l0.7-0.8
		v-1.5L8.8,219.8z M57.9,242.2v-1.5l-0.7,0.7L57.9,242.2z M57.9,80.1v-1.5l-0.7,0.7L57.9,80.1z"/>
	<path class="st4" d="M491,232.2c33.8,0,61.2-20.6,61.2-46.1c0-9.6-3.9-18.6-10.6-25.9l0-0.1c-8.6-8.4-14-20.6-14-34.3
		c0-4.4,0.6-8.7,1.6-12.8c2.4-5.8,3.8-12.3,3.8-19.1c0-25.5-18.9-46.1-42.1-46.1C467.8,48,449,68.6,449,94c0,6.8,1.4,13.3,3.8,19.1
		c1.1,4.1,1.6,8.4,1.6,12.8c0,13.6-5.4,25.9-14,34.3l0,0.1c-6.7,7.4-10.6,16.3-10.6,25.9C429.8,211.6,457.2,232.2,491,232.2
		L491,232.2z"/>
	<path class="st5" d="M491,48C467.8,48,449,68.6,449,94c0,6.8,1.4,13.3,3.8,19.1c1.1,4.1,1.6,8.4,1.6,12.8c0,13.6-5.4,25.9-14,34.3
		l0,0.1c-6.7,7.4-10.6,16.3-10.6,25.9c0,25.5,27.4,46.1,61.2,46.1V48z"/>
	<path class="st6" d="M489.6,48v93.4l-40-39c0.3,1.7,0.7,3.4,1.1,5l38.9,37.9v71.7l-53.1-51.9c-0.5,0.8-1,1.6-1.5,2.4l54.7,53.4
		v148.3h2.8V204.5l47.4-46.2c-0.6-0.7-1.2-1.4-1.8-2.2l-45.6,44.5v-89.3l37-36.1c-0.4-0.9-0.8-1.8-1.2-2.7l-35.8,34.9V48
		c-0.5,0-0.9,0-1.4,0C490.6,48,490.1,48,489.6,48L489.6,48z"/>
	<path class="st7" d="M62.7,386.1h221.7V280.2H167.6L62.7,386.1z M290.1,386.1h221.7L406.9,280.2H290.1V386.1z M287.9,152.6
		c0.8,0.2,1.4,0.7,1.8,1.3l230.8,233c0.6,0.5,1,1.3,1,2.2c0,1.6-1.2,2.9-2.8,2.9H287.3H55.9v0c-0.7,0-1.4-0.3-2-0.8
		c-1.1-1.1-1.1-2.9,0-4l110.3-111.5c0.1-0.1,0.2-0.2,0.3-0.3l120.6-121.9C285.9,152.5,287,152.3,287.9,152.6L287.9,152.6z
		 M290.1,162.4v112.1h111.1L290.1,162.4z M284.4,274.5V162L173.2,274.5H284.4z"/>
	<path class="st8" d="M164.7,237.3c22.8,0,41.3,18.7,41.3,41.7c0,23-18.5,41.7-41.3,41.7s-41.3-18.7-41.3-41.7
		C123.4,256,141.9,237.3,164.7,237.3L164.7,237.3z M287.3,113.6c22.8,0,41.3,18.7,41.3,41.7c0,23-18.5,41.7-41.3,41.7
		c-22.8,0-41.3-18.7-41.3-41.7C246,132.3,264.5,113.6,287.3,113.6L287.3,113.6z M55.9,347.3c22.8,0,41.3,18.7,41.3,41.7
		c0,23-18.5,41.7-41.3,41.7c-22.8,0-41.3-18.7-41.3-41.7C14.6,366,33.1,347.3,55.9,347.3L55.9,347.3z M287.3,347.3
		c22.8,0,41.3,18.7,41.3,41.7c0,23-18.5,41.7-41.3,41.7c-22.8,0-41.3-18.7-41.3-41.7C246,366,264.5,347.3,287.3,347.3L287.3,347.3z
		 M518.6,347.3c22.8,0,41.3,18.7,41.3,41.7c0,23-18.5,41.7-41.3,41.7c-22.8,0-41.3-18.7-41.3-41.7
		C477.4,366,495.8,347.3,518.6,347.3L518.6,347.3z M409.2,237.3c22.8,0,41.3,18.7,41.3,41.7c0,23-18.5,41.7-41.3,41.7
		c-22.8,0-41.3-18.7-41.3-41.7C367.9,256,386.4,237.3,409.2,237.3L409.2,237.3z M287.3,237.3c22.8,0,41.3,18.7,41.3,41.7
		c0,23-18.5,41.7-41.3,41.7c-22.8,0-41.3-18.7-41.3-41.7C246,256,264.5,237.3,287.3,237.3L287.3,237.3z"/>
	<path class="st7" d="M164.7,235.2c12,0,22.8,4.9,30.7,12.8c7.9,8,12.7,18.9,12.7,31c0,12.1-4.8,23.1-12.7,31s-18.7,12.9-30.7,12.9
		S141.8,318,134,310s-12.7-18.9-12.7-31c0-12.1,4.8-23,12.7-31C141.8,240.1,152.7,235.2,164.7,235.2L164.7,235.2z M192.4,251.1
		c-7.1-7.2-16.9-11.6-27.7-11.6c-10.8,0-20.6,4.4-27.7,11.6s-11.5,17-11.5,27.9c0,10.9,4.4,20.8,11.5,28s16.9,11.6,27.7,11.6
		c10.8,0,20.6-4.4,27.7-11.6c7.1-7.2,11.5-17,11.5-28C203.8,268.1,199.5,258.2,192.4,251.1L192.4,251.1z M287.3,111.5
		c12,0,22.8,4.9,30.7,12.9c7.9,7.9,12.7,18.9,12.7,31c0,12.1-4.9,23-12.7,31c-7.9,8-18.7,12.9-30.7,12.9c-12,0-22.8-4.9-30.7-12.9
		c-7.9-7.9-12.7-18.9-12.7-31c0-12.1,4.8-23.1,12.7-31C264.4,116.4,275.3,111.5,287.3,111.5L287.3,111.5z M315,127.3
		c-7.1-7.2-16.9-11.6-27.7-11.6c-10.8,0-20.6,4.4-27.7,11.6c-7.1,7.2-11.5,17-11.5,28c0,10.9,4.4,20.8,11.5,27.9
		c7.1,7.2,16.9,11.6,27.7,11.6c10.8,0,20.6-4.4,27.7-11.6c7.1-7.2,11.5-17,11.5-27.9C326.4,144.4,322,134.5,315,127.3L315,127.3z
		 M55.9,345.1c12,0,22.8,4.9,30.7,12.9s12.7,18.9,12.7,31c0,12.1-4.9,23-12.7,31c-7.9,8-18.7,12.9-30.7,12.9s-22.8-4.9-30.7-12.9
		c-7.9-7.9-12.7-18.9-12.7-31c0-12.1,4.8-23.1,12.7-31C33.1,350.1,43.9,345.1,55.9,345.1L55.9,345.1z M83.6,361
		c-7.1-7.2-16.9-11.6-27.7-11.6c-10.8,0-20.6,4.4-27.7,11.6c-7.1,7.2-11.5,17-11.5,28c0,10.9,4.4,20.8,11.5,27.9
		c7.1,7.2,16.9,11.6,27.7,11.6c10.8,0,20.6-4.4,27.7-11.6s11.5-17,11.5-27.9C95.1,378.1,90.7,368.2,83.6,361L83.6,361z M287.3,345.1
		c12,0,22.8,4.9,30.7,12.9c7.9,7.9,12.7,18.9,12.7,31c0,12.1-4.9,23-12.7,31c-7.9,8-18.7,12.9-30.7,12.9c-12,0-22.8-4.9-30.7-12.9
		c-7.9-7.9-12.7-18.9-12.7-31c0-12.1,4.8-23.1,12.7-31C264.4,350.1,275.3,345.1,287.3,345.1L287.3,345.1z M315,361
		c-7.1-7.2-16.9-11.6-27.7-11.6c-10.8,0-20.6,4.4-27.7,11.6c-7.1,7.2-11.5,17-11.5,28c0,10.9,4.4,20.8,11.5,27.9
		c7.1,7.2,16.9,11.6,27.7,11.6c10.8,0,20.6-4.4,27.7-11.6c7.1-7.2,11.5-17,11.5-27.9C326.4,378.1,322,368.2,315,361L315,361z
		 M518.6,345.1c12,0,22.8,4.9,30.7,12.9c7.9,7.9,12.7,18.9,12.7,31c0,12.1-4.9,23-12.7,31c-7.9,8-18.7,12.9-30.7,12.9
		c-12,0-22.8-4.9-30.7-12.9c-7.9-7.9-12.7-18.9-12.7-31c0-12.1,4.8-23.1,12.7-31C495.8,350.1,506.6,345.1,518.6,345.1L518.6,345.1z
		 M546.3,361c-7.1-7.2-16.9-11.6-27.7-11.6c-10.8,0-20.6,4.4-27.7,11.6c-7.1,7.2-11.5,17-11.5,28c0,10.9,4.4,20.8,11.5,27.9
		c7.1,7.2,16.9,11.6,27.7,11.6c10.8,0,20.6-4.4,27.7-11.6s11.5-17,11.5-27.9C557.8,378.1,553.4,368.2,546.3,361L546.3,361z
		 M409.2,235.2c12,0,22.8,4.9,30.7,12.8c7.9,8,12.7,18.9,12.7,31c0,12.1-4.9,23.1-12.7,31c-7.9,7.9-18.7,12.9-30.7,12.9
		c-12,0-22.8-4.9-30.7-12.9c-7.9-7.9-12.7-18.9-12.7-31c0-12.1,4.8-23,12.7-31C386.3,240.1,397.2,235.2,409.2,235.2L409.2,235.2z
		 M436.8,251.1c-7.1-7.2-16.9-11.6-27.7-11.6c-10.8,0-20.6,4.4-27.7,11.6c-7.1,7.2-11.5,17-11.5,27.9c0,10.9,4.4,20.8,11.5,28
		c7.1,7.2,16.9,11.6,27.7,11.6c10.8,0,20.6-4.4,27.7-11.6s11.5-17,11.5-28C448.3,268.1,443.9,258.2,436.8,251.1L436.8,251.1z
		 M287.3,235.2c12,0,22.8,4.9,30.7,12.8c7.9,8,12.7,18.9,12.7,31c0,12.1-4.9,23.1-12.7,31c-7.9,7.9-18.7,12.9-30.7,12.9
		c-12,0-22.8-4.9-30.7-12.9c-7.9-7.9-12.7-18.9-12.7-31c0-12.1,4.8-23,12.7-31C264.4,240.1,275.3,235.2,287.3,235.2L287.3,235.2z
		 M315,251.1c-7.1-7.2-16.9-11.6-27.7-11.6c-10.8,0-20.6,4.4-27.7,11.6c-7.1,7.2-11.5,17-11.5,27.9c0,10.9,4.4,20.8,11.5,28
		c7.1,7.2,16.9,11.6,27.7,11.6c10.8,0,20.6-4.4,27.7-11.6c7.1-7.2,11.5-17,11.5-28C326.4,268.1,322,258.2,315,251.1L315,251.1z"/>
	<path class="st9" d="M346.7,525.7c7.5,0,14,4.8,16.5,11.7h-33.1C332.6,530.5,339.1,525.7,346.7,525.7L346.7,525.7z"/>
	<path class="st9" d="M405.2,510.1c3.3,0,6.1,2.1,7.3,5.1H398C399.1,512.3,401.9,510.1,405.2,510.1L405.2,510.1z"/>
	<path class="st9" d="M392.1,435.4c4.8,0,8.9,3.1,10.5,7.4h-21C383.2,438.4,387.3,435.4,392.1,435.4L392.1,435.4z"/>
	<path class="st9" d="M350.8,476.1c7.6,0,14,4.9,16.5,11.7h-33.1C336.8,481,343.3,476.1,350.8,476.1L350.8,476.1z"/>
	<path class="st9" d="M285.2,448.3c7.6,0,14,4.8,16.5,11.7h-33.1C271.2,453.2,277.7,448.3,285.2,448.3L285.2,448.3z"/>
	<path class="st9" d="M391.4,465.1c3.3,0,6.2,2.1,7.3,5.1h-14.5C385.2,467.2,388.1,465.1,391.4,465.1L391.4,465.1z"/>
	<path class="st9" d="M328.7,446.3c3.3,0,6.2,2.1,7.3,5.1h-14.5C322.6,448.5,325.4,446.3,328.7,446.3L328.7,446.3z"/>
	<path class="st9" d="M232.9,479.9c7.6,0,14,4.8,16.5,11.7h-33.1C218.9,484.7,225.3,479.9,232.9,479.9L232.9,479.9z"/>
	<path class="st9" d="M296.3,482c4.8,0,8.9,3.1,10.5,7.4h-21.1C287.4,485.1,291.5,482,296.3,482L296.3,482z"/>
	<path class="st9" d="M285.2,513.6c4.8,0,8.9,3.1,10.5,7.4h-21C276.3,516.7,280.4,513.6,285.2,513.6L285.2,513.6z"/>
	<path class="st9" d="M220.4,448.2c4.8,0,8.9,3,10.5,7.4h-21C211.4,451.2,215.5,448.2,220.4,448.2L220.4,448.2z"/>
	<path class="st9" d="M84.4,444.5c7.6,0,14,4.9,16.5,11.7H67.8C70.4,449.3,76.8,444.5,84.4,444.5L84.4,444.5z"/>
	<path class="st9" d="M157.5,471.7c3.3,0,6.2,2.1,7.3,5.1h-14.5C151.4,473.9,154.2,471.7,157.5,471.7L157.5,471.7z"/>
	<path class="st9" d="M443.1,457.8c3.3,0,6.2,2.1,7.3,5.1h-14.5C437,459.9,439.8,457.8,443.1,457.8L443.1,457.8z"/>
	<path class="st9" d="M158,494.9c7.6,0,14,4.8,16.6,11.7h-33.1C144,499.7,150.4,494.9,158,494.9L158,494.9z"/>
	<path class="st9" d="M469.6,471.9c4.8,0,8.9,3.1,10.5,7.4h-21C460.7,475,464.8,471.9,469.6,471.9L469.6,471.9z"/>
	<path class="st9" d="M440.2,493.6c7.6,0,14,4.9,16.5,11.7h-33.1C426.2,498.5,432.7,493.6,440.2,493.6L440.2,493.6z"/>
	<path class="st9" d="M362.5,408.2c7.6,0,14,4.9,16.5,11.7H346C348.5,413,354.9,408.2,362.5,408.2L362.5,408.2z"/>
	<path class="st9" d="M231.1,522.3c3.3,0,6.2,2.1,7.3,5.1h-14.5C225,524.4,227.8,522.3,231.1,522.3L231.1,522.3z"/>
	<path class="st9" d="M165.2,445c3.3,0,6.2,2.1,7.3,5.1H158C159.1,447.1,161.9,445,165.2,445L165.2,445z"/>
	<path class="st9" d="M479.3,431.9c3.3,0,6.2,2.1,7.3,5.1h-14.5C473.2,434,476,431.9,479.3,431.9L479.3,431.9z"/>
	<path class="st9" d="M193.3,415.3c3.3,0,6.1,2.1,7.3,5.1H186C187.1,417.4,190,415.3,193.3,415.3L193.3,415.3z"/>
	<path class="st9" d="M444.9,409.6c3.3,0,6.1,2.1,7.3,5.1h-14.5C438.7,411.7,441.6,409.6,444.9,409.6L444.9,409.6z"/>
	<path class="st9" d="M107.5,426.1c3.3,0,6.2,2.1,7.3,5.1h-14.5C101.3,428.3,104.2,426.1,107.5,426.1L107.5,426.1z"/>
	<path class="st9" d="M438.7,421.1c4.8,0,8.9,3.1,10.5,7.4h-21C429.8,424.1,433.9,421.1,438.7,421.1L438.7,421.1z"/>
	<path class="st9" d="M270.7,548.2c7.6,0,14,4.8,16.5,11.7h-33.1C256.7,553.1,263.1,548.2,270.7,548.2L270.7,548.2z"/>
	<path class="st9" d="M145.2,401.3c7.6,0,14,4.9,16.5,11.7h-33.1C131.2,406.1,137.7,401.3,145.2,401.3L145.2,401.3z"/>
	<path class="st9" d="M104,474.7c4.8,0,8.9,3.1,10.5,7.4h-21C95.1,477.7,99.2,474.7,104,474.7L104,474.7z"/>
	<path class="st9" d="M177.7,531.4c4.8,0,8.9,3,10.5,7.4h-21C168.8,534.5,172.9,531.4,177.7,531.4L177.7,531.4z"/>
	<path class="st9" d="M332.5,552.9c4.8,0,8.9,3.1,10.5,7.4h-21C323.6,555.9,327.7,552.9,332.5,552.9L332.5,552.9z"/>
	<path class="st10" d="M166.2,142.8c7-0.7,11.6,2.2,15.2,7.1c2.3-4.8,6.6-9.2,13.6-9.9c3.1-0.3,6.1,0.4,8.6,1.9
		c-1.4-0.2,0.4-0.5-4.4-0.1c-4.8,0.5-14.5,7.2-17.2,14.3c-4.2-6.7-11.8-11.5-19.6-10.7c-1.5,0.1-2.9,0.4-4.3,0.9
		C160.3,144.4,163,143.1,166.2,142.8L166.2,142.8z"/>
</g>
</svg>
