<?xml version="1.0" encoding="utf-8"?>
<!-- Generator: Adobe Illustrator 16.0.0, SVG Export Plug-In . SVG Version: 6.00 Build 0)  -->
<!DOCTYPE svg PUBLIC "-//W3C//DTD SVG 1.1//EN" "http://www.w3.org/Graphics/SVG/1.1/DTD/svg11.dtd">
<svg version="1.1" id="Layer_1" xmlns="http://www.w3.org/2000/svg" xmlns:xlink="http://www.w3.org/1999/xlink" x="0px" y="0px"
	 width="170.22px" height="271.33px" viewBox="0 0 170.22 271.33" enable-background="new 0 0 170.22 271.33" xml:space="preserve">
<g>
	<path fill-rule="evenodd" clip-rule="evenodd" fill="#AAB1B1" d="M135.837,159.586L83.48,88.554l86.739,12.826l0,0l0,0
		C150.804,115.981,139.097,137.168,135.837,159.586L135.837,159.586z"/>
	<path fill-rule="evenodd" clip-rule="evenodd" fill="#939C9C" d="M135.837,159.586L83.48,88.554l63.808,38.451
		C141.335,137.082,137.479,148.162,135.837,159.586L135.837,159.586z"/>
	<path fill-rule="evenodd" clip-rule="evenodd" fill="#FFC00C" d="M167.755,64.189L83.48,88.554l42.548-77.417l0,0l0,0
		C132.69,34.643,148.14,53.195,167.755,64.189L167.755,64.189z"/>
	<path fill-rule="evenodd" clip-rule="evenodd" fill="#FFAA00" d="M167.755,64.189L83.48,88.554l58.167-46.667
		C148.876,51.048,157.776,58.606,167.755,64.189L167.755,64.189z"/>
	<path fill-rule="evenodd" clip-rule="evenodd" fill="#AAB1B1" d="M83.424,0l0.057,88.554L21.43,25.968l0,0l0,0
		C45.667,25.968,67.578,16.033,83.424,0L83.424,0z"/>
	<path fill-rule="evenodd" clip-rule="evenodd" fill="#939C9C" d="M83.424,0l0.057,88.554L54.992,19.24
		C65.707,14.745,75.345,8.16,83.424,0L83.424,0z"/>
	<path fill-rule="evenodd" clip-rule="evenodd" fill="#FFC00C" d="M5.471,128.979L83.48,88.554L0,61.441l0,0l0,0
		C11.055,83.2,12.331,107.421,5.471,128.979L5.471,128.979z"/>
	<path fill-rule="evenodd" clip-rule="evenodd" fill="#FFAA00" d="M5.471,128.979L83.48,88.554L9.411,94.652
		C10.347,106.333,8.958,118.014,5.471,128.979L5.471,128.979z"/>
	<polygon fill-rule="evenodd" clip-rule="evenodd" fill="#AECA00" points="84.586,91.159 90.481,179.513 85.238,179.885 
		79.342,91.531 	"/>
	<polygon fill-rule="evenodd" clip-rule="evenodd" fill="#9FB900" points="85.323,186.24 55.502,269.526 60.435,271.33 
		90.255,188.044 	"/>
	<path fill-rule="evenodd" clip-rule="evenodd" fill="#9FB900" d="M87.222,183.206c-24.151-1.489-46.629,7.071-63.439,22.103
		C47.962,206.797,70.441,198.236,87.222,183.206L87.222,183.206z"/>
	<path fill-rule="evenodd" clip-rule="evenodd" fill="#AECA00" d="M26.306,154.775c24.208,0.974,45.694,11.768,60.916,28.431
		C63.042,182.203,41.528,171.41,26.306,154.775L26.306,154.775z"/>
	<path fill-rule="evenodd" clip-rule="evenodd" fill="#AECA00" d="M150.86,161.676c-24.152-1.689-46.688,6.642-63.639,21.53
		C111.374,184.895,133.937,176.563,150.86,161.676L150.86,161.676z"/>
	<path fill-rule="evenodd" clip-rule="evenodd" fill="#9FB900" d="M87.222,183.206c24.18,1.202,45.582,12.196,60.662,29.002
		C123.704,211.006,102.274,200.012,87.222,183.206L87.222,183.206z"/>
</g>
</svg>
