<?xml version="1.0" encoding="utf-8"?>
<!-- Generator: Adobe Illustrator 26.0.1, SVG Export Plug-In . SVG Version: 6.00 Build 0)  -->
<!DOCTYPE svg PUBLIC "-//W3C//DTD SVG 1.1//EN" "http://www.w3.org/Graphics/SVG/1.1/DTD/svg11.dtd" [
	<!ENTITY ns_extend "http://ns.adobe.com/Extensibility/1.0/">
	<!ENTITY ns_ai "http://ns.adobe.com/AdobeIllustrator/10.0/">
	<!ENTITY ns_graphs "http://ns.adobe.com/Graphs/1.0/">
	<!ENTITY ns_vars "http://ns.adobe.com/Variables/1.0/">
	<!ENTITY ns_imrep "http://ns.adobe.com/ImageReplacement/1.0/">
	<!ENTITY ns_sfw "http://ns.adobe.com/SaveForWeb/1.0/">
	<!ENTITY ns_custom "http://ns.adobe.com/GenericCustomNamespace/1.0/">
	<!ENTITY ns_adobe_xpath "http://ns.adobe.com/XPath/1.0/">
]>
<svg version="1.1" id="Слой_1" xmlns:x="&ns_extend;" xmlns:i="&ns_ai;" xmlns:graph="&ns_graphs;"
	 xmlns="http://www.w3.org/2000/svg" xmlns:xlink="http://www.w3.org/1999/xlink" x="0px" y="0px" width="576px" height="587.6px"
	 viewBox="0 0 576 587.6" style="enable-background:new 0 0 576 587.6;" xml:space="preserve">
<style type="text/css">
	.st0{fill-rule:evenodd;clip-rule:evenodd;fill:#E3EEFF;}
	.st1{fill-rule:evenodd;clip-rule:evenodd;fill:#FFD500;}
	.st2{fill:#FFFFFF;}
</style>
<metadata>
	<sfw  xmlns="&ns_sfw;">
		<slices></slices>
		<sliceSourceBounds  bottomLeftOrigin="true" height="587.6" width="576" x="185.5" y="-18.2"></sliceSourceBounds>
	</sfw>
</metadata>
<g>
	<path class="st0" d="M288,587.6c158.6,0,288-132,288-293.8C576,132,446.6,0,288,0C129.4,0,0,132,0,293.8
		C0,455.6,129.4,587.6,288,587.6L288,587.6z"/>
	<rect x="161.7" y="32.4" class="st1" width="252.6" height="255.2"/>
	<path class="st2" d="M161.7,31.3h51.6v53.2h-52.6V31.3H161.7z M211.2,33.4h-48.4v48.9h48.4V33.4z"/>
	<path class="st2" d="M161.7,82.3h51.6v53.2h-52.6V82.3H161.7z M211.2,84.5h-48.4v48.9h48.4V84.5z"/>
	<path class="st2" d="M161.7,133.3h51.6v53.2h-52.6v-53.2H161.7z M211.2,135.5h-48.4v48.9h48.4V135.5z"/>
	<path class="st2" d="M161.7,184.4h51.6v53.2h-52.6v-53.2H161.7z M211.2,186.5h-48.4v48.9h48.4V186.5z"/>
	<path class="st2" d="M161.7,235.4h51.6v53.2h-52.6v-53.2H161.7z M211.2,237.5h-48.4v48.9h48.4V237.5z"/>
	<path class="st2" d="M212.2,31.3h51.6v53.2h-52.6V31.3H212.2z M261.7,33.4h-48.4v48.9h48.4V33.4z"/>
	<path class="st2" d="M212.2,82.3h51.6v53.2h-52.6V82.3H212.2z M261.7,84.5h-48.4v48.9h48.4V84.5z"/>
	<path class="st2" d="M212.2,133.3h51.6v53.2h-52.6v-53.2H212.2z M261.7,135.5h-48.4v48.9h48.4V135.5z"/>
	<path class="st2" d="M212.2,184.4h51.6v53.2h-52.6v-53.2H212.2z M261.7,186.5h-48.4v48.9h48.4V186.5z"/>
	<path class="st2" d="M212.2,235.4h51.6v53.2h-52.6v-53.2H212.2z M261.7,237.5h-48.4v48.9h48.4V237.5z"/>
	<path class="st2" d="M262.7,31.3h51.6v53.2h-52.6V31.3H262.7z M312.2,33.4h-48.4v48.9h48.4V33.4z"/>
	<path class="st2" d="M262.7,82.3h51.6v53.2h-52.6V82.3H262.7z M312.2,84.5h-48.4v48.9h48.4V84.5z"/>
	<path class="st2" d="M262.7,133.3h51.6v53.2h-52.6v-53.2H262.7z M312.2,135.5h-48.4v48.9h48.4V135.5z"/>
	<path class="st2" d="M262.7,184.4h51.6v53.2h-52.6v-53.2H262.7z M312.2,186.5h-48.4v48.9h48.4V186.5z"/>
	<path class="st2" d="M262.7,235.4h51.6v53.2h-52.6v-53.2H262.7z M312.2,237.5h-48.4v48.9h48.4V237.5z"/>
	<path class="st2" d="M313.3,31.3h51.6v53.2h-52.7V31.3H313.3z M362.7,33.4h-48.4v48.9h48.4V33.4z"/>
	<path class="st2" d="M313.3,82.3h51.6v53.2h-52.7V82.3H313.3z M362.7,84.5h-48.4v48.9h48.4V84.5z"/>
	<path class="st2" d="M313.3,133.3h51.6v53.2h-52.7v-53.2H313.3z M362.7,135.5h-48.4v48.9h48.4V135.5z"/>
	<path class="st2" d="M313.3,184.4h51.6v53.2h-52.7v-53.2H313.3z M362.7,186.5h-48.4v48.9h48.4V186.5z"/>
	<path class="st2" d="M313.3,235.4h51.6v53.2h-52.7v-53.2H313.3z M362.7,237.5h-48.4v48.9h48.4V237.5z"/>
	<path class="st2" d="M363.8,31.3h51.6v53.2h-52.6V31.3H363.8z M413.2,33.4h-48.4v48.9h48.4V33.4z"/>
	<path class="st2" d="M363.8,82.3h51.6v53.2h-52.6V82.3H363.8z M413.2,84.5h-48.4v48.9h48.4V84.5z"/>
	<path class="st2" d="M363.8,133.3h51.6v53.2h-52.6v-53.2H363.8z M413.2,135.5h-48.4v48.9h48.4V135.5z"/>
	<path class="st2" d="M363.8,184.4h51.6v53.2h-52.6v-53.2H363.8z M413.2,186.5h-48.4v48.9h48.4V186.5z"/>
	<path class="st2" d="M363.8,235.4h51.6v53.2h-52.6v-53.2H363.8z M413.2,237.5h-48.4v48.9h48.4V237.5z"/>
	<rect x="85.9" y="338.5" class="st1" width="202.1" height="204.1"/>
	<path class="st2" d="M85.9,337.4h51.6v53.2c-17.6,0-35.1,0-52.7,0v-53.2H85.9z M135.4,339.6H87v48.9h48.4V339.6z"/>
	<path class="st2" d="M85.9,388.5h51.6v53.2H84.8v-53.2H85.9z M135.4,390.6H87v48.9h48.4V390.6z"/>
	<path class="st2" d="M85.9,439.5h51.6v53.2c-17.6,0-35.1,0-52.7,0v-53.2H85.9z M135.4,441.7H87v48.9h48.4V441.7z"/>
	<path class="st2" d="M85.9,490.5h51.6v53.2H84.8v-53.2H85.9z M135.4,492.7H87v48.9h48.4V492.7z"/>
	<path class="st2" d="M136.4,337.4H188c0,17.7,0,35.4,0,53.2c-17.5,0-35.1,0-52.6,0v-53.2H136.4z M185.9,339.6h-48.4v48.9h48.4
		V339.6z"/>
	<path class="st2" d="M136.4,388.5H188v53.2h-52.6v-53.2H136.4z M185.9,390.6h-48.4v48.9h48.4V390.6z"/>
	<path class="st2" d="M136.4,439.5H188c0,17.7,0,35.4,0,53.2c-17.5,0-35.1,0-52.6,0v-53.2H136.4z M185.9,441.7h-48.4v48.9h48.4
		V441.7z"/>
	<path class="st2" d="M136.4,490.5H188c0,17.7,0,35.4,0,53.2h-52.6v-53.2H136.4z M185.9,492.7h-48.4v48.9h48.4V492.7z"/>
	<path class="st2" d="M186.9,337.4h51.6v53.2h-52.6v-53.2H186.9z M236.4,339.6H188v48.9h48.4V339.6z"/>
	<path class="st2" d="M186.9,388.5h51.6v53.2h-52.6v-53.2H186.9z M236.4,390.6H188v48.9h48.4V390.6z"/>
	<path class="st2" d="M186.9,439.5h51.6v53.2h-52.6v-53.2H186.9z M236.4,441.7H188v48.9h48.4V441.7z"/>
	<path class="st2" d="M186.9,490.5h51.6v53.2h-52.6v-53.2H186.9z M236.4,492.7H188v48.9h48.4V492.7z"/>
	<path class="st2" d="M237.5,337.4H289v53.2c-17.5,0-35.1,0-52.6,0v-53.2H237.5z M286.9,339.6h-48.4v48.9h48.4V339.6z"/>
	<path class="st2" d="M237.5,388.5H289v53.2h-52.6v-53.2H237.5z M286.9,390.6h-48.4v48.9h48.4V390.6z"/>
	<path class="st2" d="M237.5,439.5H289v53.2c-17.5,0-35.1,0-52.6,0v-53.2H237.5z M286.9,441.7h-48.4v48.9h48.4V441.7z"/>
	<path class="st2" d="M237.5,490.5H289v53.2h-52.6v-53.2H237.5z M286.9,492.7h-48.4v48.9h48.4V492.7z"/>
	<rect x="338.5" y="364" class="st1" width="151.6" height="153.1"/>
	<path class="st2" d="M338.5,362.9h51.6v53.2h-52.6v-53.2H338.5z M388,365.1h-48.4V414H388V365.1z"/>
	<path class="st2" d="M338.5,414h51.6v53.2h-52.6V414H338.5z M388,416.1h-48.4V465H388V416.1z"/>
	<path class="st2" d="M338.5,465h51.6v53.2c-17.5,0-35.1,0-52.6,0V465H338.5z M388,467.2h-48.4V516H388V467.2z"/>
	<path class="st2" d="M389,362.9h51.6v53.2H388v-53.2H389z M438.5,365.1h-48.4V414h48.4V365.1z"/>
	<path class="st2" d="M389,414h51.6v53.2H388V414H389z M438.5,416.1h-48.4V465h48.4V416.1z"/>
	<path class="st2" d="M389,465h51.6v53.2c-17.5,0-35.1,0-52.6,0V465H389z M438.5,467.2h-48.4V516h48.4V467.2z"/>
	<path class="st2" d="M439.6,362.9h51.6v53.2h-52.6v-53.2H439.6z M489,365.1h-48.4V414H489V365.1z"/>
	<path class="st2" d="M439.6,414h51.6v53.2h-52.6V414H439.6z M489,416.1h-48.4V465H489V416.1z"/>
	<path class="st2" d="M439.6,465h51.6v53.2c-17.5,0-35.1,0-52.6,0V465H439.6z M489,467.2h-48.4V516H489V467.2z"/>
	<path class="st2" d="M161.7,25.6h253.7c3.1,0,5.7,2.5,5.7,5.7v257.3c0,3.1-2.6,5.7-5.7,5.7H161.7c-3.1,0-5.7-2.6-5.7-5.7V31.3
		C156,28.1,158.6,25.6,161.7,25.6L161.7,25.6z M409.7,37H167.4v245.8h242.3V37z"/>
	<path class="st2" d="M84.8,331.7h203.4c3.1,0,5.7,2.6,5.7,5.7v206.3c0,3.2-2.5,5.7-5.7,5.7H84.8c-3.1,0-5.7-2.5-5.7-5.7V337.4
		C79.2,334.3,81.7,331.7,84.8,331.7L84.8,331.7z M282.5,343.2h-192V538h192V343.2z"/>
	<path class="st2" d="M338.5,358.3h152c3.1,0,5.7,2.5,5.7,5.7v154.1c0,3.2-2.6,5.7-5.7,5.7h-152c-3.1,0-5.7-2.5-5.7-5.7V364
		C332.8,360.9,335.4,358.3,338.5,358.3L338.5,358.3z M484.8,369.8H344.2v142.7h140.7V369.8z"/>
</g>
</svg>
