<?xml version="1.0" encoding="utf-8"?>
<!-- Generator: Adobe Illustrator 26.0.1, SVG Export Plug-In . SVG Version: 6.00 Build 0)  -->
<!DOCTYPE svg PUBLIC "-//W3C//DTD SVG 1.1//EN" "http://www.w3.org/Graphics/SVG/1.1/DTD/svg11.dtd" [
	<!ENTITY ns_extend "http://ns.adobe.com/Extensibility/1.0/">
	<!ENTITY ns_ai "http://ns.adobe.com/AdobeIllustrator/10.0/">
	<!ENTITY ns_graphs "http://ns.adobe.com/Graphs/1.0/">
	<!ENTITY ns_vars "http://ns.adobe.com/Variables/1.0/">
	<!ENTITY ns_imrep "http://ns.adobe.com/ImageReplacement/1.0/">
	<!ENTITY ns_sfw "http://ns.adobe.com/SaveForWeb/1.0/">
	<!ENTITY ns_custom "http://ns.adobe.com/GenericCustomNamespace/1.0/">
	<!ENTITY ns_adobe_xpath "http://ns.adobe.com/XPath/1.0/">
]>
<svg version="1.1" id="Слой_1" xmlns:x="&ns_extend;" xmlns:i="&ns_ai;" xmlns:graph="&ns_graphs;"
	 xmlns="http://www.w3.org/2000/svg" xmlns:xlink="http://www.w3.org/1999/xlink" x="0px" y="0px" width="559.4px" height="570.6px"
	 viewBox="0 0 559.4 570.6" style="enable-background:new 0 0 559.4 570.6;" xml:space="preserve">
<style type="text/css">
	.st0{fill-rule:evenodd;clip-rule:evenodd;fill:#E8F1FF;}
	.st1{fill-rule:evenodd;clip-rule:evenodd;fill:#FFFFFF;}
	.st2{fill-rule:evenodd;clip-rule:evenodd;fill:#21B892;}
	.st3{fill-rule:evenodd;clip-rule:evenodd;fill:#2DC49E;}
	.st4{fill:#0FA17C;}
	.st5{fill-rule:evenodd;clip-rule:evenodd;fill:#04C292;}
	.st6{fill-rule:evenodd;clip-rule:evenodd;fill:#19D1A3;}
	.st7{fill-rule:evenodd;clip-rule:evenodd;fill:#2EDBB0;}
	.st8{fill:#548DF7;}
	.st9{fill:#FFFFFF;}
	.st10{fill-rule:evenodd;clip-rule:evenodd;fill:#1AB890;}
	.st11{fill-rule:evenodd;clip-rule:evenodd;fill:#22BA94;}
	.st12{fill-rule:evenodd;clip-rule:evenodd;fill:#12B38B;}
</style>
<metadata>
	<sfw  xmlns="&ns_sfw;">
		<slices></slices>
		<sliceSourceBounds  bottomLeftOrigin="true" height="570.6" width="559.4" x="-440.2" y="-250.6"></sliceSourceBounds>
	</sfw>
</metadata>
<g>
	<path class="st0" d="M279.7,570.6c154,0,279.7-128.2,279.7-285.3C559.4,128.2,433.7,0,279.7,0S0,128.2,0,285.3
		C0,442.5,125.7,570.6,279.7,570.6L279.7,570.6z"/>
	<path class="st1" d="M510.2,124c-8.9-13.2-18.9-25.7-29.8-37.1c-24.8-0.7-47.7-4.2-66.5-16.9C350.1,26.9,271,44.9,244,6
		c-0.8-1.1-1.6-2.2-2.5-3.3c-34.7,4.9-67.4,16.3-96.8,32.9c65.6,17.7,14.9-2.7,98.5,39.3c75.7,38.1,157.3,70.9,248.5,51
		C497.4,124.6,503.6,124.1,510.2,124L510.2,124z M64.6,103.3c-14.1,17.3-26.3,36.4-36.1,56.9c4.7,1,8.7,1.7,11.9,2.1
		c127.6,15.5,71,0.4,192.9,43.1c282.2,98.7,196.8-17.3,23-41.7C179,152.8,119.8,127,64.6,103.3L64.6,103.3z"/>
	<path class="st2" d="M73.8,173.2c-19.7,0-35.7-12.1-35.7-26.9c0-5.6,2.3-10.8,6.2-15.1v0c5-4.9,8.1-12.1,8.1-20
		c0-2.6-0.3-5.1-0.9-7.4c-1.4-3.4-2.2-7.2-2.2-11.2c0-14.9,11-26.9,24.5-26.9s24.5,12.1,24.5,26.9c0,4-0.8,7.8-2.2,11.2
		c-0.6,2.3-0.9,4.9-0.9,7.4c0,7.9,3.1,15.1,8.1,20v0c3.9,4.3,6.2,9.5,6.2,15.1C109.6,161.1,93.5,173.2,73.8,173.2L73.8,173.2z"/>
	<path class="st3" d="M73.8,65.6c13.5,0,24.5,12.1,24.5,26.9c0,4-0.8,7.8-2.2,11.2c-0.6,2.3-0.9,4.9-0.9,7.4c0,7.9,3.1,15.1,8.1,20
		v0c3.9,4.3,6.2,9.5,6.2,15.1c0,14.9-16,26.9-35.7,26.9V65.6z"/>
	<path class="st4" d="M74.6,65.6v136.5H73V65.6c0.3,0,0.5,0,0.8,0S74.4,65.6,74.6,65.6L74.6,65.6z"/>
	<path class="st4" d="M52.1,79.9l22.3,21.8l-1.1,1.2L51.4,81.5C51.6,80.9,51.9,80.4,52.1,79.9L52.1,79.9z"/>
	<path class="st4" d="M46.4,128.8l28,27.3l-1.1,1.2L45.4,130C45.7,129.6,46.1,129.2,46.4,128.8L46.4,128.8z"/>
	<path class="st4" d="M97.3,100.3l-22.9,22.4l-1.1-1.2L98,97.4C97.8,98.4,97.6,99.4,97.3,100.3L97.3,100.3z"/>
	<path class="st4" d="M106.6,135.5l-32.2,31.4l-1.1-1.2l32.4-31.6C106,134.5,106.3,135,106.6,135.5L106.6,135.5z"/>
	<polygon class="st4" points="73.8,101.1 74.4,101.6 73.8,102.2 	"/>
	<polygon class="st4" points="73.8,155.5 74.4,156.1 73.8,156.6 	"/>
	<path class="st4" d="M97.3,100.3l-22.9,22.4l-0.6-0.6V121L98,97.4C97.8,98.4,97.6,99.4,97.3,100.3L97.3,100.3z"/>
	<path class="st4" d="M106.6,135.5l-32.2,31.4l-0.6-0.6v-1.2l31.8-31.1C106,134.5,106.3,135,106.6,135.5L106.6,135.5z"/>
	<path class="st2" d="M475.6,155.1c-16.7,0-30.3-11.1-30.3-24.8c0-5.2,2-10,5.2-14v0c4.3-4.5,6.9-11.1,6.9-18.5
		c0-7.7-5.1-8-5.1-16.3c0-4,1.5-7.7,4-10.7l0,0c0.1-0.1,0.2-0.2,0.3-0.3c1-2.6,2.3-5,4-7c0.7-2.1,1.1-4.5,1.1-6.9
		c0-1.8-0.2-3.6-0.6-5.3c-0.9-2.4-1.4-5.1-1.4-7.9c0-10.5,7.2-19,16-19s16,8.5,16,19c0,2.8-0.5,5.5-1.4,7.9
		c-0.4,1.7-0.6,3.4-0.6,5.3c0,2.4,0.4,4.8,1.1,6.9c1.6,2,3,4.4,4,7c0.1,0.1,0.2,0.2,0.3,0.3l0,0c2.6,3.1,4,6.8,4,10.7
		c0,8.3-5.1,8.6-5.1,16.3c0,7.3,2.7,13.9,6.9,18.5l0,0c3.3,4,5.3,8.8,5.3,14C505.9,144,492.3,155.1,475.6,155.1L475.6,155.1z"/>
	<path class="st3" d="M475.6,24.3c8.8,0,16,8.5,16,19c0,2.8-0.5,5.5-1.4,7.9c-0.4,1.7-0.6,3.4-0.6,5.3c0,2.4,0.4,4.8,1.1,6.9
		c1.6,2,3,4.4,4,7c0.1,0.1,0.2,0.2,0.3,0.3l0,0c2.6,3.1,4,6.8,4,10.7c0,8.3-5.1,8.6-5.1,16.3c0,7.4,2.7,13.9,6.9,18.5l0,0
		c3.3,4,5.3,8.8,5.3,14c0,13.7-13.5,24.8-30.3,24.8V24.3z"/>
	<rect x="475.1" y="24.3" class="st4" width="1.1" height="162.5"/>
	<path class="st4" d="M459.6,64.8l16.4,16l-0.8,0.8L459,65.8C459.2,65.5,459.4,65.2,459.6,64.8L459.6,64.8z M455,109.6
		c0.2-0.4,0.3-0.7,0.5-1.1l20.5,20l-0.8,0.8L455,109.6z M462.7,32.2c0.2-0.3,0.4-0.7,0.6-1L476,43.7l-0.8,0.8L462.7,32.2z
		 M491.5,40.9c0.1,0.5,0.1,1,0.1,1.5L476,57.5l-0.8-0.8L491.5,40.9z M498.5,78.2c0.1,0.4,0.2,0.9,0.2,1.3L476,101.7l-0.8-0.8
		L498.5,78.2z M501.3,117.2c0.2,0.3,0.5,0.6,0.7,0.9L476,143.4l-0.8-0.8L501.3,117.2z"/>
	<path class="st4" d="M475.6,80.5l0.4,0.4l-0.4,0.4V80.5z M491.5,40.9c0.1,0.5,0.1,1,0.1,1.5L476,57.5l-0.4-0.4v-0.8L491.5,40.9z
		 M498.5,78.2c0.1,0.4,0.2,0.9,0.2,1.3L476,101.7l-0.4-0.4v-0.8L498.5,78.2z M501.3,117.2c0.2,0.3,0.5,0.6,0.7,0.9L476,143.4
		l-0.4-0.4v-0.8L501.3,117.2z M475.6,129v-0.8l0.4,0.4L475.6,129z M475.6,44.1v-0.8l0.4,0.4L475.6,44.1z"/>
	<path class="st5" d="M548.4,364.3c7.1-25.1,11-51.6,11-79c0-37-7-72.3-19.6-104.8c-18.6-5.7-38.9-8.4-65.7-5.8
		c-155.8,15.5-164.7,85.5-310.4,42c-66.7-20-114.8-22.6-151.4-14.9C4.3,228.3,0,256.3,0,285.3c0,47,11.2,91.3,31.1,130.5l362.7-36
		L548.4,364.3z"/>
	<path class="st6" d="M279.7,570.6c154,0,279.7-128.2,279.7-285.3c0-3.9-0.1-7.8-0.3-11.6c-199.3,106-216.6-30.3-438.8-30.3
		c-51.1,0-86,16.9-120.3,41.2c0,0.3,0,0.5,0,0.7C0,442.5,125.7,570.6,279.7,570.6L279.7,570.6z"/>
	<path class="st7" d="M279.7,570.6c94.4,0,178.1-48.1,228.8-121.5c-22.8,3.1-48.5,8.3-78,15.8c-145.6,37.3-154.5-7.2-310.4-7.2
		c-23.3,0-41.7,2.3-58.3,6.1C113.2,528.9,191.8,570.6,279.7,570.6L279.7,570.6z"/>
	<path class="st8" d="M154.9,104.5h-7.1l-2.1-9.8c-0.1-0.4-0.3-1.2-0.5-2.5c-0.2-1.2-0.4-2.2-0.5-3.1c-0.1,0.7-0.2,1.5-0.4,2.5
		c-0.2,1-0.4,1.9-0.5,2.7s-0.9,4.2-2.2,10.1h-7.1L128.9,82h5.8l2.4,11.3c0.5,2.5,0.9,4.5,1.1,6c0.1-1,0.4-2.5,0.7-4.3
		c0.3-1.8,0.7-3.3,1-4.4l2-8.5h5.6l1.9,8.5c0.3,1.3,0.7,2.9,1,4.7c0.3,1.8,0.6,3.1,0.7,4c0.1-1.1,0.5-3.1,1.1-5.9l2.5-11.3h5.8
		L154.9,104.5z M173.8,104.5V95c0-2.3-0.7-3.5-2.1-3.5c-1,0-1.7,0.4-2.2,1.2c-0.5,0.8-0.7,2.2-0.7,4.1v7.6h-6V80.5h6v3.4
		c0,1.5-0.1,3.3-0.3,5.3h0.3c0.6-0.9,1.2-1.5,2-1.9c0.8-0.4,1.7-0.5,2.7-0.5c1.9,0,3.4,0.5,4.5,1.7c1.1,1.1,1.6,2.7,1.6,4.7v11.3
		H173.8z M189.8,104.5h-6V87.1h6V104.5z M183.7,82.7c0-0.9,0.3-1.6,0.7-2c0.5-0.4,1.3-0.7,2.4-0.7c1.1,0,1.9,0.2,2.4,0.7
		c0.5,0.5,0.8,1.1,0.8,2c0,1.7-1,2.6-3.2,2.6C184.7,85.3,183.7,84.5,183.7,82.7L183.7,82.7z M201.8,104.8c-2.8,0-5-0.8-6.4-2.3
		c-1.5-1.5-2.2-3.8-2.2-6.6s0.8-5.2,2.4-6.7c1.6-1.6,3.8-2.4,6.7-2.4c2,0,3.9,0.4,5.6,1.3l-1.8,4.4c-0.7-0.3-1.4-0.6-2-0.7
		c-0.6-0.2-1.2-0.3-1.9-0.3c-1,0-1.7,0.4-2.2,1.1c-0.5,0.7-0.8,1.8-0.8,3.2c0,2.8,1,4.2,3.1,4.2c1.8,0,3.4-0.5,5-1.5v4.8
		C205.8,104.3,204,104.8,201.8,104.8L201.8,104.8z M221.6,104.5V95c0-2.3-0.7-3.5-2-3.5c-1,0-1.7,0.4-2.2,1.2
		c-0.5,0.8-0.7,2.2-0.7,4.1v7.6h-6V80.5h6v3.4c0,1.5-0.1,3.3-0.2,5.3h0.3c0.6-0.9,1.2-1.5,2-1.9c0.8-0.4,1.7-0.5,2.7-0.5
		c1.9,0,3.4,0.5,4.5,1.7c1.1,1.1,1.6,2.7,1.6,4.7v11.3H221.6z M256.3,95.7c0,2.8-0.8,5.1-2.3,6.7c-1.5,1.6-3.6,2.4-6.3,2.4
		c-2.6,0-4.7-0.8-6.3-2.4c-1.6-1.6-2.3-3.8-2.3-6.6c0-2.9,0.8-5.1,2.3-6.6c1.5-1.6,3.7-2.3,6.4-2.3c1.7,0,3.2,0.3,4.5,1.1
		c1.3,0.7,2.3,1.8,3,3.1C255.9,92.3,256.3,93.9,256.3,95.7L256.3,95.7z M245.1,95.7c0,1.5,0.2,2.7,0.6,3.4s1.1,1.2,2,1.2
		c0.9,0,1.6-0.4,2-1.2c0.4-0.8,0.6-1.9,0.6-3.4c0-1.5-0.2-2.6-0.6-3.3c-0.4-0.8-1-1.1-2-1.1c-0.9,0-1.6,0.4-2,1.1
		C245.3,93.1,245.1,94.2,245.1,95.7L245.1,95.7z M270.2,91.6h-3.7v12.9h-6V91.6h-2.3v-2.9l2.4-1.5v-0.3c0-2.3,0.5-4,1.4-5
		c0.9-1,2.4-1.5,4.5-1.5c0.8,0,1.5,0.1,2.2,0.2c0.7,0.1,1.5,0.3,2.5,0.6l-1.3,3.9c-0.7-0.2-1.4-0.3-2.2-0.3c-0.5,0-0.8,0.1-1,0.4
		c-0.2,0.3-0.3,0.7-0.3,1.4v0.5h3.7V91.6z M289.1,100c0.8,0,1.8-0.2,2.9-0.6v4.4c-0.8,0.4-1.6,0.6-2.3,0.7c-0.7,0.2-1.6,0.2-2.6,0.2
		c-2,0-3.4-0.5-4.3-1.5c-0.9-1-1.3-2.5-1.3-4.6v-7.2h-2.1v-2.4l2.7-1.9l1.5-3.7h3.9v3.5h4.2v4.5h-4.2v6.8
		C287.5,99.5,288,100,289.1,100L289.1,100z M305.9,104.5V95c0-2.3-0.7-3.5-2.1-3.5c-1,0-1.7,0.4-2.2,1.2c-0.5,0.8-0.7,2.2-0.7,4.1
		v7.6h-6V80.5h6v3.4c0,1.5-0.1,3.3-0.3,5.3h0.3c0.6-0.9,1.2-1.5,2-1.9c0.8-0.4,1.7-0.5,2.7-0.5c1.9,0,3.4,0.5,4.5,1.7
		c1.1,1.1,1.6,2.7,1.6,4.7v11.3H305.9z M324.2,104.8c-2.9,0-5.1-0.8-6.7-2.3c-1.6-1.5-2.4-3.7-2.4-6.6c0-2.9,0.7-5.2,2.2-6.8
		c1.5-1.6,3.6-2.3,6.3-2.3c2.6,0,4.6,0.7,6,2s2.1,3.3,2.1,5.9v2.7h-10.6c0,1,0.4,1.7,1,2.3c0.7,0.5,1.6,0.8,2.7,0.8
		c1,0,2-0.1,2.9-0.3c0.9-0.2,1.8-0.5,2.8-1v4.4c-0.9,0.5-1.9,0.8-2.9,1C326.8,104.7,325.6,104.8,324.2,104.8L324.2,104.8z
		 M323.9,90.8c-0.7,0-1.3,0.2-1.8,0.7c-0.5,0.5-0.7,1.1-0.8,2.1h5.1c0-0.9-0.3-1.5-0.7-2C325.2,91.1,324.6,90.8,323.9,90.8
		L323.9,90.8z M351.7,100c0.8,0,1.8-0.2,2.9-0.6v4.4c-0.8,0.4-1.6,0.6-2.3,0.7c-0.7,0.2-1.6,0.2-2.6,0.2c-2,0-3.4-0.5-4.3-1.5
		c-0.9-1-1.3-2.5-1.3-4.6v-7.2H342v-2.4l2.6-1.9l1.6-3.7h3.9v3.5h4.3v4.5h-4.3v6.8C350.1,99.5,350.6,100,351.7,100L351.7,100z
		 M368.5,104.5V95c0-2.3-0.7-3.5-2.1-3.5c-1,0-1.7,0.4-2.2,1.2c-0.5,0.8-0.7,2.2-0.7,4.1v7.6h-6V80.5h6v3.4c0,1.5-0.1,3.3-0.2,5.3
		h0.3c0.5-0.9,1.2-1.5,2-1.9s1.7-0.5,2.7-0.5c1.9,0,3.4,0.5,4.5,1.7c1.1,1.1,1.6,2.7,1.6,4.7v11.3H368.5z M388.9,86.7
		c0.5,0,1,0,1.5,0.1l0.3,0.1l-0.5,5.7c-0.5-0.1-1.2-0.2-2-0.2c-1.3,0-2.2,0.3-2.8,0.9s-0.9,1.5-0.9,2.6v8.6h-6V87.1h4.4l0.9,2.8h0.3
		c0.5-0.9,1.2-1.7,2.1-2.2C387.2,87,388,86.7,388.9,86.7L388.9,86.7z M401.5,104.8c-2.9,0-5.1-0.8-6.7-2.3c-1.6-1.5-2.4-3.7-2.4-6.6
		c0-2.9,0.7-5.2,2.2-6.8c1.4-1.6,3.6-2.3,6.3-2.3c2.6,0,4.6,0.7,6,2s2.1,3.3,2.1,5.9v2.7h-10.6c0,1,0.4,1.7,1,2.3
		c0.7,0.5,1.6,0.8,2.7,0.8c1,0,2-0.1,2.9-0.3c0.9-0.2,1.8-0.5,2.8-1v4.4c-0.9,0.5-1.9,0.8-2.9,1
		C404.1,104.7,402.9,104.8,401.5,104.8L401.5,104.8z M401.1,90.8c-0.7,0-1.3,0.2-1.8,0.7c-0.5,0.5-0.7,1.1-0.8,2.1h5.1
		c0-0.9-0.3-1.5-0.7-2C402.5,91.1,401.9,90.8,401.1,90.8L401.1,90.8z M420.8,104.8c-2.9,0-5.1-0.8-6.7-2.3c-1.6-1.5-2.4-3.7-2.4-6.6
		c0-2.9,0.7-5.2,2.2-6.8c1.5-1.6,3.6-2.3,6.3-2.3c2.6,0,4.6,0.7,6,2c1.4,1.4,2.1,3.3,2.1,5.9v2.7h-10.7c0.1,1,0.4,1.7,1.1,2.3
		c0.7,0.5,1.6,0.8,2.7,0.8c1,0,2-0.1,2.9-0.3c0.9-0.2,1.8-0.5,2.9-1v4.4c-0.9,0.5-1.9,0.8-2.9,1
		C423.4,104.7,422.2,104.8,420.8,104.8L420.8,104.8z M420.4,90.8c-0.7,0-1.3,0.2-1.8,0.7c-0.5,0.5-0.8,1.1-0.8,2.1h5.1
		c0-0.9-0.3-1.5-0.7-2C421.8,91.1,421.2,90.8,420.4,90.8L420.4,90.8z M425,139.5v-1.3c0-1,0.2-1.8,0.6-2.5c0.4-0.7,1.1-1.3,2.2-2
		c0.8-0.5,1.4-1,1.8-1.4c0.4-0.4,0.5-0.9,0.5-1.4c0-0.4-0.2-0.8-0.6-1c-0.4-0.2-0.9-0.4-1.5-0.4c-1.6,0-3.3,0.5-5.4,1.7l-2.1-4.2
		c2.5-1.4,5.2-2.2,7.9-2.2c2.2,0,4,0.5,5.3,1.5c1.3,1,1.9,2.4,1.9,4.1c0,1.3-0.3,2.3-0.9,3.2c-0.6,0.9-1.5,1.7-2.7,2.6
		c-1.1,0.7-1.8,1.2-2,1.5c-0.3,0.3-0.4,0.7-0.4,1.1v0.8H425z M424.3,144.8c0-0.9,0.3-1.7,0.8-2.2s1.4-0.8,2.4-0.8
		c1,0,1.8,0.3,2.3,0.8c0.6,0.5,0.8,1.3,0.8,2.2c0,0.9-0.3,1.7-0.9,2.2c-0.6,0.5-1.3,0.8-2.3,0.8c-1,0-1.8-0.3-2.4-0.7
		C424.6,146.5,424.3,145.8,424.3,144.8L424.3,144.8z M137.3,142c0,1.9-0.6,3.3-1.9,4.2c-1.2,0.9-3.1,1.4-5.4,1.4
		c-1.3,0-2.4-0.1-3.3-0.2c-0.9-0.1-1.9-0.4-2.9-0.8v-4.8c0.9,0.4,2,0.7,3,1c1.1,0.3,2.1,0.4,2.9,0.4c1.3,0,1.9-0.3,1.9-0.9
		c0-0.3-0.2-0.6-0.5-0.8c-0.3-0.2-1.4-0.7-3.1-1.4c-1.6-0.7-2.7-1.4-3.3-2.2c-0.6-0.8-0.9-1.9-0.9-3.2c0-1.6,0.6-2.9,1.9-3.8
		c1.2-0.9,3-1.4,5.2-1.4c1.1,0,2.2,0.1,3.2,0.4c1,0.2,2,0.6,3.1,1.1l-1.6,3.9c-0.8-0.3-1.6-0.7-2.5-0.9c-0.9-0.3-1.6-0.4-2.2-0.4
		c-1,0-1.5,0.3-1.5,0.7c0,0.3,0.2,0.5,0.5,0.7c0.4,0.2,1.3,0.6,2.9,1.3c1.2,0.5,2.1,1,2.7,1.5c0.6,0.5,1,1.1,1.3,1.7
		C137.1,140.3,137.3,141.1,137.3,142L137.3,142z M149,143c0.8,0,1.8-0.2,2.9-0.6v4.4c-0.8,0.3-1.6,0.6-2.3,0.7
		c-0.7,0.1-1.6,0.2-2.6,0.2c-2,0-3.4-0.5-4.3-1.5c-0.9-1-1.3-2.5-1.3-4.6v-7.2h-2.1V132l2.7-1.9l1.5-3.7h3.9v3.5h4.2v4.5h-4.2v6.8
		C147.4,142.4,148,143,149,143L149,143z M166.2,147.4l-1.1-2.3h-0.1c-0.8,1-1.6,1.7-2.4,2.1c-0.9,0.4-1.9,0.6-3.2,0.6
		c-1.6,0-2.9-0.5-3.9-1.5c-0.9-1-1.4-2.4-1.4-4.2c0-1.9,0.7-3.2,1.9-4.2s3.1-1.4,5.6-1.5l2.9-0.1v-0.3c0-1.4-0.7-2.1-2.1-2.1
		c-1.2,0-2.9,0.4-4.8,1.3l-1.7-4c2-1,4.6-1.6,7.6-1.6c2.2,0,3.9,0.6,5.1,1.7c1.2,1.1,1.8,2.7,1.8,4.7v11.4H166.2z M161.8,143.4
		c0.7,0,1.3-0.2,1.8-0.7c0.5-0.5,0.8-1.1,0.8-1.8v-1.3l-1.4,0.1c-2,0.1-2.9,0.8-2.9,2.2C160.1,142.9,160.6,143.4,161.8,143.4
		L161.8,143.4z M182.8,143c0.8,0,1.8-0.2,2.9-0.6v4.4c-0.8,0.3-1.6,0.6-2.3,0.7c-0.7,0.1-1.6,0.2-2.6,0.2c-2,0-3.4-0.5-4.3-1.5
		c-0.9-1-1.3-2.5-1.3-4.6v-7.2h-2.1V132l2.7-1.9l1.5-3.7h3.9v3.5h4.2v4.5h-4.2v6.8C181.2,142.4,181.7,143,182.8,143L182.8,143z
		 M197,147.7c-2.9,0-5.1-0.8-6.7-2.3c-1.6-1.5-2.4-3.8-2.4-6.6c0-2.9,0.7-5.2,2.2-6.8c1.5-1.6,3.6-2.4,6.3-2.4c2.6,0,4.6,0.7,6,2.1
		c1.4,1.4,2.1,3.3,2.1,5.9v2.7H194c0.1,1,0.4,1.7,1.1,2.3c0.7,0.6,1.6,0.8,2.7,0.8c1,0,2-0.1,2.9-0.3c0.9-0.2,1.8-0.5,2.9-1v4.3
		c-0.9,0.5-1.9,0.8-2.9,1C199.6,147.6,198.4,147.7,197,147.7L197,147.7z M196.7,133.7c-0.7,0-1.3,0.2-1.8,0.7
		c-0.5,0.4-0.7,1.1-0.8,2.1h5.1c0-0.8-0.3-1.5-0.7-2C198.1,134,197.5,133.7,196.7,133.7L196.7,133.7z M229.2,147.4v-9.5
		c0-1.2-0.1-2.1-0.5-2.7c-0.3-0.6-0.8-0.9-1.5-0.9c-0.9,0-1.6,0.4-2,1.2c-0.4,0.8-0.7,2-0.7,3.7v8.1h-6v-9.5c0-1.2-0.2-2.1-0.5-2.7
		c-0.3-0.6-0.8-0.9-1.5-0.9c-0.9,0-1.6,0.4-2,1.3c-0.5,0.9-0.7,2.2-0.7,4.1v7.6h-6V130h4.5l0.8,2.1h0.3c0.5-0.8,1.1-1.4,2-1.8
		c0.9-0.4,1.9-0.6,3-0.6c2.5,0,4.2,0.8,5.2,2.3h0.5c0.5-0.7,1.2-1.3,2-1.7c0.9-0.4,1.8-0.6,2.9-0.6c2,0,3.5,0.5,4.5,1.6
		c1,1.1,1.4,2.7,1.4,4.8v11.3H229.2z M247.5,147.7c-2.9,0-5.1-0.8-6.7-2.3c-1.6-1.5-2.4-3.8-2.4-6.6c0-2.9,0.7-5.2,2.2-6.8
		c1.5-1.6,3.6-2.4,6.3-2.4c2.6,0,4.6,0.7,6,2.1c1.4,1.4,2.1,3.3,2.1,5.9v2.7h-10.7c0.1,1,0.4,1.7,1.1,2.3c0.7,0.6,1.6,0.8,2.7,0.8
		c1,0,2-0.1,2.9-0.3c0.9-0.2,1.8-0.5,2.9-1v4.3c-0.9,0.5-1.9,0.8-2.9,1C250.1,147.6,248.9,147.7,247.5,147.7L247.5,147.7z
		 M247.2,133.7c-0.7,0-1.3,0.2-1.8,0.7c-0.5,0.4-0.8,1.1-0.8,2.1h5.1c0-0.8-0.3-1.5-0.7-2C248.5,134,247.9,133.7,247.2,133.7
		L247.2,133.7z M269.4,147.4v-9.5c0-1.2-0.2-2-0.5-2.6c-0.3-0.6-0.9-0.9-1.6-0.9c-1,0-1.7,0.4-2.2,1.2c-0.4,0.8-0.7,2.2-0.7,4.2v7.6
		h-6V130h4.5l0.7,2.1h0.4c0.5-0.8,1.2-1.4,2.1-1.8c0.9-0.4,1.9-0.6,3.1-0.6c1.9,0,3.4,0.6,4.5,1.7c1,1.1,1.6,2.7,1.6,4.7v11.3H269.4
		z M287.8,143c0.8,0,1.8-0.2,2.9-0.6v4.4c-0.8,0.3-1.6,0.6-2.3,0.7c-0.7,0.1-1.6,0.2-2.6,0.2c-2,0-3.4-0.5-4.3-1.5
		c-0.9-1-1.3-2.5-1.3-4.6v-7.2h-2.1V132l2.6-1.9l1.6-3.7h3.9v3.5h4.3v4.5h-4.3v6.8C286.2,142.4,286.8,143,287.8,143L287.8,143z
		 M307,142c0,1.9-0.6,3.3-1.9,4.2c-1.3,0.9-3.1,1.4-5.4,1.4c-1.3,0-2.4-0.1-3.3-0.2c-1-0.1-1.9-0.4-2.9-0.8v-4.8
		c0.9,0.4,1.9,0.7,3,1c1.1,0.3,2.1,0.4,2.9,0.4c1.3,0,1.9-0.3,1.9-0.9c0-0.3-0.2-0.6-0.5-0.8c-0.4-0.2-1.4-0.7-3.1-1.4
		c-1.6-0.7-2.7-1.4-3.3-2.2s-1-1.9-1-3.2c0-1.6,0.6-2.9,1.9-3.8c1.2-0.9,3-1.4,5.2-1.4c1.2,0,2.2,0.1,3.2,0.4c1,0.2,2,0.6,3.1,1.1
		l-1.6,3.9c-0.8-0.3-1.6-0.7-2.5-0.9c-0.9-0.3-1.6-0.4-2.2-0.4c-1,0-1.4,0.3-1.4,0.7c0,0.3,0.2,0.5,0.5,0.7c0.3,0.2,1.3,0.6,2.9,1.3
		c1.2,0.5,2.1,1,2.7,1.5c0.6,0.5,1,1.1,1.3,1.7C306.9,140.3,307,141.1,307,142L307,142z M324.5,147.4h-6V130h6V147.4z M318.4,125.6
		c0-0.9,0.2-1.6,0.7-2c0.5-0.4,1.3-0.7,2.4-0.7c1.1,0,1.9,0.2,2.4,0.7c0.5,0.4,0.8,1.1,0.8,2c0,1.8-1,2.7-3.2,2.7
		C319.4,128.3,318.4,127.4,318.4,125.6L318.4,125.6z M341.9,142c0,1.9-0.6,3.3-1.9,4.2c-1.2,0.9-3.1,1.4-5.4,1.4
		c-1.3,0-2.4-0.1-3.3-0.2c-0.9-0.1-1.9-0.4-2.9-0.8v-4.8c0.9,0.4,2,0.7,3,1c1.1,0.3,2.1,0.4,2.9,0.4c1.3,0,1.9-0.3,1.9-0.9
		c0-0.3-0.2-0.6-0.5-0.8c-0.3-0.2-1.4-0.7-3.1-1.4c-1.6-0.7-2.7-1.4-3.3-2.2c-0.6-0.8-0.9-1.9-0.9-3.2c0-1.6,0.6-2.9,1.9-3.8
		c1.2-0.9,3-1.4,5.2-1.4c1.1,0,2.2,0.1,3.2,0.4c1,0.2,2,0.6,3.1,1.1l-1.6,3.9c-0.8-0.3-1.6-0.7-2.5-0.9c-0.9-0.3-1.6-0.4-2.2-0.4
		c-1,0-1.5,0.3-1.5,0.7c0,0.3,0.2,0.5,0.5,0.7c0.4,0.2,1.3,0.6,2.9,1.3c1.2,0.5,2.1,1,2.7,1.5c0.6,0.5,1,1.1,1.3,1.7
		C341.8,140.3,341.9,141.1,341.9,142L341.9,142z M361.8,143c0.8,0,1.8-0.2,2.9-0.6v4.4c-0.8,0.3-1.6,0.6-2.3,0.7
		c-0.7,0.1-1.6,0.2-2.6,0.2c-2,0-3.4-0.5-4.3-1.5c-0.9-1-1.3-2.5-1.3-4.6v-7.2h-2.1V132l2.7-1.9l1.5-3.7h3.9v3.5h4.2v4.5h-4.2v6.8
		C360.2,142.4,360.7,143,361.8,143L361.8,143z M378.1,129.6c0.5,0,1,0.1,1.5,0.1l0.3,0.1l-0.5,5.7c-0.5-0.1-1.2-0.2-2-0.2
		c-1.3,0-2.2,0.3-2.8,0.9s-0.9,1.5-0.9,2.6v8.6h-6V130h4.4l0.9,2.8h0.3c0.5-0.9,1.2-1.7,2.1-2.2
		C376.3,129.9,377.2,129.6,378.1,129.6L378.1,129.6z M394.6,147.4l-0.8-2.2h-0.3c-0.5,0.8-1.2,1.4-2.1,1.9c-0.9,0.4-1.9,0.6-3.1,0.6
		c-1.9,0-3.4-0.6-4.4-1.7c-1-1.1-1.6-2.7-1.6-4.7V130h6v9.5c0,1.1,0.2,2,0.5,2.6c0.3,0.6,0.9,0.9,1.6,0.9c1,0,1.8-0.4,2.2-1.2
		c0.4-0.8,0.7-2.2,0.7-4.1V130h6v17.4H394.6z M411.6,147.7c-2.9,0-5.1-0.8-6.7-2.3c-1.6-1.5-2.4-3.8-2.4-6.6c0-2.9,0.7-5.2,2.2-6.8
		c1.5-1.6,3.6-2.4,6.3-2.4c2.6,0,4.6,0.7,6,2.1c1.4,1.4,2.1,3.3,2.1,5.9v2.7h-10.7c0.1,1,0.4,1.7,1.1,2.3c0.7,0.6,1.6,0.8,2.7,0.8
		c1,0,2-0.1,2.9-0.3c0.9-0.2,1.8-0.5,2.9-1v4.3c-0.9,0.5-1.9,0.8-2.9,1C414.1,147.6,413,147.7,411.6,147.7L411.6,147.7z
		 M411.2,133.7c-0.7,0-1.3,0.2-1.8,0.7c-0.5,0.4-0.8,1.1-0.8,2.1h5.1c0-0.8-0.3-1.5-0.7-2C412.6,134,412,133.7,411.2,133.7
		L411.2,133.7z"/>
	<path class="st9" d="M49.6,254.5c0.8,0,1.5-0.1,2-0.3c0.5-0.2,1-0.4,1.3-0.7c0.3-0.3,0.6-0.7,0.8-1.1c0.2-0.4,0.4-0.9,0.5-1.3h2.9
		v27.3h-4.3v-20.8h-3.3V254.5z M67.3,274.2v4.2h-4.1v-4.2H67.3z M81.2,272c0,1,0.2,1.7,0.6,2.1c0.4,0.4,0.9,0.6,1.6,0.6
		s1.2-0.2,1.6-0.6s0.6-1.1,0.6-2.1v-14.7c0-1-0.2-1.7-0.6-2.1c-0.4-0.4-0.9-0.6-1.6-0.6s-1.2,0.2-1.6,0.6c-0.4,0.4-0.6,1.1-0.6,2.1
		V272z M76.9,257.6c0-2.2,0.6-3.9,1.7-5.1c1.1-1.2,2.7-1.8,4.8-1.8c2.1,0,3.7,0.6,4.8,1.8c1.1,1.2,1.7,2.9,1.7,5.1v14.2
		c0,2.2-0.6,3.9-1.7,5.1c-1.1,1.2-2.7,1.8-4.8,1.8c-2.1,0-3.7-0.6-4.8-1.8c-1.1-1.2-1.7-2.9-1.7-5.1V257.6z M97.3,258.6v19.8h-3.8
		V251h5.3l4.4,16.3V251h3.8v27.3h-4.4L97.3,258.6z M115.1,262.5h5.8v3.9h-5.8v8h7.3v3.9h-11.6V251h11.6v3.9h-7.3V262.5z
		 M132.4,257.6c0-2.2,0.5-3.9,1.6-5.1c1-1.2,2.6-1.8,4.7-1.8c2.1,0,3.6,0.6,4.7,1.8c1,1.2,1.6,2.9,1.6,5.1v1.1h-4v-1.3
		c0-1-0.2-1.7-0.6-2.1c-0.4-0.4-0.9-0.6-1.6-0.6c-0.7,0-1.2,0.2-1.6,0.6c-0.4,0.4-0.6,1.1-0.6,2.1c0,0.9,0.2,1.8,0.6,2.5
		c0.4,0.7,0.9,1.4,1.5,2c0.6,0.6,1.3,1.3,2,1.9c0.7,0.7,1.4,1.3,2,2.1c0.6,0.8,1.1,1.6,1.6,2.6c0.4,1,0.6,2.1,0.6,3.4
		c0,2.2-0.5,3.9-1.6,5.1c-1,1.2-2.6,1.8-4.7,1.8c-2.1,0-3.7-0.6-4.7-1.8c-1-1.2-1.6-2.9-1.6-5.1v-1.9h4v2.1c0,1,0.2,1.7,0.6,2.1
		c0.4,0.4,0.9,0.6,1.6,0.6c0.7,0,1.2-0.2,1.6-0.6c0.4-0.4,0.6-1.1,0.6-2.1c0-0.9-0.2-1.7-0.6-2.5c-0.4-0.7-0.9-1.4-1.5-2
		c-0.6-0.6-1.3-1.3-2-1.9c-0.7-0.6-1.4-1.3-2-2.1c-0.6-0.7-1.1-1.6-1.5-2.6C132.6,260,132.4,258.9,132.4,257.6L132.4,257.6z
		 M147.1,251h13.1v3.9h-4.4v23.4h-4.3v-23.4h-4.5V251z M176.9,278.3h-4.3l-0.7-5h-5.2l-0.7,5H162l4.3-27.3h6.2L176.9,278.3z
		 M167.2,269.7h4.1l-2-13.8L167.2,269.7z M178.6,251h13.2v3.9h-4.5v23.4H183v-23.4h-4.5V251z M198.8,262.5h5.8v3.9h-5.8v8h7.3v3.9
		h-11.6V251h11.6v3.9h-7.3V262.5z M218.7,270.4l2.9-19.4h5.9v27.3h-4v-19.6l-2.9,19.6h-4l-3.2-19.3v19.3h-3.7V251h5.9L218.7,270.4z
		 M235.8,262.5h5.8v3.9h-5.8v8h7.3v3.9h-11.6V251h11.6v3.9h-7.3V262.5z M250.4,258.6v19.8h-3.8V251h5.3l4.4,16.3V251h3.8v27.3h-4.4
		L250.4,258.6z M262.9,251H276v3.9h-4.4v23.4h-4.3v-23.4h-4.5V251z M290,278.3h-4.3V251h4.3v11.7h4.8V251h4.3v27.3h-4.3v-11.7H290
		V278.3z M307.4,262.5h5.8v3.9h-5.8v8h7.3v3.9h-11.6V251h11.6v3.9h-7.3V262.5z M327.2,278.3c0-0.2-0.1-0.3-0.1-0.5
		c-0.1-0.1-0.1-0.3-0.1-0.6c0-0.2-0.1-0.5-0.1-0.9c0-0.3,0-0.8,0-1.3v-4.3c0-1.3-0.2-2.2-0.7-2.7c-0.5-0.5-1.2-0.8-2.1-0.8h-1.5
		v11.1h-4.3V251h6.4c2.2,0,3.8,0.5,4.8,1.5c1,1.1,1.5,2.6,1.5,4.7v2.1c0,2.8-0.9,4.7-2.8,5.6c1.1,0.4,1.8,1.1,2.2,2.1
		c0.4,1,0.6,2.2,0.6,3.7v4.2c0,0.7,0,1.3,0.1,1.8c0.1,0.5,0.2,1,0.4,1.5H327.2z M322.6,254.9v8.4h1.6c0.8,0,1.4-0.2,1.9-0.6
		c0.4-0.4,0.7-1.2,0.7-2.3v-2.7c0-1-0.2-1.7-0.5-2.1c-0.3-0.4-0.9-0.7-1.6-0.7H322.6z M339,262.5h5.8v3.9H339v8h7.3v3.9h-11.6V251
		h11.6v3.9H339V262.5z M356.8,251h4.3v27.3h-4.3V251z M364.5,257.6c0-2.2,0.5-3.9,1.6-5.1c1-1.2,2.6-1.8,4.7-1.8
		c2.1,0,3.7,0.6,4.7,1.8c1,1.2,1.6,2.9,1.6,5.1v1.1h-4v-1.3c0-1-0.2-1.7-0.6-2.1c-0.4-0.4-0.9-0.6-1.6-0.6c-0.7,0-1.2,0.2-1.6,0.6
		c-0.4,0.4-0.6,1.1-0.6,2.1c0,0.9,0.2,1.8,0.6,2.5c0.4,0.7,0.9,1.4,1.5,2c0.6,0.6,1.3,1.3,2,1.9c0.7,0.7,1.4,1.3,2,2.1
		c0.6,0.8,1.1,1.6,1.5,2.6c0.4,1,0.6,2.1,0.6,3.4c0,2.2-0.5,3.9-1.6,5.1c-1.1,1.2-2.7,1.8-4.7,1.8c-2.1,0-3.7-0.6-4.7-1.8
		c-1.1-1.2-1.6-2.9-1.6-5.1v-1.9h4v2.1c0,1,0.2,1.7,0.6,2.1c0.4,0.4,0.9,0.6,1.6,0.6c0.7,0,1.2-0.2,1.6-0.6c0.4-0.4,0.6-1.1,0.6-2.1
		c0-0.9-0.2-1.7-0.6-2.5c-0.4-0.7-0.9-1.4-1.5-2c-0.6-0.6-1.3-1.3-2-1.9c-0.7-0.6-1.4-1.3-2-2.1c-0.6-0.7-1.1-1.6-1.5-2.6
		C364.7,260,364.5,258.9,364.5,257.6L364.5,257.6z M391.5,263.2h5.5v3.9h-5.5v11.3h-4.3V251h11.2v3.9h-7V263.2z M415.2,278.3H411
		l-0.7-5H405l-0.7,5h-3.9l4.3-27.3h6.2L415.2,278.3z M405.6,269.7h4.1l-2-13.8L405.6,269.7z M418.1,251h4.3v23.4h7v3.9h-11.3V251z
		 M431.7,257.6c0-2.2,0.5-3.9,1.6-5.1c1-1.2,2.6-1.8,4.7-1.8c2.1,0,3.7,0.6,4.7,1.8c1,1.2,1.6,2.9,1.6,5.1v1.1h-4v-1.3
		c0-1-0.2-1.7-0.6-2.1c-0.4-0.4-0.9-0.6-1.6-0.6c-0.7,0-1.2,0.2-1.6,0.6c-0.4,0.4-0.6,1.1-0.6,2.1c0,0.9,0.2,1.8,0.6,2.5
		c0.4,0.7,0.9,1.4,1.5,2c0.6,0.6,1.3,1.3,2,1.9c0.7,0.7,1.4,1.3,2,2.1c0.6,0.8,1.1,1.6,1.5,2.6c0.4,1,0.6,2.1,0.6,3.4
		c0,2.2-0.5,3.9-1.6,5.1c-1.1,1.2-2.7,1.8-4.7,1.8c-2.1,0-3.7-0.6-4.7-1.8c-1.1-1.2-1.6-2.9-1.6-5.1v-1.9h4v2.1c0,1,0.2,1.7,0.6,2.1
		c0.4,0.4,0.9,0.6,1.6,0.6c0.7,0,1.2-0.2,1.6-0.6c0.4-0.4,0.6-1.1,0.6-2.1c0-0.9-0.2-1.7-0.6-2.5c-0.4-0.7-0.9-1.4-1.5-2
		c-0.6-0.6-1.3-1.3-2-1.9c-0.7-0.6-1.4-1.3-2-2.1c-0.6-0.7-1.1-1.6-1.6-2.6C431.9,260,431.7,258.9,431.7,257.6L431.7,257.6z
		 M451.8,262.5h5.8v3.9h-5.8v8h7.3v3.9h-11.6V251h11.6v3.9h-7.3V262.5z M466.8,274.2v4.2h-4.1v-4.2H466.8z"/>
	<path class="st9" d="M58.1,334.4c0-1.2-0.2-2-0.6-2.5c-0.4-0.4-0.9-0.7-1.6-0.7c-0.7,0-1.2,0.2-1.6,0.6c-0.4,0.4-0.6,1.1-0.6,2.1
		v2.9h-4v-2.7c0-2.2,0.5-3.9,1.6-5.1c1.1-1.2,2.7-1.8,4.7-1.8c2.1,0,3.7,0.6,4.7,1.8c1.1,1.2,1.6,2.9,1.6,5.1c0,1.5-0.2,2.8-0.7,4
		c-0.5,1.2-1,2.3-1.7,3.3c-0.7,1-1.4,1.9-2.2,2.7c-0.8,0.8-1.4,1.6-2.1,2.3c-0.6,0.7-1.1,1.5-1.5,2.2c-0.4,0.7-0.5,1.5-0.3,2.3h8
		v3.9H49.6v-3.3c0-1.3,0.2-2.5,0.6-3.5c0.4-1,0.9-1.9,1.6-2.8c0.6-0.9,1.3-1.7,2-2.4c0.7-0.7,1.4-1.5,2-2.3c0.6-0.8,1.2-1.7,1.6-2.7
		C57.9,336.9,58.1,335.8,58.1,334.4L58.1,334.4z M69.9,350.9v4.2h-4.1v-4.2H69.9z M78.7,327.7h13.1v3.9h-4.5V355h-4.3v-23.4h-4.4
		V327.7z M104,340.5l-1.5,14.5h-5.8l-3-27.3h4.1l2.3,21.5l2-21.5h4.1l2.1,21.7l2.2-21.7h3.7l-3,27.3h-5.6L104,340.5z M121.1,348.7
		c0,1,0.2,1.7,0.6,2.1c0.4,0.4,0.9,0.6,1.6,0.6s1.2-0.2,1.6-0.6c0.4-0.4,0.6-1.1,0.6-2.1V334c0-1-0.2-1.7-0.6-2.1
		c-0.4-0.4-0.9-0.6-1.6-0.6s-1.2,0.2-1.6,0.6c-0.4,0.4-0.6,1.1-0.6,2.1V348.7z M116.9,334.3c0-2.2,0.6-3.9,1.7-5.1
		c1.1-1.2,2.7-1.8,4.8-1.8c2.1,0,3.7,0.6,4.8,1.8c1.1,1.2,1.7,2.9,1.7,5.1v14.2c0,2.2-0.6,3.9-1.7,5.1c-1.1,1.2-2.7,1.8-4.8,1.8
		c-2.1,0-3.7-0.6-4.8-1.8c-1.1-1.2-1.7-2.9-1.7-5.1V334.3z M138.8,334.3c0-2.2,0.5-3.9,1.6-5.1c1-1.2,2.6-1.8,4.7-1.8
		s3.7,0.6,4.7,1.8c1,1.2,1.6,2.9,1.6,5.1v1.1h-4V334c0-1-0.2-1.7-0.6-2.1c-0.4-0.4-0.9-0.6-1.6-0.6c-0.7,0-1.2,0.2-1.6,0.6
		c-0.4,0.4-0.6,1.1-0.6,2.1c0,0.9,0.2,1.8,0.6,2.5c0.4,0.7,0.9,1.4,1.6,2c0.6,0.6,1.3,1.3,2,1.9c0.7,0.6,1.4,1.3,2,2.1
		c0.6,0.8,1.1,1.6,1.5,2.6c0.4,1,0.6,2.1,0.6,3.4c0,2.2-0.5,3.9-1.6,5.1c-1.1,1.2-2.7,1.8-4.7,1.8c-2.1,0-3.7-0.6-4.7-1.8
		c-1.1-1.2-1.6-2.9-1.6-5.1v-1.9h4v2.1c0,1,0.2,1.7,0.6,2.1c0.4,0.4,0.9,0.6,1.6,0.6c0.7,0,1.2-0.2,1.6-0.6c0.4-0.4,0.6-1.1,0.6-2.1
		c0-0.9-0.2-1.7-0.6-2.5c-0.4-0.7-0.9-1.4-1.6-2c-0.6-0.6-1.3-1.3-2-1.9c-0.7-0.6-1.4-1.3-2-2.1c-0.6-0.7-1.1-1.6-1.6-2.6
		C139.1,336.7,138.8,335.6,138.8,334.3L138.8,334.3z M153.6,327.7h13.1v3.9h-4.4V355H158v-23.4h-4.5V327.7z M183.2,355H179l-0.7-5
		H173l-0.7,5h-3.9l4.3-27.3h6.2L183.2,355z M173.5,346.4h4.1l-2.1-13.8L173.5,346.4z M184.9,327.7h13.2v3.9h-4.5V355h-4.3v-23.4
		h-4.5V327.7z M205.1,339.2h5.8v3.9h-5.8v8h7.3v3.9h-11.6v-27.3h11.6v3.9h-7.3V339.2z M224.9,347.1l2.9-19.4h5.9V355h-4v-19.6
		l-2.9,19.6h-4l-3.2-19.3V355h-3.7v-27.3h5.9L224.9,347.1z M242,339.2h5.8v3.9H242v8h7.3v3.9h-11.6v-27.3h11.6v3.9H242V339.2z
		 M256.6,335.3V355h-3.8v-27.3h5.3l4.4,16.3v-16.3h3.8V355h-4.4L256.6,335.3z M269,327.7h13.1v3.9h-4.5V355h-4.3v-23.4H269V327.7z
		 M284.4,334.3c0-2.2,0.5-3.9,1.6-5.1c1-1.2,2.6-1.8,4.7-1.8c2.1,0,3.6,0.6,4.7,1.8c1,1.2,1.6,2.9,1.6,5.1v1.1h-4V334
		c0-1-0.2-1.7-0.6-2.1c-0.4-0.4-0.9-0.6-1.6-0.6c-0.7,0-1.2,0.2-1.6,0.6c-0.4,0.4-0.6,1.1-0.6,2.1c0,0.9,0.2,1.8,0.6,2.5
		c0.4,0.7,0.9,1.4,1.5,2c0.6,0.6,1.3,1.3,2,1.9c0.7,0.6,1.4,1.3,2,2.1c0.6,0.8,1.1,1.6,1.6,2.6c0.4,1,0.6,2.1,0.6,3.4
		c0,2.2-0.5,3.9-1.6,5.1c-1,1.2-2.6,1.8-4.7,1.8c-2.1,0-3.7-0.6-4.7-1.8c-1-1.2-1.6-2.9-1.6-5.1v-1.9h4v2.1c0,1,0.2,1.7,0.6,2.1
		c0.4,0.4,0.9,0.6,1.6,0.6c0.7,0,1.2-0.2,1.6-0.6c0.4-0.4,0.6-1.1,0.6-2.1c0-0.9-0.2-1.7-0.6-2.5c-0.4-0.7-0.9-1.4-1.5-2
		c-0.6-0.6-1.3-1.3-2-1.9c-0.7-0.6-1.4-1.3-2-2.1c-0.6-0.7-1.1-1.6-1.5-2.6C284.6,336.7,284.4,335.6,284.4,334.3L284.4,334.3z
		 M310.5,355h-4.2v-27.3h4.2v11.7h4.8v-11.7h4.3V355h-4.3v-11.7h-4.8V355z M327.9,339.2h5.8v3.9h-5.8v8h7.3v3.9h-11.6v-27.3h11.6
		v3.9h-7.3V339.2z M347.6,355c-0.1-0.2-0.1-0.3-0.2-0.5c0-0.1-0.1-0.3-0.1-0.6c-0.1-0.2-0.1-0.5-0.1-0.9c0-0.3,0-0.8,0-1.3v-4.3
		c0-1.3-0.2-2.2-0.7-2.7s-1.1-0.8-2.1-0.8h-1.5V355h-4.3v-27.3h6.4c2.2,0,3.8,0.5,4.8,1.5c1,1.1,1.5,2.6,1.5,4.7v2.1
		c0,2.8-0.9,4.7-2.8,5.6c1.1,0.4,1.8,1.1,2.2,2.1s0.6,2.2,0.6,3.7v4.2c0,0.7,0,1.3,0.1,1.8c0.1,0.5,0.2,1,0.4,1.5H347.6z
		 M342.9,331.6v8.4h1.7c0.8,0,1.4-0.2,1.9-0.6c0.5-0.4,0.7-1.2,0.7-2.3v-2.7c0-1-0.2-1.7-0.5-2.1c-0.3-0.4-0.9-0.7-1.6-0.7H342.9z
		 M359.3,339.2h5.8v3.9h-5.8v8h7.3v3.9h-11.6v-27.3h11.6v3.9h-7.3V339.2z M389.9,355h-4.3l-0.7-5h-5.2l-0.7,5h-3.9l4.3-27.3h6.2
		L389.9,355z M380.2,346.4h4.1l-2-13.8L380.2,346.4z M401.6,355c-0.1-0.2-0.1-0.3-0.1-0.5c-0.1-0.1-0.1-0.3-0.1-0.6
		s-0.1-0.5-0.1-0.9c0-0.3,0-0.8,0-1.3v-4.3c0-1.3-0.2-2.2-0.7-2.7c-0.4-0.5-1.1-0.8-2.1-0.8H397V355h-4.3v-27.3h6.4
		c2.2,0,3.8,0.5,4.8,1.5c1,1.1,1.5,2.6,1.5,4.7v2.1c0,2.8-0.9,4.7-2.8,5.6c1.1,0.4,1.8,1.1,2.2,2.1s0.6,2.2,0.6,3.7v4.2
		c0,0.7,0,1.3,0.1,1.8c0.1,0.5,0.2,1,0.4,1.5H401.6z M397,331.6v8.4h1.6c0.8,0,1.4-0.2,1.9-0.6c0.5-0.4,0.7-1.2,0.7-2.3v-2.7
		c0-1-0.2-1.7-0.5-2.1c-0.4-0.4-0.9-0.7-1.6-0.7H397z M413.4,339.2h5.8v3.9h-5.8v8h7.3v3.9h-11.6v-27.3h11.6v3.9h-7.3V339.2z
		 M434.5,339.9h5.5v3.9h-5.5V355h-4.3v-27.3h11.2v3.9h-7V339.9z M458.1,355h-4.3l-0.7-5h-5.2l-0.7,5h-3.9l4.3-27.3h6.2L458.1,355z
		 M448.4,346.4h4.1l-2.1-13.8L448.4,346.4z M461,327.7h4.3v23.4h7v3.9H461V327.7z M474.5,334.3c0-2.2,0.5-3.9,1.6-5.1
		c1-1.2,2.6-1.8,4.7-1.8c2.1,0,3.6,0.6,4.7,1.8c1,1.2,1.6,2.9,1.6,5.1v1.1h-4V334c0-1-0.2-1.7-0.6-2.1c-0.4-0.4-0.9-0.6-1.6-0.6
		c-0.7,0-1.2,0.2-1.6,0.6c-0.4,0.4-0.5,1.1-0.5,2.1c0,0.9,0.2,1.8,0.6,2.5c0.4,0.7,0.9,1.4,1.6,2c0.6,0.6,1.3,1.3,2,1.9
		c0.7,0.6,1.4,1.3,2,2.1c0.6,0.8,1.1,1.6,1.6,2.6c0.4,1,0.6,2.1,0.6,3.4c0,2.2-0.5,3.9-1.6,5.1c-1.1,1.2-2.6,1.8-4.7,1.8
		c-2.1,0-3.7-0.6-4.7-1.8c-1-1.2-1.6-2.9-1.6-5.1v-1.9h4v2.1c0,1,0.2,1.7,0.6,2.1c0.4,0.4,0.9,0.6,1.6,0.6s1.2-0.2,1.6-0.6
		c0.4-0.4,0.6-1.1,0.6-2.1c0-0.9-0.2-1.7-0.6-2.5c-0.4-0.7-0.9-1.4-1.6-2c-0.6-0.6-1.3-1.3-2-1.9c-0.7-0.6-1.4-1.3-2-2.1
		c-0.6-0.7-1.1-1.6-1.5-2.6C474.7,336.7,474.5,335.6,474.5,334.3L474.5,334.3z M494.6,339.2h5.8v3.9h-5.8v8h7.3v3.9h-11.6v-27.3
		h11.6v3.9h-7.3V339.2z M509.5,350.9v4.2h-4.1v-4.2H509.5z"/>
	<path class="st9" d="M58.1,411.1c0-1.2-0.2-2-0.6-2.5c-0.4-0.4-0.9-0.7-1.6-0.7c-0.7,0-1.2,0.2-1.6,0.6c-0.4,0.4-0.6,1.1-0.6,2.1
		v1.8h-4V411c0-2.2,0.5-3.9,1.6-5.1c1.1-1.2,2.7-1.8,4.7-1.8c2.1,0,3.7,0.6,4.7,1.8c1.1,1.2,1.6,2.9,1.6,5.1v0.7c0,2.9-1,4.8-3,5.6
		c1.1,0.5,1.8,1.2,2.3,2.1s0.7,2.2,0.7,3.6v2.1c0,2.2-0.5,3.9-1.6,5.1c-1,1.2-2.6,1.8-4.7,1.8c-2.1,0-3.7-0.6-4.7-1.8
		c-1-1.2-1.6-2.9-1.6-5.1v-2.3h4v2.5c0,1,0.2,1.7,0.6,2.1c0.4,0.4,0.9,0.6,1.6,0.6c0.7,0,1.2-0.2,1.6-0.6c0.4-0.4,0.6-1.2,0.6-2.5
		v-2.1c0-1.3-0.2-2.2-0.7-2.7c-0.5-0.5-1.2-0.8-2.1-0.8h-1.4v-3.9h1.7c0.8,0,1.4-0.2,1.9-0.6c0.5-0.4,0.7-1.2,0.7-2.3V411.1z
		 M69.3,427.6v4.1h-4.1v-4.1H69.3z M77.2,404.4h13.1v3.9h-4.5v23.4h-4.3v-23.4h-4.4V404.4z M96.5,431.7h-4.3v-27.3h4.3v11.7h4.8
		v-11.7h4.3v27.3h-4.3V420h-4.8V431.7z M117.6,431.7c-0.1-0.2-0.1-0.3-0.2-0.5c-0.1-0.1-0.1-0.3-0.1-0.6c0-0.2-0.1-0.5-0.1-0.9
		c0-0.3,0-0.8,0-1.3v-4.3c0-1.3-0.2-2.2-0.7-2.7c-0.5-0.5-1.2-0.8-2.1-0.8H113v11.1h-4.3v-27.3h6.4c2.2,0,3.8,0.5,4.8,1.5
		c1,1.1,1.5,2.6,1.5,4.7v2.1c0,2.8-0.9,4.7-2.8,5.6c1.1,0.4,1.8,1.2,2.2,2.1c0.4,1,0.6,2.2,0.6,3.7v4.2c0,0.7,0,1.3,0.1,1.8
		c0,0.5,0.2,1,0.4,1.5H117.6z M113,408.3v8.4h1.7c0.8,0,1.4-0.2,1.9-0.6c0.5-0.4,0.7-1.1,0.7-2.3v-2.7c0-1-0.2-1.7-0.5-2.1
		c-0.3-0.4-0.9-0.7-1.6-0.7H113z M128.5,415.9h5.8v3.9h-5.8v8h7.3v3.9h-11.6v-27.3h11.6v3.9h-7.3V415.9z M142.7,415.9h5.8v3.9h-5.8
		v8h7.3v3.9h-11.6v-27.3h11.6v3.9h-7.3V415.9z M158.1,411c0-2.2,0.5-3.9,1.6-5.1c1-1.2,2.6-1.8,4.7-1.8c2.1,0,3.7,0.6,4.7,1.8
		c1,1.2,1.6,2.9,1.6,5.1v1.1h-4v-1.3c0-1-0.2-1.7-0.6-2.1c-0.4-0.4-0.9-0.6-1.6-0.6c-0.7,0-1.2,0.2-1.6,0.6
		c-0.4,0.4-0.6,1.1-0.6,2.1c0,0.9,0.2,1.8,0.6,2.5c0.4,0.7,0.9,1.4,1.6,2c0.6,0.6,1.3,1.3,2,1.9c0.7,0.6,1.4,1.3,2,2.1
		c0.6,0.8,1.1,1.6,1.5,2.6c0.4,1,0.6,2.1,0.6,3.4c0,2.2-0.5,3.9-1.6,5.1c-1.1,1.2-2.7,1.8-4.7,1.8c-2.1,0-3.7-0.6-4.7-1.8
		c-1.1-1.2-1.6-2.9-1.6-5.1v-1.9h4v2.1c0,1,0.2,1.7,0.6,2.1c0.4,0.4,0.9,0.6,1.6,0.6c0.7,0,1.2-0.2,1.6-0.6c0.4-0.4,0.6-1.1,0.6-2.1
		c0-0.9-0.2-1.8-0.6-2.5c-0.4-0.7-0.9-1.4-1.6-2c-0.6-0.6-1.3-1.3-2-1.9c-0.7-0.6-1.4-1.3-2-2.1c-0.6-0.7-1.1-1.6-1.6-2.6
		C158.4,413.4,158.1,412.3,158.1,411L158.1,411z M172,404.4h13.2v3.9h-4.5v23.4h-4.3v-23.4H172V404.4z M200.8,431.7h-4.3l-0.7-5
		h-5.2l-0.7,5h-3.9l4.3-27.3h6.2L200.8,431.7z M191.1,423.1h4.1l-2-13.8L191.1,423.1z M201.6,404.4h13.1v3.9h-4.5v23.4h-4.3v-23.4
		h-4.4V404.4z M220.9,415.9h5.8v3.9h-5.8v8h7.3v3.9h-11.6v-27.3h11.6v3.9h-7.3V415.9z M239.9,423.8l2.9-19.4h5.9v27.3h-4v-19.6
		l-2.9,19.6h-4l-3.2-19.3v19.3h-3.7v-27.3h5.9L239.9,423.8z M256.1,415.9h5.8v3.9h-5.8v8h7.3v3.9h-11.6v-27.3h11.6v3.9h-7.3V415.9z
		 M269.8,412v19.8H266v-27.3h5.3l4.4,16.3v-16.3h3.8v27.3h-4.4L269.8,412z M281.4,404.4h13.1v3.9H290v23.4h-4.2v-23.4h-4.5V404.4z
		 M295.9,411c0-2.2,0.5-3.9,1.6-5.1c1-1.2,2.6-1.8,4.7-1.8c2.1,0,3.7,0.6,4.7,1.8c1,1.2,1.6,2.9,1.6,5.1v1.1h-4v-1.3
		c0-1-0.2-1.7-0.6-2.1c-0.4-0.4-0.9-0.6-1.6-0.6c-0.7,0-1.2,0.2-1.6,0.6c-0.4,0.4-0.6,1.1-0.6,2.1c0,0.9,0.2,1.8,0.6,2.5
		c0.4,0.7,0.9,1.4,1.6,2c0.6,0.6,1.3,1.3,2,1.9c0.7,0.6,1.4,1.3,2,2.1c0.6,0.8,1.1,1.6,1.5,2.6c0.4,1,0.6,2.1,0.6,3.4
		c0,2.2-0.5,3.9-1.6,5.1c-1.1,1.2-2.7,1.8-4.7,1.8c-2.1,0-3.7-0.6-4.7-1.8c-1.1-1.2-1.6-2.9-1.6-5.1v-1.9h4v2.1c0,1,0.2,1.7,0.6,2.1
		c0.4,0.4,0.9,0.6,1.6,0.6c0.7,0,1.2-0.2,1.6-0.6c0.4-0.4,0.6-1.1,0.6-2.1c0-0.9-0.2-1.8-0.6-2.5c-0.4-0.7-0.9-1.4-1.6-2
		c-0.6-0.6-1.3-1.3-2-1.9c-0.7-0.6-1.4-1.3-2-2.1c-0.6-0.7-1.1-1.6-1.6-2.6C296.1,413.4,295.9,412.3,295.9,411L295.9,411z
		 M321.1,431.7h-4.3v-27.3h4.3v11.7h4.8v-11.7h4.3v27.3H326V420h-4.8V431.7z M337.6,415.9h5.8v3.9h-5.8v8h7.3v3.9h-11.6v-27.3h11.6
		v3.9h-7.3V415.9z M356.5,431.7c0-0.2-0.1-0.3-0.1-0.5c-0.1-0.1-0.1-0.3-0.1-0.6c0-0.2-0.1-0.5-0.1-0.9c0-0.3,0-0.8,0-1.3v-4.3
		c0-1.3-0.2-2.2-0.7-2.7c-0.5-0.5-1.2-0.8-2.1-0.8h-1.5v11.1h-4.3v-27.3h6.4c2.2,0,3.8,0.5,4.8,1.5c1,1.1,1.5,2.6,1.5,4.7v2.1
		c0,2.8-0.9,4.7-2.8,5.6c1.1,0.4,1.8,1.2,2.2,2.1c0.4,1,0.6,2.2,0.6,3.7v4.2c0,0.7,0,1.3,0.1,1.8c0.1,0.5,0.2,1,0.4,1.5H356.5z
		 M351.8,408.3v8.4h1.6c0.8,0,1.4-0.2,1.9-0.6c0.4-0.4,0.7-1.1,0.7-2.3v-2.7c0-1-0.2-1.7-0.5-2.1c-0.3-0.4-0.9-0.7-1.6-0.7H351.8z
		 M367.4,415.9h5.8v3.9h-5.8v8h7.3v3.9h-11.6v-27.3h11.6v3.9h-7.3V415.9z M397.1,431.7h-4.3l-0.7-5h-5.2l-0.7,5h-3.9l4.3-27.3h6.2
		L397.1,431.7z M387.4,423.1h4.1l-2-13.8L387.4,423.1z M407.9,431.7c-0.1-0.2-0.1-0.3-0.2-0.5c0-0.1-0.1-0.3-0.1-0.6
		c-0.1-0.2-0.1-0.5-0.1-0.9c0-0.3,0-0.8,0-1.3v-4.3c0-1.3-0.2-2.2-0.7-2.7c-0.4-0.5-1.1-0.8-2.1-0.8h-1.5v11.1H399v-27.3h6.4
		c2.2,0,3.8,0.5,4.8,1.5c1,1.1,1.5,2.6,1.5,4.7v2.1c0,2.8-0.9,4.7-2.8,5.6c1.1,0.4,1.8,1.2,2.2,2.1c0.4,1,0.6,2.2,0.6,3.7v4.2
		c0,0.7,0,1.3,0.1,1.8c0.1,0.5,0.2,1,0.4,1.5H407.9z M403.3,408.3v8.4h1.7c0.8,0,1.4-0.2,1.9-0.6c0.5-0.4,0.7-1.1,0.7-2.3v-2.7
		c0-1-0.2-1.7-0.5-2.1c-0.3-0.4-0.9-0.7-1.6-0.7H403.3z M418.8,415.9h5.8v3.9h-5.8v8h7.3v3.9h-11.6v-27.3h11.6v3.9h-7.3V415.9z
		 M439,416.6h5.5v3.9H439v11.3h-4.3v-27.3H446v3.9h-7V416.6z M461.8,431.7h-4.3l-0.7-5h-5.2l-0.7,5h-3.9l4.3-27.3h6.2L461.8,431.7z
		 M452.1,423.1h4.1l-2.1-13.8L452.1,423.1z M463.8,404.4h4.3v23.4h7v3.9h-11.2V404.4z M476.4,411c0-2.2,0.5-3.9,1.6-5.1
		c1-1.2,2.6-1.8,4.7-1.8c2.1,0,3.7,0.6,4.7,1.8c1,1.2,1.6,2.9,1.6,5.1v1.1h-4v-1.3c0-1-0.2-1.7-0.6-2.1c-0.4-0.4-0.9-0.6-1.6-0.6
		c-0.7,0-1.2,0.2-1.6,0.6c-0.4,0.4-0.6,1.1-0.6,2.1c0,0.9,0.2,1.8,0.6,2.5c0.4,0.7,0.9,1.4,1.6,2c0.6,0.6,1.3,1.3,2,1.9
		c0.7,0.6,1.4,1.3,2,2.1c0.6,0.8,1.1,1.6,1.6,2.6c0.4,1,0.6,2.1,0.6,3.4c0,2.2-0.5,3.9-1.6,5.1c-1.1,1.2-2.7,1.8-4.7,1.8
		c-2.1,0-3.7-0.6-4.7-1.8c-1.1-1.2-1.6-2.9-1.6-5.1v-1.9h4v2.1c0,1,0.2,1.7,0.6,2.1c0.4,0.4,0.9,0.6,1.6,0.6c0.7,0,1.2-0.2,1.6-0.6
		c0.4-0.4,0.6-1.1,0.6-2.1c0-0.9-0.2-1.8-0.6-2.5c-0.4-0.7-0.9-1.4-1.6-2c-0.6-0.6-1.3-1.3-2-1.9c-0.7-0.6-1.4-1.3-2-2.1
		c-0.6-0.7-1.1-1.6-1.6-2.6C476.6,413.4,476.4,412.3,476.4,411L476.4,411z M495.7,415.9h5.8v3.9h-5.8v8h7.3v3.9h-11.6v-27.3H503v3.9
		h-7.3V415.9z M509.7,427.6v4.1h-4.1v-4.1H509.7z"/>
	<path class="st10" d="M312.5,542.5c5.3,0,9.8,3.4,11.6,8.2h-23.2C302.6,545.9,307.2,542.5,312.5,542.5L312.5,542.5z"/>
	<path class="st10" d="M353.5,531.6c2.3,0,4.3,1.5,5.1,3.6h-10.2C349.2,533.1,351.2,531.6,353.5,531.6L353.5,531.6z"/>
	<path class="st10" d="M348.2,483.2c3.4,0,6.2,2.1,7.4,5.2h-14.7C341.9,485.3,344.8,483.2,348.2,483.2L348.2,483.2z"/>
	<path class="st10" d="M315.4,507.7c5.3,0,9.8,3.4,11.6,8.2h-23.2C305.6,511.1,310.1,507.7,315.4,507.7L315.4,507.7z"/>
	<path class="st10" d="M269.4,488.2c5.3,0,9.8,3.4,11.6,8.2h-23.2C259.6,491.6,264.1,488.2,269.4,488.2L269.4,488.2z"/>
	<path class="st10" d="M343.8,500c2.4,0,4.3,1.5,5.1,3.6h-10.2C339.5,501.5,341.5,500,343.8,500L343.8,500z"/>
	<path class="st10" d="M299.9,486.8c2.3,0,4.3,1.5,5.1,3.6h-10.2C295.6,488.3,297.6,486.8,299.9,486.8L299.9,486.8z"/>
	<path class="st10" d="M232.7,510.4c5.3,0,9.8,3.4,11.6,8.2h-23.2C222.9,513.8,227.4,510.4,232.7,510.4L232.7,510.4z"/>
	<path class="st10" d="M277.1,511.9c3.4,0,6.2,2.1,7.4,5.2h-14.7C270.9,514,273.8,511.9,277.1,511.9L277.1,511.9z"/>
	<path class="st10" d="M269.4,534c3.4,0,6.3,2.2,7.4,5.2H262C263.1,536.2,266,534,269.4,534L269.4,534z"/>
	<path class="st10" d="M183.7,477.6c3.3,0,6.2,2.1,7.4,5.2h-14.7C177.4,479.7,180.3,477.6,183.7,477.6L183.7,477.6z"/>
	<path class="st10" d="M128.6,485.5c5.3,0,9.8,3.4,11.6,8.2H117C118.7,488.9,123.3,485.5,128.6,485.5L128.6,485.5z"/>
	<path class="st10" d="M179.9,504.7c2.4,0,4.3,1.5,5.1,3.6h-10.2C175.5,506.2,177.5,504.7,179.9,504.7L179.9,504.7z"/>
	<path class="st10" d="M380.1,494.8c2.4,0,4.3,1.5,5.1,3.6H375C375.8,496.4,377.7,494.8,380.1,494.8L380.1,494.8z"/>
	<path class="st10" d="M180.2,520.9c5.3,0,9.8,3.4,11.6,8.2h-23.2C170.4,524.3,174.9,520.9,180.2,520.9L180.2,520.9z"/>
	<path class="st10" d="M100.3,465.9c5.3,0,9.8,3.4,11.6,8.2H88.7C90.4,469.3,95,465.9,100.3,465.9L100.3,465.9z"/>
	<path class="st10" d="M398.7,504.8c3.4,0,6.2,2.1,7.4,5.2h-14.7C392.4,506.9,395.3,504.8,398.7,504.8L398.7,504.8z"/>
	<path class="st10" d="M378.1,520c5.3,0,9.8,3.4,11.6,8.2h-23.2C368.2,523.4,372.8,520,378.1,520L378.1,520z"/>
	<path class="st10" d="M439.1,479.1c5.3,0,9.8,3.4,11.6,8.2h-23.2C429.3,482.5,433.8,479.1,439.1,479.1L439.1,479.1z"/>
	<path class="st10" d="M231.4,540.1c2.3,0,4.3,1.5,5.1,3.6h-10.2C227.1,541.6,229.1,540.1,231.4,540.1L231.4,540.1z"/>
	<path class="st10" d="M213.2,486.3c2.3,0,4.3,1.5,5.1,3.6h-10.2C208.9,487.8,210.9,486.3,213.2,486.3L213.2,486.3z"/>
	<path class="st10" d="M405.5,476.7c2.3,0,4.3,1.5,5.1,3.6h-10.2C401.2,478.2,403.1,476.7,405.5,476.7L405.5,476.7z"/>
	<path class="st10" d="M469.9,473.8c2.3,0,4.3,1.5,5.1,3.6h-10.2C465.6,475.3,467.6,473.8,469.9,473.8L469.9,473.8z"/>
	<path class="st10" d="M492.2,457.1c2.3,0,4.3,1.5,5.1,3.6h-10.1C487.8,458.6,489.9,457.1,492.2,457.1L492.2,457.1z"/>
	<path class="st10" d="M416.3,519.9c2.3,0,4.3,1.5,5.1,3.6h-10.2C412,521.4,414,519.9,416.3,519.9L416.3,519.9z"/>
	<path class="st10" d="M144.8,472.7c2.3,0,4.3,1.5,5.1,3.6h-10.2C140.5,474.1,142.5,472.7,144.8,472.7L144.8,472.7z"/>
	<path class="st11" d="M75.7,382.1c5.3,0,9.8,3.4,11.6,8.2H64.2C65.9,385.5,70.4,382.1,75.7,382.1L75.7,382.1z"/>
	<path class="st11" d="M47.5,362.4c5.3,0,9.8,3.4,11.6,8.2H35.9C37.6,365.8,42.2,362.4,47.5,362.4L47.5,362.4z"/>
	<path class="st11" d="M92,369.2c2.3,0,4.3,1.5,5.1,3.6H86.9C87.7,370.7,89.7,369.2,92,369.2L92,369.2z"/>
	<path class="st10" d="M143.5,309.7c5.3,0,9.8,3.4,11.6,8.2h-23.2C133.7,313,138.2,309.7,143.5,309.7L143.5,309.7z"/>
	<path class="st10" d="M189.5,367.8c5.3,0,9.8,3.4,11.6,8.2h-23.2C179.7,371.2,184.2,367.8,189.5,367.8L189.5,367.8z"/>
	<path class="st10" d="M234,369.3c3.4,0,6.2,2.1,7.4,5.2h-14.7C227.7,371.5,230.6,369.3,234,369.3L234,369.3z"/>
	<path class="st10" d="M226.2,391.5c3.4,0,6.3,2.2,7.4,5.2h-14.7C220,393.6,222.9,391.5,226.2,391.5L226.2,391.5z"/>
	<path class="st10" d="M98,309.6c3.4,0,6.2,2.1,7.4,5.2H90.7C91.8,311.7,94.6,309.6,98,309.6L98,309.6z"/>
	<path class="st10" d="M136.7,362.1c2.4,0,4.3,1.5,5.1,3.6h-10.2C132.4,363.6,134.4,362.1,136.7,362.1L136.7,362.1z"/>
	<path class="st10" d="M137,378.3c5.3,0,9.8,3.4,11.6,8.2h-23.2C127.2,381.7,131.7,378.3,137,378.3L137,378.3z"/>
	<path class="st10" d="M188.3,397.5c2.3,0,4.3,1.5,5.1,3.6h-10.2C184,399,186,397.5,188.3,397.5L188.3,397.5z"/>
	<path class="st10" d="M59.4,307.3c2.3,0,4.3,1.5,5.1,3.6H54.3C55,308.8,57,307.3,59.4,307.3L59.4,307.3z"/>
	<path class="st10" d="M18.9,294.1c2.3,0,4.3,1.5,5.1,3.6H13.8C14.6,295.6,16.6,294.1,18.9,294.1L18.9,294.1z"/>
	<path class="st11" d="M28,310.5c5.3,0,9.8,3.4,11.6,8.2H16.4C18.2,313.9,22.7,310.5,28,310.5L28,310.5z"/>
	<path class="st11" d="M172.4,287.4c5.3,0,9.8,3.4,11.6,8.2h-23.2C162.6,290.9,167.1,287.4,172.4,287.4L172.4,287.4z"/>
	<path class="st10" d="M120.2,293.6c3.4,0,6.2,2.2,7.4,5.2h-14.7C113.9,295.8,116.8,293.6,120.2,293.6L120.2,293.6z"/>
	<path class="st10" d="M51.2,285.4c3.3,0,6.2,2.1,7.4,5.2H43.9C45,287.5,47.8,285.4,51.2,285.4L51.2,285.4z"/>
	<path class="st10" d="M37.1,384.6c3.3,0,6.2,2.2,7.4,5.2H29.7C30.9,386.8,33.7,384.6,37.1,384.6L37.1,384.6z"/>
	<path class="st12" d="M47.3,229.8c3.3,0,6.2,2.1,7.4,5.2H39.9C41.1,231.9,43.9,229.8,47.3,229.8L47.3,229.8z"/>
	<path class="st12" d="M59.4,210.8c3.4,0,6.2,2.2,7.4,5.2H52C53.1,213,56,210.8,59.4,210.8L59.4,210.8z"/>
	<path class="st12" d="M120.2,228c5.3,0,9.8,3.4,11.6,8.2h-23.2C110.4,231.4,114.9,228,120.2,228L120.2,228z"/>
	<path class="st12" d="M91.8,208.3c5.3,0,9.8,3.4,11.6,8.2H80.3C82,211.7,86.5,208.3,91.8,208.3L91.8,208.3z"/>
	<path class="st12" d="M136.4,215.1c2.3,0,4.3,1.5,5.1,3.6h-10.2C132.1,216.6,134.1,215.1,136.4,215.1L136.4,215.1z"/>
	<path class="st12" d="M81.5,230.5c3.4,0,6.3,2.2,7.4,5.2H74.1C75.3,232.7,78.2,230.5,81.5,230.5L81.5,230.5z"/>
	<path class="st12" d="M27.3,214.2c5.3,0,9.8,3.4,11.6,8.2H15.7C17.5,217.6,22,214.2,27.3,214.2L27.3,214.2z"/>
	<path class="st12" d="M24,249c2.3,0,4.3,1.5,5.1,3.6H18.9C19.7,250.5,21.7,249,24,249L24,249z"/>
	<path class="st11" d="M462.5,366.1c-5.3,0-9.8,3.4-11.6,8.2h23.2C472.3,369.5,467.8,366.1,462.5,366.1L462.5,366.1z"/>
	<path class="st11" d="M524.4,340.2c-5.3,0-9.8,3.4-11.6,8.2H536C534.2,343.6,529.7,340.2,524.4,340.2L524.4,340.2z"/>
	<path class="st11" d="M426.1,385.1c-2.3,0-4.3,1.5-5.1,3.6h10.1C430.5,386.6,428.5,385.1,426.1,385.1L426.1,385.1z"/>
	<path class="st10" d="M355,363.3c-5.3,0-9.8,3.4-11.6,8.2h23.2C364.8,366.6,360.3,363.3,355,363.3L355,363.3z"/>
	<path class="st10" d="M276.3,369.9c-3.4,0-6.2,2.1-7.4,5.2h14.7C282.5,372,279.7,369.9,276.3,369.9L276.3,369.9z"/>
	<path class="st10" d="M312.1,375.5c-3.3,0-6.2,2.1-7.3,5.2h14.7C318.3,377.6,315.4,375.5,312.1,375.5L312.1,375.5z"/>
	<path class="st10" d="M520.1,314.8c-2.4,0-4.3,1.5-5.1,3.6h10.2C524.4,316.3,522.4,314.8,520.1,314.8L520.1,314.8z"/>
	<path class="st10" d="M397.4,379.4c-5.3,0-9.8,3.4-11.6,8.2H409C407.2,382.8,402.7,379.4,397.4,379.4L397.4,379.4z"/>
	<path class="st10" d="M350,381.5c-2.3,0-4.3,1.5-5.1,3.6h10.2C354.3,383,352.3,381.5,350,381.5L350,381.5z"/>
	<path class="st10" d="M501.2,368.6c-3.4,0-6.2,2.2-7.4,5.2h14.7C507.4,370.8,504.5,368.6,501.2,368.6L501.2,368.6z"/>
	<path class="st12" d="M180.1,236.4c-3.3,0-6.2,2.2-7.4,5.2h14.7C186.3,238.6,183.5,236.4,180.1,236.4L180.1,236.4z M394.8,293.7
		c-5.3,0-9.8,3.4-11.6,8.2h23.2C404.6,297.1,400.1,293.7,394.8,293.7L394.8,293.7z M502.3,251.3c-3.4,0-6.3,2.2-7.4,5.2h14.7
		C508.5,253.4,505.6,251.3,502.3,251.3L502.3,251.3z M420.4,237c-3.3,0-6.2,2.1-7.3,5.2h14.7C426.7,239.1,423.8,237,420.4,237
		L420.4,237z M228.1,236.6c-5.3,0-9.8,3.4-11.6,8.2h23.2C237.9,240,233.5,236.6,228.1,236.6L228.1,236.6z M278.1,241.1
		c-2.3,0-4.3,1.5-5.1,3.6h10.2C282.4,242.6,280.4,241.1,278.1,241.1L278.1,241.1z M354.6,235.6c-2.3,0-4.3,1.5-5.1,3.6h10.2
		C359,237.1,356.9,235.6,354.6,235.6L354.6,235.6z M354.1,289.9c-2.3,0-4.3,1.5-5.1,3.6h10.2C358.4,291.4,356.4,289.9,354.1,289.9
		L354.1,289.9z M326.3,225.8c-5.3,0-9.8,3.4-11.6,8.2h23.2C336.1,229.2,331.6,225.8,326.3,225.8L326.3,225.8z M381.8,227
		c-5.3,0-9.8,3.4-11.6,8.2h23.2C391.6,230.4,387.1,227,381.8,227L381.8,227z M478.4,234.7c-5.3,0-9.8,3.4-11.6,8.2H490
		C488.2,238.1,483.7,234.7,478.4,234.7L478.4,234.7z M514.3,233c-2.3,0-4.3,1.5-5.1,3.6h10.1C518.6,234.5,516.6,233,514.3,233
		L514.3,233z M511,198.2c-5.3,0-9.8,3.4-11.6,8.2h23.2C520.8,201.6,516.3,198.2,511,198.2L511,198.2z M456.8,214.5
		c-3.3,0-6.2,2.1-7.3,5.2h14.7C463,216.7,460.1,214.5,456.8,214.5L456.8,214.5z M401.9,199.1c-2.3,0-4.3,1.5-5.1,3.6H407
		C406.2,200.6,404.2,199.1,401.9,199.1L401.9,199.1z M446.4,192.3c-5.3,0-9.8,3.4-11.6,8.2H458C456.3,195.7,451.7,192.3,446.4,192.3
		L446.4,192.3z M418.1,212c-5.3,0-9.8,3.4-11.6,8.2h23.2C427.9,215.4,423.4,212,418.1,212L418.1,212z M478.9,194.8
		c-3.4,0-6.3,2.1-7.4,5.2h14.7C485.2,197,482.3,194.8,478.9,194.8L478.9,194.8z M491,213.8c-3.4,0-6.2,2.2-7.4,5.2h14.7
		C497.2,216,494.4,213.8,491,213.8L491,213.8z M487.1,269.4c-3.4,0-6.2,2.2-7.4,5.2h14.7C493.3,271.6,490.5,269.4,487.1,269.4
		L487.1,269.4z M418.1,277.6c-3.4,0-6.3,2.2-7.4,5.2h14.7C424.4,279.8,421.5,277.6,418.1,277.6L418.1,277.6z M363.3,208.1
		c-5.3,0-9.8,3.4-11.6,8.2h23.2C373.1,211.5,368.6,208.1,363.3,208.1L363.3,208.1z M538.7,247.9c-5.3,0-9.8,3.4-11.6,8.2h23.2
		C548.5,251.3,544,247.9,538.7,247.9L538.7,247.9z M519.4,278.1c-2.3,0-4.3,1.5-5.1,3.6h10.2C523.7,279.6,521.7,278.1,519.4,278.1
		L519.4,278.1z M478.9,291.3c-2.3,0-4.3,1.5-5.1,3.6H484C483.3,292.8,481.2,291.3,478.9,291.3L478.9,291.3z M440.3,293.6
		c-3.4,0-6.3,2.1-7.4,5.2h14.7C446.5,295.7,443.6,293.6,440.3,293.6L440.3,293.6z"/>
	<path class="st11" d="M469.6,385.5c-5.3,0-9.8,3.4-11.6,8.2h23.2C479.4,388.9,474.9,385.5,469.6,385.5L469.6,385.5z"/>
	<path class="st10" d="M512.4,387.7c-3.4,0-6.2,2.1-7.4,5.2h14.7C518.7,389.9,515.8,387.7,512.4,387.7L512.4,387.7z"/>
	<path class="st10" d="M544.5,304.9c-3.4,0-6.2,2.1-7.4,5.2h14.7C550.7,307.1,547.9,304.9,544.5,304.9L544.5,304.9z"/>
	<path class="st10" d="M352.3,307.1c-3.3,0-6.2,2.2-7.3,5.2h14.7C358.6,309.3,355.7,307.1,352.3,307.1L352.3,307.1z"/>
	<path class="st10" d="M280.9,390.9c-5.3,0-9.8,3.4-11.6,8.2h23.2C290.7,394.3,286.2,390.9,280.9,390.9L280.9,390.9z"/>
	<path class="st11" d="M411.5,363.7c-2.3,0-4.3,1.5-5.1,3.6h10.1C415.8,365.2,413.8,363.7,411.5,363.7L411.5,363.7z"/>
	<path class="st11" d="M307.2,447.6c-2.3,0-4.3,1.5-5.1,3.6h10.1C311.6,449.1,309.6,447.6,307.2,447.6L307.2,447.6z"/>
	<path class="st11" d="M221.1,294.6c-5.3,0-9.8,3.4-11.6,8.2h23.2C230.9,298,226.4,294.6,221.1,294.6L221.1,294.6z"/>
	<path class="st11" d="M304.2,300.1c-5.3,0-9.8,3.4-11.6,8.2h23.2C314,303.5,309.5,300.1,304.2,300.1L304.2,300.1z"/>
	<path class="st10" d="M259.8,297.2c-3.4,0-6.3,2.2-7.4,5.2h14.7C266,299.3,263.1,297.2,259.8,297.2L259.8,297.2z"/>
	<path class="st10" d="M271,316.3c-3.4,0-6.2,2.2-7.4,5.2h14.7C277.3,318.4,274.4,316.3,271,316.3L271,316.3z"/>
	<path class="st10" d="M188.6,312.2c-3.4,0-6.3,2.2-7.4,5.2H196C194.9,314.4,192,312.2,188.6,312.2L188.6,312.2z"/>
	<path class="st10" d="M276.5,284.6c-3.3,0-6.2,2.2-7.4,5.2h14.7C282.7,286.8,279.8,284.6,276.5,284.6L276.5,284.6z"/>
	<path class="st10" d="M489.3,313.2c-3.4,0-6.2,2.2-7.4,5.2h14.7C495.6,315.4,492.7,313.2,489.3,313.2L489.3,313.2z"/>
	<path class="st10" d="M372,454.7c-3.3,0-6.2,2.2-7.4,5.2h14.7C378.3,456.9,375.4,454.7,372,454.7L372,454.7z"/>
	<path class="st10" d="M337.9,462.1c5.3,0,9.8,3.4,11.6,8.2h-23.2C328.1,465.5,332.6,462.1,337.9,462.1L337.9,462.1z"/>
	<path class="st10" d="M229.3,440.7c5.3,0,9.8,3.4,11.6,8.2h-23.2C219.5,444.1,224,440.7,229.3,440.7L229.3,440.7z"/>
	<path class="st10" d="M85.9,441.8c5.3,0,9.8,3.4,11.6,8.2H74.4C76.1,445.2,80.6,441.8,85.9,441.8L85.9,441.8z"/>
	<path class="st10" d="M182.9,435.9c3.3,0,6.2,2.1,7.4,5.2h-14.7C176.6,438,179.5,435.9,182.9,435.9L182.9,435.9z"/>
	<path class="st10" d="M259.6,455.4c3.3,0,6.2,2.1,7.4,5.2h-14.7C253.4,457.5,256.3,455.4,259.6,455.4L259.6,455.4z"/>
	<path class="st10" d="M413.9,443.5c3.4,0,6.2,2.1,7.4,5.2h-14.7C407.6,445.6,410.5,443.5,413.9,443.5L413.9,443.5z"/>
	<path class="st10" d="M341.6,444.7c3.4,0,6.3,2.1,7.4,5.2h-14.7C335.4,446.9,338.3,444.7,341.6,444.7L341.6,444.7z"/>
	<path class="st10" d="M117.9,443.1c3.4,0,6.2,2.1,7.4,5.2h-14.7C111.7,445.2,114.5,443.1,117.9,443.1L117.9,443.1z"/>
	<path class="st10" d="M269.4,436.4c2.3,0,4.3,1.5,5.1,3.6h-10.2C265,437.9,267,436.4,269.4,436.4L269.4,436.4z"/>
	<path class="st10" d="M153.6,445.9c2.3,0,4.3,1.5,5.1,3.6h-10.2C149.3,447.4,151.3,445.9,153.6,445.9L153.6,445.9z"/>
	<path class="st10" d="M466.8,445.9c2.3,0,4.3,1.5,5.1,3.6h-10.2C462.5,447.4,464.5,445.9,466.8,445.9L466.8,445.9z"/>
	<path class="st10" d="M294,464.2c2.3,0,4.3,1.5,5.1,3.6h-10.2C289.7,465.7,291.7,464.2,294,464.2L294,464.2z"/>
</g>
</svg>
